<svg xmlns="http://www.w3.org/2000/svg" xmlns:cc="http://web.resource.org/cc/" xmlns:svg="http://www.w3.org/2000/svg" xmlns:xlink="http://www.w3.org/1999/xlink" id="svg2" width="744.094" height="1052.362"><defs id="defs4"><linearGradient id="linearGradient1928"><stop id="stop1930" offset="0" stop-color="#fff" stop-opacity="1"/><stop id="stop1932" offset="1" stop-color="#000" stop-opacity="0"/></linearGradient><linearGradient id="linearGradient2817"><stop id="stop2819" offset="0" stop-color="#e6e6e6" stop-opacity="1"/><stop id="stop2821" offset="1" stop-color="#e6e6e6" stop-opacity="0"/></linearGradient><linearGradient id="linearGradient1934" x1="224.155" x2="223.446" y1="609.713" y2="685.374" gradientTransform="matrix(0.998704,0,0,1,2.132312,0)" gradientUnits="userSpaceOnUse" xlink:href="#linearGradient1928"/></defs><metadata id="metadata7"/><g id="layer1" display="inline"><rect id="rect19047" width="547.024" height="84.876" x="9.718" y="646.213" fill="#000" fill-opacity="1" fill-rule="evenodd" stroke="#ccc" stroke-dasharray="none" stroke-dashoffset="8" stroke-linecap="round" stroke-miterlimit="4" stroke-opacity="1" stroke-width="1.825" display="inline" opacity=".849" ry="8.827"/></g><g id="layer4"><flowRoot id="flowRoot19676" transform="translate(-6.405683,-2.745293)" xml:space="preserve"><flowRegion id="flowRegion19678"><rect id="rect19680" width="307.473" height="88.764" x="31.113" y="804.371"/></flowRegion><flowPara id="flowPara19682">Black key values:</flowPara><flowPara id="flowPara19686">Normal: 40%</flowPara><flowPara id="flowPara19684">Highlight: 20%</flowPara></flowRoot></g><g id="layer2" display="inline" opacity="1"><g id="g4591" transform="matrix(0.368254,0,0,0.368254,236.707,727.4346)"><rect id="rect1933" width="36.353" height="73.475" x="116.573" y="70.12" fill="#999" fill-opacity="1" fill-rule="evenodd" stroke="none" stroke-dasharray="none" stroke-dashoffset="8" stroke-miterlimit="4" stroke-opacity="1" stroke-width=".995"/><rect id="rect2824" width="36.353" height="73.475" x="171.097" y="69.734" fill="#999" fill-opacity="1" fill-rule="evenodd" stroke="none" stroke-dasharray="none" stroke-dashoffset="8" stroke-miterlimit="4" stroke-opacity="1" stroke-width=".995"/></g><g id="g24419" transform="translate(5.236631,-43.33535)"><rect id="rect18115" width="516.321" height="7.515" x="19.833" y="714.228" fill="none" fill-opacity="1" fill-rule="evenodd" stroke="#999" stroke-dasharray="none" stroke-dashoffset="8" stroke-linecap="round" stroke-miterlimit="4" stroke-opacity="1" stroke-width="1.73" display="inline" opacity="1"/><rect id="rect18117" width="4.243" height="4.243" x="-277.244" y="738.125" fill="#999" fill-opacity="1" fill-rule="evenodd" stroke="none" stroke-dasharray="none" stroke-dashoffset="8" stroke-linecap="round" stroke-miterlimit="4" stroke-opacity="1" stroke-width="3.785" display="inline" opacity="1" transform="matrix(0.707107,-0.707107,0.707107,0.707107,0,0)"/></g><path id="path2872" fill="#999" fill-opacity="1" fill-rule="evenodd" stroke="none" stroke-linecap="butt" stroke-linejoin="miter" stroke-opacity="1" stroke-width="1" d="M 277.2774,695.28359 L 277.2774,722.52023 L 311.72059,708.9019 L 277.2774,695.28359 z"/><g id="g20835" fill="#999" transform="matrix(0.2612,0,0,0.23311,200.0183,565.2425)"><path id="path3802" fill="#999" fill-opacity="1" fill-rule="evenodd" stroke="none" stroke-linecap="butt" stroke-linejoin="miter" stroke-opacity="1" stroke-width="1" d="M 241.03742,575.36218 L 241.42857,657.14789 L 159.28571,616.07646 L 241.03742,575.36218 z"/><path id="path6462" fill="#999" fill-opacity="1" fill-rule="evenodd" stroke="none" stroke-linecap="butt" stroke-linejoin="miter" stroke-opacity="1" stroke-width="1" d="M 159.46599,575.3979 L 159.85714,657.18361 L 77.714285,616.11218 L 159.46599,575.3979 z" display="inline"/></g><g id="g20839" fill="#999" transform="matrix(0.2612,0,0,0.23311,205.8823,623.3409)"><path id="path1885" fill="#999" fill-opacity="1" fill-rule="evenodd" stroke="none" stroke-linecap="butt" stroke-linejoin="miter" stroke-opacity="1" stroke-width="1" d="M 442.22255,326.13066 L 441.8314,407.91637 L 523.97426,366.84494 L 442.22255,326.13066 z" display="inline"/><path id="path1887" fill="#999" fill-opacity="1" fill-rule="evenodd" stroke="none" stroke-linecap="butt" stroke-linejoin="miter" stroke-opacity="1" stroke-width="1" d="M 523.79398,326.16638 L 523.40283,407.95209 L 605.54568,366.88066 L 523.79398,326.16638 z" display="inline"/></g><rect id="rect7473" width="27.2" height="27.2" x="210.764" y="755.244" fill="#999" fill-opacity="1" fill-rule="evenodd" stroke="none" stroke-dasharray="none" stroke-dashoffset="8" stroke-miterlimit="4" stroke-opacity="1" stroke-width="1"/><g id="g20848" fill="#999" transform="matrix(0.25886,0,0,0.194448,151.4971,542.7451)"><path id="path6537" fill="#999" fill-opacity="1" fill-rule="evenodd" stroke="none" stroke-linecap="butt" stroke-linejoin="miter" stroke-opacity="1" stroke-width="1" d="M 235.53571,899.86218 L 235.53571,809.1479 L 180.89286,854.50504 L 235.53571,899.86218 z" display="inline" opacity="1"/><path id="path7425" fill="#999" fill-opacity="1" fill-rule="evenodd" stroke="none" stroke-linecap="butt" stroke-linejoin="miter" stroke-opacity="1" stroke-width="1" d="M 181.24999,899.86218 L 181.24999,809.1479 L 126.60714,854.50504 L 181.24999,899.86218 z" display="inline" opacity="1"/><rect id="rect7427" width="6.786" height="90.714" x="119.643" y="809.148" fill="#999" fill-opacity="1" fill-rule="evenodd" stroke="none" stroke-dasharray="none" stroke-dashoffset="8" stroke-miterlimit="4" stroke-opacity="1" stroke-width="1"/></g><g id="g20843" fill="#999" transform="matrix(0.25886,0,0,0.194448,276.0424,542.2519)"><path id="path1889" fill="#999" fill-opacity="1" fill-rule="evenodd" stroke="none" stroke-linecap="butt" stroke-linejoin="miter" stroke-opacity="1" stroke-width="1" d="M 376.84436,902.65272 L 376.84436,811.93844 L 431.48721,857.29558 L 376.84436,902.65272 z" display="inline" opacity="1"/><path id="path1891" fill="#999" fill-opacity="1" fill-rule="evenodd" stroke="none" stroke-linecap="butt" stroke-linejoin="miter" stroke-opacity="1" stroke-width="1" d="M 431.13008,902.14428 L 431.13008,811.43 L 485.77293,856.78714 L 431.13008,902.14428 z" display="inline" opacity="1"/><rect id="rect1893" width="6.786" height="90.714" x="-492.737" y="811.43" fill="#999" fill-opacity="1" fill-rule="evenodd" stroke="none" stroke-dasharray="none" stroke-dashoffset="8" stroke-miterlimit="4" stroke-opacity="1" stroke-width="1" display="inline" transform="scale(-1,1)"/></g><g id="g25308" transform="translate(-318.5763,-45.75388)"><g id="g20853" fill="#999" transform="matrix(0.140582,0,0,0.140582,384.499,669.4403)"><path id="path1986" fill="#999" fill-opacity="1" fill-rule="evenodd" stroke="none" stroke-linecap="butt" stroke-linejoin="miter" stroke-opacity="1" stroke-width="1" d="M 476.4111,592.72042 L 491.90086,592.72042 L 522.4763,566.85926 L 522.4763,644.44275 L 491.90441,618.98567 L 476.00702,618.98567 L 476.4111,592.72042 z"/><path id="path10070" fill="none" fill-opacity="1" fill-rule="evenodd" stroke="#999" stroke-dasharray="none" stroke-dashoffset="8" stroke-linecap="butt" stroke-miterlimit="4" stroke-opacity="1" stroke-width="5" d="M 548.14675,650.11365 C 565.03032,642.67205 576.8072,625.77136 576.80721,606.14589 C 576.80721,586.52003 565.03091,569.65208 548.14675,562.21071"/><path id="path10073" fill="none" fill-opacity="1" fill-rule="evenodd" stroke="#999" stroke-dasharray="none" stroke-dashoffset="8" stroke-linecap="butt" stroke-miterlimit="4" stroke-opacity="1" stroke-width="5" d="M 540.48356,634.41879 C 551.37283,629.61924 558.96846,618.71893 558.96847,606.06123 C 558.96847,593.40328 551.3732,582.5241 540.48356,577.7247" display="inline" opacity="1"/><path id="path10075" fill="none" fill-opacity="1" fill-rule="evenodd" stroke="#999" stroke-dasharray="none" stroke-dashoffset="8" stroke-linecap="butt" stroke-miterlimit="4" stroke-opacity="1" stroke-width="5" d="M 532.83148,619.04613 C 537.89756,616.81322 541.43135,611.74199 541.43135,605.85319 C 541.43135,599.96423 537.89774,594.90284 532.83148,592.66997" display="inline" opacity="1"/></g><path id="path20861" fill="#999" fill-opacity="1" fill-rule="evenodd" stroke="none" stroke-linecap="butt" stroke-linejoin="miter" stroke-opacity="1" stroke-width="1" d="M 343.64616,752.83797 L 345.82375,752.83797 L 350.1221,749.20235 L 350.1221,760.10921 L 345.82424,756.53039 L 343.58935,756.53039 L 343.64616,752.83797 z" opacity="1"/><path id="path20873" fill="none" fill-rule="evenodd" stroke="#999" stroke-dasharray="none" stroke-linecap="butt" stroke-linejoin="miter" stroke-miterlimit="4" stroke-opacity="1" stroke-width="1.833" d="M 353.9895,754.65488 L 447.3167,754.65668"/><path id="path22645" fill="#262626" fill-opacity="1" fill-rule="evenodd" stroke="#999" stroke-dasharray="none" stroke-dashoffset="8" stroke-linecap="round" stroke-miterlimit="4" stroke-opacity="1" stroke-width="2.583" d="M 273.9667 754.15063 A 5.6571293 5.6571293 0 1 1 262.65244,754.15063 A 5.6571293 5.6571293 0 1 1 273.9667 754.15063 z" opacity="1" transform="matrix(0.621528,0,0,0.621528,243.3288,285.7584)"/><path id="path3703" fill="#999" fill-opacity="1" fill-rule="evenodd" stroke="none" stroke-dasharray="none" stroke-dashoffset="8" stroke-miterlimit="4" stroke-opacity="1" stroke-width="2" d="M 94.140663 709.08624 A 1.42984 1.2582592 0 1 1 91.280983,709.08624 A 1.42984 1.2582592 0 1 1 94.140663 709.08624 z" opacity="1" transform="matrix(0.699379,0,0,0.794749,345.2507,190.9386)"/></g><g id="g35119" fill="#999" transform="matrix(1.88674,0,0,1.88674,-476.5009,-708.0485)"><path id="rect30632" fill="#999" fill-opacity="1" fill-rule="evenodd" stroke="#999" stroke-dashoffset="8" stroke-linecap="round" stroke-miterlimit="4" stroke-opacity="1" stroke-width=".359" d="M 533.32,748.03511 C 532.18417,748.04361 531.04659,748.12896 529.92419,748.31399 C 529.36122,748.51635 529.15716,749.22221 529.14111,749.79549 C 529.1329,750.64427 529.12556,751.49428 529.14449,752.34274 C 529.18905,752.892 529.43699,753.57523 530.0073,753.6908 C 532.26201,754.02327 534.56561,754.04568 536.81645,753.67046 C 537.37892,753.46434 537.58329,752.75867 537.59962,752.18388 C 537.60782,751.33519 537.61513,750.48524 537.59619,749.63684 C 537.5524,749.08805 537.30135,748.41061 536.73341,748.29421 C 535.60358,748.11989 534.46175,748.03046 533.32,748.03511 z"/><g id="g34209" fill="#999" transform="matrix(-0.477112,-0.477112,-0.477112,0.477112,1136.194,640.7622)"><path id="rect34202" fill="#999" fill-opacity="1" fill-rule="evenodd" stroke="none" stroke-dasharray="none" stroke-dashoffset="8" stroke-linecap="round" stroke-miterlimit="4" stroke-opacity="1" stroke-width="2" d="M 517.94619,754.12038 L 515.44619,757.33913 L 520.38369,757.33913 L 517.94619,754.12038 z"/><rect id="rect34207" width="1.785" height="3.752" x="517.003" y="755.585" fill="#999" fill-opacity="1" fill-rule="evenodd" stroke="none" stroke-dasharray="none" stroke-dashoffset="8" stroke-linecap="round" stroke-miterlimit="4" stroke-opacity="1" stroke-width="2" ry="0"/></g><g id="g34213" fill="#999" display="inline" opacity="1" transform="matrix(0.477112,-0.477112,0.477112,0.477112,-69.54944,640.7622)"><path id="path34215" fill="#999" fill-opacity="1" fill-rule="evenodd" stroke="none" stroke-dasharray="none" stroke-dashoffset="8" stroke-linecap="round" stroke-miterlimit="4" stroke-opacity="1" stroke-width="2" d="M 517.94619,754.12038 L 515.44619,757.33913 L 520.38369,757.33913 L 517.94619,754.12038 z"/><rect id="rect34217" width="1.785" height="3.752" x="517.003" y="755.585" fill="#999" fill-opacity="1" fill-rule="evenodd" stroke="none" stroke-dasharray="none" stroke-dashoffset="8" stroke-linecap="round" stroke-miterlimit="4" stroke-opacity="1" stroke-width="2" ry="0"/></g><g id="g34219" fill="#999" display="inline" opacity="1" transform="matrix(0.477112,0.477112,0.477112,-0.477112,-69.54944,861.247)"><path id="path34221" fill="#999" fill-opacity="1" fill-rule="evenodd" stroke="none" stroke-dasharray="none" stroke-dashoffset="8" stroke-linecap="round" stroke-miterlimit="4" stroke-opacity="1" stroke-width="2" d="M 517.94619,754.12038 L 515.44619,757.33913 L 520.38369,757.33913 L 517.94619,754.12038 z"/><rect id="rect34223" width="1.785" height="3.752" x="517.003" y="755.585" fill="#999" fill-opacity="1" fill-rule="evenodd" stroke="none" stroke-dasharray="none" stroke-dashoffset="8" stroke-linecap="round" stroke-miterlimit="4" stroke-opacity="1" stroke-width="2" ry="0"/></g><g id="g34225" fill="#999" display="inline" opacity="1" transform="matrix(-0.477112,0.477112,-0.477112,-0.477112,1136.194,861.247)"><path id="path34227" fill="#999" fill-opacity="1" fill-rule="evenodd" stroke="none" stroke-dasharray="none" stroke-dashoffset="8" stroke-linecap="round" stroke-miterlimit="4" stroke-opacity="1" stroke-width="2" d="M 517.94619,754.12038 L 515.44619,757.33913 L 520.38369,757.33913 L 517.94619,754.12038 z"/><rect id="rect34229" width="1.785" height="3.752" x="517.003" y="755.585" fill="#999" fill-opacity="1" fill-rule="evenodd" stroke="none" stroke-dasharray="none" stroke-dashoffset="8" stroke-linecap="round" stroke-miterlimit="4" stroke-opacity="1" stroke-width="2" ry="0"/></g></g></g><g id="layer3" display="inline" opacity="1"><flowRoot id="flowRoot19938" fill="#999" fill-opacity="1" font-size="10" transform="translate(58.47307,-37.14568)" xml:space="preserve"><flowRegion id="flowRegion19940"><rect id="rect19942" width="272.35" height="12.931" x="168.098" y="692.73" fill="#999" fill-opacity="1" font-size="10"/></flowRegion><flowPara id="flowPara19944" font-size="12">VLC Full Screen.avi</flowPara></flowRoot><text id="text20831" x="501.323" y="665.861" fill="#999" fill-opacity="1" stroke="none" stroke-linecap="butt" stroke-linejoin="miter" stroke-opacity="1" stroke-width="1" font-family="Tahoma" font-size="12" font-stretch="normal" font-style="normal" font-variant="normal" font-weight="normal" text-anchor="start" writing-mode="lr-tb" xml:space="preserve" style="text-align:start;line-height:125%"><tspan id="tspan20833" x="501.323" y="665.861" fill="#999" fill-opacity="1" font-size="12" font-weight="normal">1:23:45</tspan></text></g></svg>