<svg xmlns="http://www.w3.org/2000/svg" xmlns:ev="http://www.w3.org/2001/xml-events" xmlns:xlink="http://www.w3.org/1999/xlink" width="600" height="400" version="1.1"><meta content="John Maddock" name="copyright"/><meta content="2008" name="date"/><clipPath id="plot_window"><rect width="524.2" height="274.2" x="62.8" y="63"/></clipPath><g id="imageBackground" fill="#FFF" stroke="#789" stroke-width="2"><rect width="600" height="400" x="0" y="0"/></g><g id="plotBackground" fill="#FFF" stroke="#789" stroke-width="2"><rect width="526.2" height="276.2" x="61.8" y="62"/></g><g id="yAxis" stroke="#000" stroke-width="1"><line x1="319.7" x2="319.7" y1="62" y2="343.2"/><line x1="61.8" x2="61.8" y1="62" y2="338.2"/></g><g id="xAxis" stroke="#000" stroke-width="1"><line x1="56.8" x2="588" y1="202.8" y2="202.8"/><line x1="56.8" x2="588" y1="338.2" y2="338.2"/></g><g id="yMinorTicks" stroke="#000" stroke-width="1"><path d="M59.8,196 L61.8,196 M59.8,189.3 L61.8,189.3 M59.8,182.5 L61.8,182.5 M59.8,169 L61.8,169 M59.8,162.2 L61.8,162.2 M59.8,155.4 L61.8,155.4 M59.8,141.9 L61.8,141.9 M59.8,135.1 L61.8,135.1 M59.8,128.3 L61.8,128.3 M59.8,114.8 L61.8,114.8 M59.8,108 L61.8,108 M59.8,101.3 L61.8,101.3 M59.8,87.72 L61.8,87.72 M59.8,80.95 L61.8,80.95 M59.8,74.19 L61.8,74.19 M59.8,202.8 L61.8,202.8 M59.8,209.6 L61.8,209.6 M59.8,216.3 L61.8,216.3 M59.8,223.1 L61.8,223.1 M59.8,229.9 L61.8,229.9 M59.8,236.7 L61.8,236.7 M59.8,243.4 L61.8,243.4 M59.8,250.2 L61.8,250.2 M59.8,257 L61.8,257 M59.8,263.7 L61.8,263.7 M59.8,270.5 L61.8,270.5 M59.8,277.3 L61.8,277.3 M59.8,284 L61.8,284 M59.8,290.8 L61.8,290.8 M59.8,297.6 L61.8,297.6 M59.8,304.4 L61.8,304.4 M59.8,311.1 L61.8,311.1 M59.8,317.9 L61.8,317.9 M59.8,324.7 L61.8,324.7 M59.8,331.4 L61.8,331.4 M59.8,338.2 L61.8,338.2"/></g><g id="xMinorTicks" stroke="#000" stroke-width="1"><path d="M352,338.2 L352,340.2 M384.2,338.2 L384.2,340.2 M416.5,338.2 L416.5,340.2 M481,338.2 L481,340.2 M513.2,338.2 L513.2,340.2 M545.5,338.2 L545.5,340.2 M287.5,338.2 L287.5,340.2 M255.3,338.2 L255.3,340.2 M223,338.2 L223,340.2 M158.5,338.2 L158.5,340.2 M126.3,338.2 L126.3,340.2 M94.02,338.2 L94.02,340.2"/></g><g id="yMajorTicks" stroke="#000" stroke-width="2"><path d="M56.8,202.8 L61.8,202.8 M56.8,175.7 L61.8,175.7 M56.8,148.7 L61.8,148.7 M56.8,121.6 L61.8,121.6 M56.8,94.49 L61.8,94.49 M56.8,67.42 L61.8,67.42 M56.8,202.8 L61.8,202.8 M56.8,229.9 L61.8,229.9 M56.8,257 L61.8,257 M56.8,284 L61.8,284 M56.8,311.1 L61.8,311.1 M56.8,338.2 L61.8,338.2"/></g><g id="xMajorTicks" stroke="#000" stroke-width="2"><path d="M319.7,338.2 L319.7,343.2 M448.7,338.2 L448.7,343.2 M577.7,338.2 L577.7,343.2 M319.7,338.2 L319.7,343.2 M190.8,338.2 L190.8,343.2"/></g><g id="plotLabels"><text x="319.7" y="357.6" font-family="Verdana" font-size="12" text-anchor="middle">0</text><text x="448.7" y="357.6" font-family="Verdana" font-size="12" text-anchor="middle">0.5</text><text x="577.7" y="357.6" font-family="Verdana" font-size="12" text-anchor="middle">1</text><text x="319.7" y="357.6" font-family="Verdana" font-size="12" text-anchor="middle">0</text><text x="190.8" y="357.6" font-family="Verdana" font-size="12" text-anchor="middle">-0.5</text><text x="50.8" y="205.2" font-family="Verdana" font-size="12" text-anchor="end">0</text><text x="50.8" y="178.1" font-family="Verdana" font-size="12" text-anchor="end">1</text><text x="50.8" y="151.1" font-family="Verdana" font-size="12" text-anchor="end">2</text><text x="50.8" y="124" font-family="Verdana" font-size="12" text-anchor="end">3</text><text x="50.8" y="96.89" font-family="Verdana" font-size="12" text-anchor="end">4</text><text x="50.8" y="69.82" font-family="Verdana" font-size="12" text-anchor="end">5</text><text x="50.8" y="205.2" font-family="Verdana" font-size="12" text-anchor="end">0</text><text x="50.8" y="232.3" font-family="Verdana" font-size="12" text-anchor="end">-1</text><text x="50.8" y="259.4" font-family="Verdana" font-size="12" text-anchor="end">-2</text><text x="50.8" y="286.4" font-family="Verdana" font-size="12" text-anchor="end">-3</text><text x="50.8" y="313.5" font-family="Verdana" font-size="12" text-anchor="end">-4</text><text x="50.8" y="340.6" font-family="Verdana" font-size="12" text-anchor="end">-5</text></g><g id="yLabel"><text x="30.2" y="200.1" font-family="Verdana" font-size="14" text-anchor="middle" transform="rotate(-90 30.2 200.1 )">atanh(z)</text></g><g id="xLabel"><text x="324.9" y="384" font-family="Verdana" font-size="14" text-anchor="middle">z</text></g><g id="plotLines" stroke-width="2"><g stroke="#00008B" stroke-width="1" clip-path="url(#plot_window)"><path fill="none" d="M61.8,338.2 L64.38,274.4 L66.96,265 L69.54,259.4 L72.12,255.5 L74.7,252.4 L77.28,249.9 L79.86,247.7 L82.44,245.8 L85.01,244.2 L87.59,242.7 L90.17,241.3 L92.75,240.1 L95.33,238.9 L97.91,237.8 L100.5,236.8 L103.1,235.9 L105.6,235 L108.2,234.1 L110.8,233.3 L113.4,232.6 L116,231.8 L118.5,231.1 L121.1,230.4 L123.7,229.8 L126.3,229.1 L128.9,228.5 L131.4,228 L134,227.4 L136.6,226.8 L139.2,226.3 L141.8,225.8 L144.3,225.3 L146.9,224.8 L149.5,224.3 L152.1,223.8 L154.7,223.3 L157.2,222.9 L159.8,222.4 L162.4,222 L165,221.6 L167.6,221.2 L170.1,220.7 L172.7,220.3 L175.3,219.9 L177.9,219.6 L180.5,219.2 L183,218.8 L185.6,218.4 L188.2,218 L190.8,217.7 L193.3,217.3 L195.9,217 L198.5,216.6 L201.1,216.3 L203.7,215.9 L206.2,215.6 L208.8,215.3 L211.4,214.9 L214,214.6 L216.6,214.3 L219.1,214 L221.7,213.6 L224.3,213.3 L226.9,213 L229.5,212.7 L232,212.4 L234.6,212.1 L237.2,211.8 L239.8,211.5 L242.4,211.2 L244.9,210.9 L247.5,210.6 L250.1,210.3 L252.7,210 L255.3,209.7 L257.8,209.4 L260.4,209.1 L263,208.9 L265.6,208.6 L268.2,208.3 L270.7,208 L273.3,207.7 L275.9,207.5 L278.5,207.2 L281,206.9 L283.6,206.6 L286.2,206.3 L288.8,206.1 L291.4,205.8 L293.9,205.5 L296.5,205.3 L299.1,205 L301.7,204.7 L304.3,204.4 L306.8,204.2 L309.4,203.9 L312,203.6 L314.6,203.3 L317.2,203.1 L319.7,202.8 L322.3,202.5 L324.9,202.3 L327.5,202 L330.1,201.7 L332.6,201.5 L335.2,201.2 L337.8,200.9 L340.4,200.6 L343,200.4 L345.5,200.1 L348.1,199.8 L350.7,199.5 L353.3,199.3 L355.9,199 L358.4,198.7 L361,198.4 L363.6,198.2 L366.2,197.9 L368.7,197.6 L371.3,197.3 L373.9,197 L376.5,196.8 L379.1,196.5 L381.6,196.2 L384.2,195.9 L386.8,195.6 L389.4,195.3 L392,195 L394.5,194.7 L397.1,194.4 L399.7,194.1 L402.3,193.8 L404.9,193.5 L407.4,193.2 L410,192.9 L412.6,192.6 L415.2,192.3 L417.8,192 L420.3,191.7 L422.9,191.3 L425.5,191 L428.1,190.7 L430.7,190.4 L433.2,190 L435.8,189.7 L438.4,189.3 L441,189 L443.6,188.6 L446.1,188.3 L448.7,187.9 L451.3,187.6 L453.9,187.2 L456.4,186.8 L459,186.5 L461.6,186.1 L464.2,185.7 L466.8,185.3 L469.3,184.9 L471.9,184.5 L474.5,184 L477.1,183.6 L479.7,183.2 L482.2,182.7 L484.8,182.3 L487.4,181.8 L490,181.3 L492.6,180.9 L495.1,180.4 L497.7,179.8 L500.3,179.3 L502.9,178.8 L505.5,178.2 L508,177.7 L510.6,177.1 L513.2,176.5 L515.8,175.8 L518.4,175.2 L520.9,174.5 L523.5,173.8 L526.1,173.1 L528.7,172.3 L531.3,171.5 L533.8,170.6 L536.4,169.7 L539,168.8 L541.6,167.8 L544.1,166.7 L546.7,165.6 L549.3,164.3 L551.9,163 L554.5,161.5 L557,159.8 L559.6,157.9 L562.2,155.8 L564.8,153.2 L567.4,150.1 L569.9,146.2 L572.5,140.7 L575.1,131.3 L577.7,67.42"/></g></g><g id="title"><text x="300" y="40" font-family="Verdana" font-size="20" text-anchor="middle">atanh</text></g></svg>