<svg xmlns="http://www.w3.org/2000/svg" xmlns:ev="http://www.w3.org/2001/xml-events" xmlns:xlink="http://www.w3.org/1999/xlink" width="750" height="400" version="1.1"><clipPath id="plot_window"><rect width="540.8" height="274.2" x="71.2" y="63"/></clipPath><g id="imageBackground" fill="#FFF" stroke="#789" stroke-width="2"><rect width="750" height="400" x="0" y="0"/></g><g id="plotBackground" fill="#FFF" stroke="#789" stroke-width="2"><rect width="542.8" height="276.2" x="70.2" y="62"/></g><g id="yAxis" stroke="#000" stroke-width="1"><line x1="205.9" x2="205.9" y1="62" y2="343.2"/><line x1="70.2" x2="70.2" y1="62" y2="338.2"/></g><g id="xAxis" stroke="#000" stroke-width="1"><line x1="65.2" x2="613" y1="338.2" y2="338.2"/><line x1="65.2" x2="613" y1="338.2" y2="338.2"/></g><g id="yMinorTicks" stroke="#000" stroke-width="1"><path d="M68.2,331.5 L70.2,331.5 M68.2,324.8 L70.2,324.8 M68.2,318.1 L70.2,318.1 M68.2,311.4 L70.2,311.4 M68.2,298 L70.2,298 M68.2,291.3 L70.2,291.3 M68.2,284.6 L70.2,284.6 M68.2,277.9 L70.2,277.9 M68.2,264.5 L70.2,264.5 M68.2,257.9 L70.2,257.9 M68.2,251.2 L70.2,251.2 M68.2,244.5 L70.2,244.5 M68.2,231.1 L70.2,231.1 M68.2,224.4 L70.2,224.4 M68.2,217.7 L70.2,217.7 M68.2,211 L70.2,211 M68.2,197.6 L70.2,197.6 M68.2,190.9 L70.2,190.9 M68.2,184.2 L70.2,184.2 M68.2,177.5 L70.2,177.5 M68.2,164.1 L70.2,164.1 M68.2,157.4 L70.2,157.4 M68.2,150.7 L70.2,150.7 M68.2,144 L70.2,144 M68.2,130.6 L70.2,130.6 M68.2,123.9 L70.2,123.9 M68.2,117.2 L70.2,117.2 M68.2,110.5 L70.2,110.5 M68.2,97.15 L70.2,97.15 M68.2,90.46 L70.2,90.46 M68.2,83.76 L70.2,83.76 M68.2,77.07 L70.2,77.07 M68.2,63.67 L70.2,63.67 M68.2,338.2 L70.2,338.2"/></g><g id="yMajorTicks" stroke="#000" stroke-width="2"><path d="M65.2,338.2 L70.2,338.2 M65.2,304.7 L70.2,304.7 M65.2,271.2 L70.2,271.2 M65.2,237.8 L70.2,237.8 M65.2,204.3 L70.2,204.3 M65.2,170.8 L70.2,170.8 M65.2,137.3 L70.2,137.3 M65.2,103.8 L70.2,103.8 M65.2,70.37 L70.2,70.37 M65.2,338.2 L70.2,338.2"/></g><g id="xMajorTicks" stroke="#000" stroke-width="2"><path d="M205.9,338.2 L205.9,343.2 M477.3,338.2 L477.3,343.2 M205.9,338.2 L205.9,343.2"/></g><g id="plotLabels"><text x="205.9" y="357.6" font-family="Verdana" font-size="12" text-anchor="middle">0</text><text x="477.3" y="357.6" font-family="Verdana" font-size="12" text-anchor="middle">1</text><text x="205.9" y="357.6" font-family="Verdana" font-size="12" text-anchor="middle">0</text><text x="59.2" y="340.6" font-family="Verdana" font-size="12" text-anchor="end">0</text><text x="59.2" y="307.1" font-family="Verdana" font-size="12" text-anchor="end">0.1</text><text x="59.2" y="273.6" font-family="Verdana" font-size="12" text-anchor="end">0.2</text><text x="59.2" y="240.2" font-family="Verdana" font-size="12" text-anchor="end">0.3</text><text x="59.2" y="206.7" font-family="Verdana" font-size="12" text-anchor="end">0.4</text><text x="59.2" y="173.2" font-family="Verdana" font-size="12" text-anchor="end">0.5</text><text x="59.2" y="139.7" font-family="Verdana" font-size="12" text-anchor="end">0.6</text><text x="59.2" y="106.2" font-family="Verdana" font-size="12" text-anchor="end">0.7</text><text x="59.2" y="72.77" font-family="Verdana" font-size="12" text-anchor="end">0.8</text><text x="59.2" y="340.6" font-family="Verdana" font-size="12" text-anchor="end">0</text></g><g id="yLabel"><text x="30.2" y="200.1" font-family="Verdana" font-size="14" text-anchor="middle" transform="rotate(-90 30.2 200.1 )">Probability</text></g><g id="xLabel"><text x="341.6" y="384" font-family="Verdana" font-size="14" text-anchor="middle">Random Variable</text></g><g id="plotLines" stroke-width="2"><g stroke="#00008B" stroke-width="1" clip-path="url(#plot_window)"><path fill="#00008B" d="M104.1,338.2 L104.1,338.2 L104.1,87.11 L172,87.11 L172,338.2 L375.5,338.2 L375.5,254.5 L443.3,254.5 L443.4,338.2 L443.4,338.2 Z"/></g><g stroke="#8B0000" stroke-width="1" clip-path="url(#plot_window)"><path fill="#8B0000" d="M172,338.2 L172,338.2 L172,170.8 L239.8,170.8 L239.8,338.2 L443.3,338.2 L443.4,170.8 L511.2,170.8 L511.2,338.2 L511.2,338.2 Z"/></g><g stroke="#006400" stroke-width="1" clip-path="url(#plot_window)"><path fill="#006400" d="M239.8,338.2 L239.8,338.2 L239.8,254.5 L307.7,254.5 L307.7,338.2 L511.2,338.2 L511.2,87.11 L579,87.11 L579,338.2 L579,338.2 Z"/></g></g><g id="legendBackground" fill="#FFF" stroke="#789" stroke-width="1"><rect width="111" height="105" x="627" y="62"/><rect width="111" height="105" x="627" y="62"/></g><g id="legendPoints"><g stroke="#00008B" stroke-width="1"><line x1="642" x2="657" y1="92" y2="92"/></g><g stroke="#8B0000" stroke-width="1"><line x1="642" x2="657" y1="122" y2="122"/></g><g stroke="#006400" stroke-width="1"><line x1="642" x2="657" y1="152" y2="152"/></g></g><g id="legendText"><text x="664.5" y="92" font-family="Verdana" font-size="15">p=0.25</text><text x="664.5" y="122" font-family="Verdana" font-size="15">p=0.5</text><text x="664.5" y="152" font-family="Verdana" font-size="15">p=0.75</text></g><g id="title"><text x="375" y="40" font-family="Verdana" font-size="20" text-anchor="middle">Bernoulli Distribution PDF</text></g></svg>