<svg xmlns="http://www.w3.org/2000/svg" xmlns:cc="http://web.resource.org/cc/" xmlns:xlink="http://www.w3.org/1999/xlink" id="svg48247" width="64pt" height="64pt"><defs id="defs3"><linearGradient id="XMLID_478_" x1="534.724" x2="315.197" y1="999.982" y2="919.353" gradientUnits="userSpaceOnUse"><stop id="stop5968" offset="0" stop-color="#B2ADD3"/><stop id="stop5970" offset="1" stop-color="#798DA6"/><midPointStop id="midPointStop5972" offset="0" stop-color="#B2ADD3"/><midPointStop id="midPointStop5974" offset=".5" stop-color="#B2ADD3"/><midPointStop id="midPointStop5976" offset="1" stop-color="#798DA6"/></linearGradient><linearGradient id="linearGradient30118" x1="534.724" x2="315.197" y1="999.982" y2="919.353" gradientUnits="userSpaceOnUse" xlink:href="#XMLID_478_"/><linearGradient id="XMLID_477_" x1="464.104" x2="383.566" y1="973.42" y2="943.84" gradientTransform="matrix(0.999700,-2.290000e-2,2.290000e-2,0.999700,-16.42400,-1.674000)" gradientUnits="userSpaceOnUse"><stop id="stop5953" offset="0" stop-color="#B2ADD3"/><stop id="stop5955" offset="1" stop-color="#798DA6"/><midPointStop id="midPointStop5957" offset="0" stop-color="#B2ADD3"/><midPointStop id="midPointStop5959" offset=".5" stop-color="#B2ADD3"/><midPointStop id="midPointStop5961" offset="1" stop-color="#798DA6"/></linearGradient><linearGradient id="linearGradient30117" x1="464.104" x2="383.566" y1="973.42" y2="943.84" gradientTransform="matrix(0.999700,-2.290000e-2,2.290000e-2,0.999700,-16.42400,-1.674000)" gradientUnits="userSpaceOnUse" xlink:href="#XMLID_477_"/><linearGradient id="XMLID_476_" x1="520.523" x2="600.421" y1="961.032" y2="966.581" gradientUnits="userSpaceOnUse"><stop id="stop5938" offset="0" stop-color="#B2ADD3"/><stop id="stop5940" offset="1" stop-color="#798DA6"/><midPointStop id="midPointStop5942" offset="0" stop-color="#B2ADD3"/><midPointStop id="midPointStop5944" offset=".5" stop-color="#B2ADD3"/><midPointStop id="midPointStop5946" offset="1" stop-color="#798DA6"/></linearGradient><linearGradient id="linearGradient30116" x1="520.523" x2="600.421" y1="961.032" y2="966.581" gradientUnits="userSpaceOnUse" xlink:href="#XMLID_476_"/><linearGradient id="XMLID_475_" x1="520.105" x2="516.195" y1="762.496" y2="857.31" gradientTransform="matrix(0.999900,1.140000e-2,-1.140000e-2,0.999900,6.109900,-1.500000e-3)" gradientUnits="userSpaceOnUse"><stop id="stop5922" offset="0" stop-color="#FFF"/><stop id="stop5924" offset="1" stop-color="#AFCBD1"/><midPointStop id="midPointStop5926" offset="0" stop-color="#FFF"/><midPointStop id="midPointStop5928" offset=".5" stop-color="#FFF"/><midPointStop id="midPointStop5930" offset="1" stop-color="#AFCBD1"/></linearGradient><linearGradient id="linearGradient30115" x1="520.105" x2="516.195" y1="762.496" y2="857.31" gradientTransform="matrix(0.999900,1.140000e-2,-1.140000e-2,0.999900,6.109900,-1.500000e-3)" gradientUnits="userSpaceOnUse" xlink:href="#XMLID_475_"/><linearGradient id="XMLID_474_" x1="517.864" x2="506.387" y1="776.024" y2="1082.07" gradientTransform="matrix(0.999900,1.140000e-2,-1.140000e-2,0.999900,6.109900,-1.500000e-3)" gradientUnits="userSpaceOnUse"><stop id="stop5903" offset="0" stop-color="#FFF"/><stop id="stop5905" offset=".354" stop-color="#D8E6E9"/><stop id="stop5907" offset=".738" stop-color="#B9D1D7"/><stop id="stop5909" offset="1" stop-color="#AFCBD1"/><midPointStop id="midPointStop5911" offset="0" stop-color="#FFF"/><midPointStop id="midPointStop5913" offset=".376" stop-color="#FFF"/><midPointStop id="midPointStop5915" offset="1" stop-color="#AFCBD1"/></linearGradient><linearGradient id="linearGradient30114" x1="517.864" x2="506.387" y1="776.024" y2="1082.07" gradientTransform="matrix(0.999900,1.140000e-2,-1.140000e-2,0.999900,6.109900,-1.500000e-3)" gradientUnits="userSpaceOnUse" xlink:href="#XMLID_474_"/><linearGradient id="XMLID_473_" x1="322.471" x2="656.117" y1="936.963" y2="739.013" gradientTransform="matrix(0.999900,1.140000e-2,-1.140000e-2,0.999900,6.109900,-1.500000e-3)" gradientUnits="userSpaceOnUse"><stop id="stop5884" offset="0" stop-color="#D4EFF5"/><stop id="stop5886" offset="1" stop-color="#000"/><midPointStop id="midPointStop5888" offset="0" stop-color="#D4EFF5"/><midPointStop id="midPointStop5890" offset=".5" stop-color="#D4EFF5"/><midPointStop id="midPointStop5892" offset="1" stop-color="#000"/></linearGradient><linearGradient id="linearGradient30113" x1="322.471" x2="656.117" y1="936.963" y2="739.013" gradientTransform="matrix(0.999900,1.140000e-2,-1.140000e-2,0.999900,6.109900,-1.500000e-3)" gradientUnits="userSpaceOnUse" xlink:href="#XMLID_473_"/><linearGradient id="XMLID_472_" x1="640.579" x2="326.315" y1="690.319" y2="1005.072" gradientUnits="userSpaceOnUse"><stop id="stop5869" offset="0" stop-color="#FFF"/><stop id="stop5871" offset="1" stop-color="#0677B3"/><midPointStop id="midPointStop5873" offset="0" stop-color="#FFF"/><midPointStop id="midPointStop5875" offset=".5" stop-color="#FFF"/><midPointStop id="midPointStop5877" offset="1" stop-color="#0677B3"/></linearGradient><linearGradient id="linearGradient30112" x1="640.579" x2="326.315" y1="690.319" y2="1005.072" gradientUnits="userSpaceOnUse" xlink:href="#XMLID_472_"/><linearGradient id="XMLID_471_" x1="647.065" x2="424.375" y1="648.586" y2="925.626" gradientUnits="userSpaceOnUse"><stop id="stop5853" offset="0" stop-color="#FFF"/><stop id="stop5855" offset="1" stop-color="#0677B3"/><midPointStop id="midPointStop5857" offset="0" stop-color="#FFF"/><midPointStop id="midPointStop5859" offset=".5" stop-color="#FFF"/><midPointStop id="midPointStop5861" offset="1" stop-color="#0677B3"/></linearGradient><linearGradient id="linearGradient30111" x1="647.065" x2="424.375" y1="648.586" y2="925.626" gradientUnits="userSpaceOnUse" xlink:href="#XMLID_471_"/><linearGradient id="XMLID_470_" x1="582.697" x2="365.515" y1="609.201" y2="879.387" gradientUnits="userSpaceOnUse"><stop id="stop5838" offset="0" stop-color="#0677B3"/><stop id="stop5840" offset="1" stop-color="#0A54A3"/><midPointStop id="midPointStop5842" offset="0" stop-color="#0677B3"/><midPointStop id="midPointStop5844" offset=".5" stop-color="#0677B3"/><midPointStop id="midPointStop5846" offset="1" stop-color="#0A54A3"/></linearGradient><linearGradient id="linearGradient30110" x1="582.697" x2="365.515" y1="609.201" y2="879.387" gradientUnits="userSpaceOnUse" xlink:href="#XMLID_470_"/><linearGradient id="XMLID_469_" x1="350.732" x2="387.805" y1="831.744" y2="867.051" gradientUnits="userSpaceOnUse"><stop id="stop5821" offset="0" stop-color="#B2ADD3"/><stop id="stop5823" offset="1" stop-color="#798DA6"/><midPointStop id="midPointStop5825" offset="0" stop-color="#B2ADD3"/><midPointStop id="midPointStop5827" offset=".5" stop-color="#B2ADD3"/><midPointStop id="midPointStop5829" offset="1" stop-color="#798DA6"/></linearGradient><linearGradient id="linearGradient30109" x1="350.732" x2="387.805" y1="831.744" y2="867.051" gradientUnits="userSpaceOnUse" xlink:href="#XMLID_469_"/><linearGradient id="XMLID_468_" x1="358.356" x2="403.248" y1="825.983" y2="868.738" gradientUnits="userSpaceOnUse"><stop id="stop5806" offset="0" stop-color="#B2BADA"/><stop id="stop5808" offset="1" stop-color="#798DA6"/><midPointStop id="midPointStop5810" offset="0" stop-color="#B2BADA"/><midPointStop id="midPointStop5812" offset=".5" stop-color="#B2BADA"/><midPointStop id="midPointStop5814" offset="1" stop-color="#798DA6"/></linearGradient><linearGradient id="linearGradient30108" x1="358.356" x2="403.248" y1="825.983" y2="868.738" gradientUnits="userSpaceOnUse" xlink:href="#XMLID_468_"/><linearGradient id="XMLID_467_" x1="425.315" x2="371.445" y1="969.553" y2="949.768" gradientUnits="userSpaceOnUse"><stop id="stop5791" offset="0" stop-color="#B2ADD3"/><stop id="stop5793" offset="1" stop-color="#798DA6"/><midPointStop id="midPointStop5795" offset="0" stop-color="#B2ADD3"/><midPointStop id="midPointStop5797" offset=".5" stop-color="#B2ADD3"/><midPointStop id="midPointStop5799" offset="1" stop-color="#798DA6"/></linearGradient><linearGradient id="linearGradient30107" x1="425.315" x2="371.445" y1="969.553" y2="949.768" gradientUnits="userSpaceOnUse" xlink:href="#XMLID_467_"/><linearGradient id="XMLID_466_" x1="489.757" x2="413.486" y1="970.725" y2="910.925" gradientUnits="userSpaceOnUse"><stop id="stop5770" offset=".006" stop-color="#FFF"/><stop id="stop5772" offset=".382" stop-color="#B2BADA"/><stop id="stop5774" offset="1" stop-color="#798DA6"/><midPointStop id="midPointStop5776" offset=".006" stop-color="#FFF"/><midPointStop id="midPointStop5778" offset=".5" stop-color="#FFF"/><midPointStop id="midPointStop5780" offset=".382" stop-color="#B2BADA"/><midPointStop id="midPointStop5782" offset=".5" stop-color="#B2BADA"/><midPointStop id="midPointStop5784" offset="1" stop-color="#798DA6"/></linearGradient><linearGradient id="linearGradient30106" x1="489.757" x2="413.486" y1="970.725" y2="910.926" gradientUnits="userSpaceOnUse" xlink:href="#XMLID_466_"/><linearGradient id="XMLID_465_" x1="541.304" x2="295.483" y1="986.748" y2="917.581" gradientUnits="userSpaceOnUse"><stop id="stop5749" offset=".006" stop-color="#FFF"/><stop id="stop5751" offset=".382" stop-color="#B2BADA"/><stop id="stop5753" offset="1" stop-color="#798DA6"/><midPointStop id="midPointStop5755" offset=".006" stop-color="#FFF"/><midPointStop id="midPointStop5757" offset=".5" stop-color="#FFF"/><midPointStop id="midPointStop5759" offset=".382" stop-color="#B2BADA"/><midPointStop id="midPointStop5761" offset=".5" stop-color="#B2BADA"/><midPointStop id="midPointStop5763" offset="1" stop-color="#798DA6"/></linearGradient><linearGradient id="linearGradient30105" x1="541.304" x2="295.483" y1="986.748" y2="917.581" gradientUnits="userSpaceOnUse" xlink:href="#XMLID_465_"/></defs><metadata id="metadata4"/><g id="layer1"><g id="g5510" transform="matrix(0.262904,0.000000,0.000000,0.262904,-84.56903,-184.7620)"><g id="g5512" knockout="Off"><path id="path5514" fill="#fff" d="M 551.10500,969.12700 C 550.49300,984.67400 498.63800,995.25400 435.28500,992.76000 C 371.93000,990.26600 321.06600,975.64500 321.67800,960.09600 C 322.28900,944.55700 374.14500,933.97300 437.50000,936.46800 C 500.85300,938.96000 551.71600,953.58600 551.10500,969.12700 z" knockout="Off"/><path id="path5516" fill="#fefefe" d="M 550.46000,969.07800 C 549.85100,984.53700 498.28800,995.05700 435.29100,992.57700 C 372.29200,990.09700 321.71600,975.55800 322.32300,960.09800 C 322.93000,944.64600 374.49500,934.12100 437.49300,936.60200 C 500.49200,939.08000 551.06800,953.62400 550.46000,969.07800 z" knockout="Off"/><path id="path5518" fill="#fdfdfd" d="M 549.81600,969.02800 C 549.21100,984.39900 497.94000,994.86100 435.29800,992.39400 C 372.65600,989.92800 322.36500,975.47200 322.97000,960.09800 C 323.57500,944.73300 374.84700,934.26900 437.49000,936.73600 C 500.13000,939.20000 550.42100,953.66200 549.81600,969.02800 z" knockout="Off"/><path id="path5520" fill="#fbfcfc" d="M 549.17100,968.97800 C 548.56900,984.26100 497.59100,994.66400 435.30600,992.21000 C 373.02000,989.75900 323.01500,975.38500 323.61700,960.09800 C 324.21900,944.82200 375.19900,934.41600 437.48400,936.86900 C 499.76900,939.32000 549.77300,953.69900 549.17100,968.97800 z" knockout="Off"/><path id="path5522" fill="#fafbfb" d="M 548.52700,968.92700 C 547.92900,984.12400 497.24200,994.46600 435.31300,992.02800 C 373.38400,989.59000 323.66600,975.29800 324.26300,960.09900 C 324.86100,944.91000 375.54900,934.56400 437.47800,937.00300 C 499.40700,939.43900 549.12500,953.73600 548.52700,968.92700 z" knockout="Off"/><path id="path5524" fill="#f9fafa" d="M 547.88200,968.87700 C 547.28700,983.98600 496.89200,994.26900 435.32000,991.84500 C 373.74800,989.42100 324.31500,975.21100 324.91000,960.10000 C 325.50400,944.99700 375.90000,934.71100 437.47300,937.13600 C 499.04400,939.55900 548.47700,953.77300 547.88200,968.87700 z" knockout="Off"/><path id="path5526" fill="#f8f9f9" d="M 547.23900,968.82700 C 546.64600,983.84900 496.54300,994.07200 435.32800,991.66200 C 374.11100,989.25300 324.96500,975.12500 325.55700,960.10100 C 326.14700,945.08600 376.25200,934.85900 437.46900,937.27000 C 498.68300,939.67800 547.83000,953.81000 547.23900,968.82700 z" knockout="Off"/><path id="path5528" fill="#f6f7f7" d="M 546.59300,968.77700 C 546.00500,983.71200 496.19300,993.87500 435.33400,991.47900 C 374.47400,989.08300 325.61400,975.03800 326.20100,960.10100 C 326.78800,945.17400 376.60200,935.00700 437.46200,937.40300 C 498.32200,939.79700 547.18100,953.84800 546.59300,968.77700 z" knockout="Off"/><path id="path5530" fill="#f5f6f6" d="M 545.95000,968.72700 C 545.36500,983.57400 495.84600,993.67800 435.34200,991.29600 C 374.83900,988.91400 326.26500,974.95000 326.85000,960.10300 C 327.43400,945.26200 376.95400,935.15500 437.45800,937.53800 C 497.96000,939.91700 546.53400,953.88500 545.95000,968.72700 z" knockout="Off"/><path id="path5532" fill="#f4f5f5" d="M 545.30500,968.67700 C 544.72400,983.43700 495.49500,993.48100 435.34900,991.11300 C 375.20200,988.74600 326.91300,974.86400 327.49500,960.10300 C 328.07600,945.35100 377.30600,935.30200 437.45300,937.67100 C 497.59900,940.03800 545.88600,953.92200 545.30500,968.67700 z" knockout="Off"/><path id="path5534" fill="#f3f4f4" d="M 544.66200,968.62600 C 544.08400,983.29900 495.14600,993.28300 435.35700,990.93000 C 375.56600,988.57600 327.56400,974.77800 328.14100,960.10400 C 328.71800,945.43900 377.65600,935.45000 437.44700,937.80400 C 497.23700,940.15700 545.23800,953.96000 544.66200,968.62600 z" knockout="Off"/><path id="path5536" fill="#f2f3f3" d="M 544.01700,968.57700 C 543.44200,983.16100 494.79600,993.08700 435.36400,990.74700 C 375.92900,988.40800 328.21400,974.69100 328.78700,960.10400 C 329.36100,945.52700 378.00800,935.59700 437.44200,937.93900 C 496.87500,940.27600 544.58900,953.99800 544.01700,968.57700 z" knockout="Off"/><path id="path5538" fill="#f0f2f2" d="M 543.37200,968.52700 C 542.80100,983.02400 494.44800,992.88900 435.37100,990.56400 C 376.29300,988.23800 328.86300,974.60400 329.43400,960.10500 C 330.00300,945.61500 378.35900,935.74600 437.43600,938.07200 C 496.51300,940.39600 543.94200,954.03500 543.37200,968.52700 z" knockout="Off"/><path id="path5540" fill="#eff1f1" d="M 542.72800,968.47600 C 542.16000,982.88600 494.09800,992.69300 435.37700,990.38000 C 376.65500,988.06800 329.51300,974.51700 330.07900,960.10600 C 330.64500,945.70400 378.70900,935.89300 437.43100,938.20600 C 496.15200,940.51500 543.29400,954.07200 542.72800,968.47600 z" knockout="Off"/><path id="path5542" fill="#eef0f0" d="M 542.08300,968.42600 C 541.51900,982.74800 493.74900,992.49500 435.38400,990.19700 C 377.02000,987.89900 330.16200,974.42900 330.72600,960.10600 C 331.28900,945.79100 379.06000,936.04000 437.42500,938.33800 C 495.79100,940.63500 542.64600,954.11000 542.08300,968.42600 z" knockout="Off"/><path id="path5544" fill="#edefef" d="M 541.43900,968.37600 C 540.87800,982.61000 493.40000,992.29800 435.39200,990.01400 C 377.38300,987.73100 330.81200,974.34300 331.37200,960.10700 C 331.93300,945.87900 379.41100,936.18800 437.41900,938.47300 C 495.42800,940.75400 541.99800,954.14700 541.43900,968.37600 z" knockout="Off"/><path id="path5546" fill="#ebedee" d="M 540.79400,968.32700 C 540.23700,982.47300 493.05000,992.10100 435.39900,989.83200 C 377.74700,987.56200 331.46100,974.25700 332.01800,960.10900 C 332.57500,945.96700 379.76200,936.33700 437.41400,938.60700 C 495.06700,940.87500 541.35100,954.18500 540.79400,968.32700 z" knockout="Off"/><path id="path5548" fill="#eaeced" d="M 540.15000,968.27600 C 539.59600,982.33600 492.70200,991.90400 435.40700,989.64800 C 378.11100,987.39300 332.11300,974.17000 332.66600,960.10900 C 333.21900,946.05600 380.11500,936.48400 437.41000,938.74000 C 494.70500,940.99500 540.70300,954.22100 540.15000,968.27600 z" knockout="Off"/><path id="path5550" fill="#e9ebec" d="M 539.50500,968.22600 C 538.95400,982.19900 492.35200,991.70700 435.41300,989.46500 C 378.47400,987.22400 332.76100,974.08200 333.31100,960.11000 C 333.86000,946.14400 380.46300,936.63100 437.40400,938.87400 C 494.34300,941.11400 540.05400,954.25800 539.50500,968.22600 z" knockout="Off"/><path id="path5552" fill="#e8ebeb" d="M 538.86100,968.17600 C 538.31400,982.06100 492.00400,991.51000 435.42200,989.28200 C 378.83900,987.05500 333.41200,973.99600 333.95900,960.11000 C 334.50500,946.23100 380.81700,936.77800 437.40000,939.00600 C 493.98200,941.23400 539.40800,954.29600 538.86100,968.17600 z" knockout="Off"/><path id="path5554" fill="#e7eaea" d="M 538.21600,968.12600 C 537.67300,981.92300 491.65400,991.31300 435.42900,989.10000 C 379.20200,986.88600 334.06200,973.91000 334.60500,960.11200 C 335.14800,946.32000 381.16700,936.92700 437.39400,939.14100 C 493.62100,941.35400 538.75900,954.33300 538.21600,968.12600 z" knockout="Off"/><path id="path5556" fill="#e5e8e9" d="M 537.57200,968.07600 C 537.03300,981.78600 491.30400,991.11600 435.43500,988.91700 C 379.56600,986.71800 334.71100,973.82300 335.25100,960.11200 C 335.79000,946.40900 381.51900,937.07500 437.38900,939.27500 C 493.25800,941.47300 538.11100,954.37200 537.57200,968.07600 z" knockout="Off"/><path id="path5558" fill="#e4e7e8" d="M 536.92700,968.02600 C 536.39100,981.64800 490.95400,990.91900 435.44300,988.73300 C 379.92900,986.54800 335.36100,973.73600 335.89700,960.11300 C 336.43300,946.49700 381.87000,937.22200 437.38300,939.40900 C 492.89600,941.59200 537.46200,954.40800 536.92700,968.02600 z" knockout="Off"/><path id="path5560" fill="#e3e6e7" d="M 536.28300,967.97600 C 535.75000,981.51000 490.60600,990.72200 435.45000,988.55000 C 380.29300,986.37900 336.01200,973.64900 336.54400,960.11200 C 337.07600,946.58400 382.22100,937.36900 437.37900,939.54100 C 492.53500,941.71100 536.81600,954.44600 536.28300,967.97600 z" knockout="Off"/><path id="path5562" fill="#e2e5e6" d="M 535.63900,967.92600 C 535.10900,981.37300 490.25700,990.52500 435.45600,988.36700 C 380.65500,986.20900 336.66100,973.56200 337.18900,960.11400 C 337.71800,946.67200 382.57200,937.51700 437.37200,939.67600 C 492.17300,941.83200 536.16700,954.48300 535.63900,967.92600 z" knockout="Off"/><path id="path5564" fill="#e1e4e5" d="M 534.99500,967.87500 C 534.46900,981.23500 489.90800,990.32700 435.46500,988.18400 C 381.02100,986.04100 337.31100,973.47600 337.83600,960.11500 C 338.36200,946.76100 382.92400,937.66600 437.36900,939.80900 C 491.81200,941.95200 535.52000,954.52100 534.99500,967.87500 z" knockout="Off"/><path id="path5566" fill="#e0e3e4" d="M 534.35000,967.82600 C 533.82800,981.09800 489.55800,990.13100 435.47200,988.00200 C 381.38400,985.87300 337.96000,973.39000 338.48200,960.11600 C 339.00400,946.84900 383.27500,937.81300 437.36300,939.94300 C 491.45000,942.07100 534.87200,954.55800 534.35000,967.82600 z" knockout="Off"/><path id="path5568" fill="#dfe2e3" d="M 533.70600,967.77600 C 533.18700,980.96100 489.21000,989.93400 435.47900,987.81800 C 381.74800,985.70400 338.61100,973.30200 339.12800,960.11700 C 339.64800,946.93700 383.62600,937.96100 437.35700,940.07700 C 491.08800,942.19100 534.22400,954.59500 533.70600,967.77600 z" knockout="Off"/><path id="path5570" fill="#dee1e2" d="M 533.06200,967.72600 C 532.54500,980.82300 488.86100,989.73700 435.48600,987.63500 C 382.11100,985.53400 339.26000,973.21500 339.77600,960.11700 C 340.29100,947.02500 383.97700,938.10700 437.35300,940.21000 C 490.72600,942.31000 533.57700,954.63200 533.06200,967.72600 z" knockout="Off"/><path id="path5572" fill="#dde0e1" d="M 532.41700,967.67500 C 531.90300,980.68500 488.51100,989.53900 435.49300,987.45100 C 382.47300,985.36500 339.90900,973.12800 340.42100,960.11700 C 340.93300,947.11300 384.32700,938.25600 437.34700,940.34400 C 490.36500,942.43000 532.92800,954.66900 532.41700,967.67500 z" knockout="Off"/><path id="path5574" fill="#dbdfe0" d="M 531.77300,967.62500 C 531.26300,980.54800 488.16200,989.34200 435.50000,987.26900 C 382.83800,985.19700 340.56100,973.04200 341.06800,960.11900 C 341.57600,947.20200 384.67900,938.40400 437.34100,940.47700 C 490.00200,942.54900 532.28100,954.70800 531.77300,967.62500 z" knockout="Off"/><path id="path5576" fill="#dadedf" d="M 531.12800,967.57600 C 530.62200,980.41100 487.81200,989.14500 435.50700,987.08700 C 383.20200,985.02900 341.20900,972.95500 341.71400,960.12000 C 342.21900,947.29000 385.03000,938.55200 437.33600,940.61200 C 489.64200,942.66900 531.63200,954.74500 531.12800,967.57600 z" knockout="Off"/><path id="path5578" fill="#d9ddde" d="M 530.48400,967.52500 C 529.98200,980.27300 487.46300,988.94800 435.51500,986.90300 C 383.56600,984.85900 341.85900,972.86900 342.36100,960.12100 C 342.86300,947.37800 385.38200,938.69900 437.33200,940.74500 C 489.28000,942.79000 530.98400,954.78300 530.48400,967.52500 z" knockout="Off"/><path id="path5580" fill="#d8dcdd" d="M 529.83900,967.47500 C 529.34100,980.13500 487.11300,988.75000 435.52200,986.72000 C 383.92900,984.69000 342.50900,972.78200 343.00700,960.12000 C 343.50500,947.46600 385.73300,938.84700 437.32500,940.87800 C 488.91700,942.90900 530.33700,954.82000 529.83900,967.47500 z" knockout="Off"/><path id="path5582" fill="#d6dadb" d="M 529.19500,967.42500 C 528.70000,979.99700 486.76500,988.55400 435.52900,986.53600 C 384.29300,984.51900 343.15900,972.69400 343.65400,960.12100 C 344.14800,947.55400 386.08400,938.99400 437.32100,941.01200 C 488.55600,943.02800 529.68900,954.85700 529.19500,967.42500 z" knockout="Off"/><path id="path5584" fill="#d5d9da" d="M 528.55000,967.37500 C 528.05800,979.86000 486.41500,988.35700 435.53600,986.35400 C 384.65500,984.35100 343.80700,972.60800 344.30000,960.12300 C 344.79000,947.64300 386.43500,939.14300 437.31600,941.14600 C 488.19500,943.14800 529.04100,954.89400 528.55000,967.37500 z" knockout="Off"/><path id="path5586" fill="#d4d8d9" d="M 527.90600,967.32500 C 527.41800,979.72300 486.06600,988.16000 435.54400,986.17200 C 385.02000,984.18400 344.45900,972.52200 344.94600,960.12400 C 345.43300,947.73100 386.78700,939.29000 437.31000,941.28000 C 487.83300,943.26700 528.39400,954.93100 527.90600,967.32500 z" knockout="Off"/><path id="path5588" fill="#d3d7d8" d="M 527.26100,967.27500 C 526.77700,979.58500 485.71700,987.96300 435.55000,985.98800 C 385.38400,984.01300 345.10800,972.43400 345.59200,960.12400 C 346.07700,947.81900 387.13700,939.43700 437.30400,941.41300 C 487.47100,943.38700 527.74600,954.96900 527.26100,967.27500 z" knockout="Off"/><path id="path5590" fill="#d2d6d7" d="M 526.61700,967.22500 C 526.13700,979.44800 485.36800,987.76500 435.55800,985.80400 C 385.74700,983.84400 345.75700,972.34800 346.23900,960.12400 C 346.72000,947.90600 387.48900,939.58400 437.30000,941.54700 C 487.10900,943.50600 527.09700,955.00600 526.61700,967.22500 z" knockout="Off"/><path id="path5592" fill="#d0d5d6" d="M 525.97200,967.17500 C 525.49400,979.31000 485.01900,987.56900 435.56600,985.62100 C 386.11100,983.67500 346.40800,972.26100 346.88400,960.12500 C 347.36300,947.99500 387.83900,939.73200 437.29400,941.68000 C 486.74800,943.62600 526.45000,955.04300 525.97200,967.17500 z" knockout="Off"/><path id="path5594" fill="#cfd4d5" d="M 525.32800,967.12500 C 524.85300,979.17300 484.67000,987.37200 435.57200,985.43900 C 386.47400,983.50700 347.05700,972.17400 347.53200,960.12700 C 348.00600,948.08400 388.19100,939.88100 437.28900,941.81500 C 486.38600,943.74700 525.80200,955.08100 525.32800,967.12500 z" knockout="Off"/><path id="path5596" fill="#ced3d4" d="M 524.68300,967.07500 C 524.21200,979.03500 484.32000,987.17500 435.57900,985.25600 C 386.83700,983.33800 347.70600,972.08800 348.17700,960.12700 C 348.64800,948.17200 388.54200,940.02800 437.28300,941.94800 C 486.02500,943.86600 525.15400,955.11900 524.68300,967.07500 z" knockout="Off"/><path id="path5598" fill="#cdd2d3" d="M 524.03900,967.02500 C 523.57200,978.89700 483.97200,986.97700 435.58800,985.07300 C 387.20200,983.16900 348.35800,972.00100 348.82400,960.12900 C 349.29100,948.26000 388.89300,940.17600 437.27900,942.08200 C 485.66300,943.98600 524.50500,955.15600 524.03900,967.02500 z" knockout="Off"/><path id="path5600" fill="#ccd1d2" d="M 523.39500,966.97500 C 522.93100,978.75900 483.62200,986.78000 435.59300,984.88900 C 387.56600,982.99900 349.00600,971.91400 349.47000,960.12800 C 349.93500,948.34800 389.24300,940.32300 437.27300,942.21500 C 485.30000,944.10500 523.85900,955.19300 523.39500,966.97500 z" knockout="Off"/><path id="path5602" fill="#cbd0d1" d="M 522.75000,966.92400 C 522.29000,978.62100 483.27200,986.58300 435.60100,984.70600 C 387.92900,982.83000 349.65600,971.82600 350.11700,960.12900 C 350.57800,948.43600 389.59600,940.47100 437.26800,942.34800 C 484.93900,944.22500 523.21000,955.23100 522.75000,966.92400 z" knockout="Off"/><path id="path5604" fill="#cacfd0" d="M 522.10600,966.87500 C 521.64900,978.48500 482.92300,986.38700 435.60900,984.52400 C 388.29300,982.66200 350.30600,971.74100 350.76300,960.13000 C 351.22000,948.52400 389.94700,940.61800 437.26300,942.48200 C 484.57800,944.34400 522.56200,955.26800 522.10600,966.87500 z" knockout="Off"/><path id="path5606" fill="#c9cecf" d="M 521.46200,966.82500 C 521.00700,978.34700 482.57300,986.18900 435.61500,984.34100 C 388.65500,982.49300 350.95600,971.65400 351.40900,960.13200 C 351.86200,948.61300 390.29800,940.76700 437.25700,942.61600 C 484.21600,944.46300 521.91500,955.30500 521.46200,966.82500 z" knockout="Off"/><ellipse id="ellipse5608" cx="436.437" cy="963.453" fill="#c8cdce" knockout="Off" rx="84.446" ry="20.72" transform="matrix(0.999200,3.930000e-2,-3.930000e-2,0.999200,38.22490,-16.41740)"/><path id="path5610" fill="#c6cccd" d="M 520.17300,966.72400 C 519.72600,978.07200 481.87500,985.79500 435.63000,983.97400 C 389.38400,982.15500 352.25500,971.48000 352.70200,960.13200 C 353.14800,948.78800 390.99900,941.06200 437.24700,942.88300 C 483.49300,944.70400 520.61900,955.38000 520.17300,966.72400 z" knockout="Off"/><path id="path5612" fill="#c5cbcc" d="M 519.52900,966.67400 C 519.08600,977.93400 481.52700,985.59800 435.63800,983.79100 C 389.74700,981.98500 352.90600,971.39300 353.34800,960.13300 C 353.79200,948.87600 391.35100,941.20900 437.24200,943.01700 C 483.13000,944.82300 519.97100,955.41700 519.52900,966.67400 z" knockout="Off"/><path id="path5614" fill="#c4cacb" d="M 518.88400,966.62400 C 518.44400,977.79700 481.17700,985.40100 435.64400,983.60800 C 390.11100,981.81700 353.55500,971.30600 353.99500,960.13400 C 354.43500,948.96500 391.70300,941.35700 437.23600,943.15100 C 482.76900,944.94300 519.32300,955.45500 518.88400,966.62400 z" knockout="Off"/><path id="path5616" fill="#c3c9ca" d="M 518.24000,966.57400 C 517.80200,977.66000 480.82800,985.20400 435.65200,983.42600 C 390.47400,981.64900 354.20500,971.22000 354.64200,960.13600 C 355.07800,949.05400 392.05400,941.50600 437.23100,943.28400 C 482.40800,945.06200 518.67500,955.49200 518.24000,966.57400 z" knockout="Off"/><path id="path5618" fill="#c1c7c9" d="M 517.59500,966.52400 C 517.16100,977.52100 480.47800,985.00700 435.65800,983.24200 C 390.83700,981.47900 354.85400,971.13400 355.28700,960.13600 C 355.72000,949.14200 392.40400,941.65400 437.22500,943.41800 C 482.04600,945.18200 518.02700,955.52900 517.59500,966.52400 z" knockout="Off"/><ellipse id="ellipse5620" cx="436.442" cy="963.305" fill="#c0c6c8" knockout="Off" rx="80.571" ry="19.769" transform="matrix(0.999200,3.930000e-2,-3.930000e-2,0.999200,38.22570,-16.42040)"/><ellipse id="ellipse5622" cx="436.443" cy="963.28" fill="#c0c5c7" knockout="Off" rx="79.925" ry="19.61" transform="matrix(0.999200,3.930000e-2,-3.930000e-2,0.999200,38.21900,-16.41820)"/><ellipse id="ellipse5624" cx="436.444" cy="963.256" fill="#bfc4c6" knockout="Off" rx="79.279" ry="19.452" transform="matrix(0.999200,3.930000e-2,-3.930000e-2,0.999200,38.21800,-16.41820)"/><path id="path5626" fill="#bec3c5" d="M 515.01700,966.32400 C 514.59800,976.97100 479.08100,984.21900 435.68800,982.51100 C 392.29200,980.80400 357.45500,970.78600 357.87300,960.13900 C 358.29300,949.49400 393.81100,942.24400 437.20500,943.95300 C 480.59900,945.66000 515.43600,955.67900 515.01700,966.32400 z" knockout="Off"/><ellipse id="ellipse5628" cx="436.446" cy="963.207" fill="#bcc2c4" knockout="Off" rx="77.987" ry="19.135" transform="matrix(0.999200,3.930000e-2,-3.930000e-2,0.999200,38.22250,-16.42100)"/><ellipse id="ellipse5630" cx="436.447" cy="963.182" fill="#bbc1c3" knockout="Off" rx="77.341" ry="18.977" transform="matrix(0.999200,3.930000e-2,-3.930000e-2,0.999200,38.22170,-16.42110)"/><ellipse id="ellipse5632" cx="436.448" cy="963.157" fill="#bac0c2" knockout="Off" rx="76.696" ry="18.818" transform="matrix(0.999200,3.930000e-2,-3.930000e-2,0.999200,38.21450,-16.41860)"/><ellipse id="ellipse5634" cx="436.449" cy="963.132" fill="#b9bfc1" knockout="Off" rx="76.05" ry="18.66" transform="matrix(0.999200,3.930000e-2,-3.930000e-2,0.999200,38.22000,-16.42130)"/><ellipse id="ellipse5636" cx="436.45" cy="963.107" fill="#b7bebf" knockout="Off" rx="75.404" ry="18.501" transform="matrix(0.999200,3.930000e-2,-3.930000e-2,0.999200,38.21290,-16.41890)"/><ellipse id="ellipse5638" cx="436.451" cy="963.083" fill="#b6bdbe" knockout="Off" rx="74.758" ry="18.343" transform="matrix(0.999200,3.930000e-2,-3.930000e-2,0.999200,38.21220,-16.41900)"/><ellipse id="ellipse5640" cx="436.452" cy="963.059" fill="#b5bcbd" knockout="Off" rx="74.112" ry="18.184" transform="matrix(0.999200,3.930000e-2,-3.930000e-2,0.999200,38.21140,-16.41910)"/><ellipse id="ellipse5642" cx="436.453" cy="963.034" fill="#b4bbbd" knockout="Off" rx="73.466" ry="18.026" transform="matrix(0.999200,3.930000e-2,-3.930000e-2,0.999200,38.21690,-16.42180)"/><ellipse id="ellipse5644" cx="436.454" cy="963.009" fill="#b3babc" knockout="Off" rx="72.821" ry="17.867" transform="matrix(0.999200,3.930000e-2,-3.930000e-2,0.999200,38.21590,-16.42190)"/><ellipse id="ellipse5646" cx="436.455" cy="962.984" fill="#b2b9ba" knockout="Off" rx="72.174" ry="17.708" transform="matrix(0.999200,3.930000e-2,-3.930000e-2,0.999200,38.20860,-16.41930)"/><ellipse id="ellipse5648" cx="436.456" cy="962.96" fill="#b1b8b9" knockout="Off" rx="71.528" ry="17.55" transform="matrix(0.999200,3.930000e-2,-3.930000e-2,0.999200,38.20780,-16.41950)"/><ellipse id="ellipse5650" cx="436.457" cy="962.936" fill="#b0b7b8" knockout="Off" rx="70.883" ry="17.392" transform="matrix(0.999200,3.930000e-2,-3.930000e-2,0.999200,38.20680,-16.41950)"/><ellipse id="ellipse5652" cx="436.458" cy="962.91" fill="#afb6b7" knockout="Off" rx="70.237" ry="17.234" transform="matrix(0.999200,3.930000e-2,-3.930000e-2,0.999200,38.20600,-16.41960)"/><ellipse id="ellipse5654" cx="436.458" cy="962.886" fill="#adb5b6" knockout="Off" rx="69.591" ry="17.075" transform="matrix(0.999200,3.930000e-2,-3.930000e-2,0.999200,38.20520,-16.41980)"/><ellipse id="ellipse5656" cx="436.459" cy="962.861" fill="#acb4b5" knockout="Off" rx="68.945" ry="16.916" transform="matrix(0.999200,3.930000e-2,-3.930000e-2,0.999200,38.20450,-16.41990)"/><ellipse id="ellipse5658" cx="436.46" cy="962.837" fill="#abb3b4" knockout="Off" rx="68.299" ry="16.758" transform="matrix(0.999200,3.930000e-2,-3.930000e-2,0.999200,38.20370,-16.42010)"/><ellipse id="ellipse5660" cx="436.461" cy="962.812" fill="#abb2b3" knockout="Off" rx="67.653" ry="16.599" transform="matrix(0.999200,3.930000e-2,-3.930000e-2,0.999200,38.20300,-16.42020)"/><ellipse id="ellipse5662" cx="436.462" cy="962.787" fill="#aab1b2" knockout="Off" rx="67.007" ry="16.441" transform="matrix(0.999200,3.930000e-2,-3.930000e-2,0.999200,38.20220,-16.42030)"/><ellipse id="ellipse5664" cx="436.463" cy="962.763" fill="#a8afb1" knockout="Off" rx="66.361" ry="16.282" transform="matrix(0.999200,3.930000e-2,-3.930000e-2,0.999200,38.20150,-16.42050)"/><ellipse id="ellipse5666" cx="436.464" cy="962.738" fill="#a7afb0" knockout="Off" rx="65.715" ry="16.123" transform="matrix(0.999200,3.930000e-2,-3.930000e-2,0.999200,38.20080,-16.42070)"/><ellipse id="ellipse5668" cx="436.466" cy="962.713" fill="#a6aeaf" knockout="Off" rx="65.069" ry="15.966" transform="matrix(0.999200,3.930000e-2,-3.930000e-2,0.999200,38.19970,-16.42070)"/><ellipse id="ellipse5670" cx="436.467" cy="962.688" fill="#a5adae" knockout="Off" rx="64.423" ry="15.807" transform="matrix(0.999200,3.930000e-2,-3.930000e-2,0.999200,38.19900,-16.42090)"/><ellipse id="ellipse5672" cx="436.467" cy="962.664" fill="#a4abad" knockout="Off" rx="63.778" ry="15.648" transform="matrix(0.999200,3.930000e-2,-3.930000e-2,0.999200,38.19800,-16.42090)"/><ellipse id="ellipse5674" cx="436.468" cy="962.639" fill="#a3aaac" knockout="Off" rx="63.132" ry="15.489" transform="matrix(0.999200,3.930000e-2,-3.930000e-2,0.999200,38.18970,-16.41800)"/><ellipse id="ellipse5676" cx="436.469" cy="962.615" fill="#a2a9ab" knockout="Off" rx="62.486" ry="15.331" transform="matrix(0.999200,3.930000e-2,-3.930000e-2,0.999200,38.18890,-16.41820)"/><ellipse id="ellipse5678" cx="436.47" cy="962.59" fill="#a1a8aa" knockout="Off" rx="61.84" ry="15.172" transform="matrix(0.999200,3.930000e-2,-3.930000e-2,0.999200,38.18780,-16.41810)"/><ellipse id="ellipse5680" cx="436.471" cy="962.565" fill="#a0a7a9" knockout="Off" rx="61.195" ry="15.014" transform="matrix(0.999200,3.930000e-2,-3.930000e-2,0.999200,38.19450,-16.42130)"/><ellipse id="ellipse5682" cx="436.472" cy="962.541" fill="#9ea6a8" knockout="Off" rx="60.549" ry="14.855" transform="matrix(0.999200,3.930000e-2,-3.930000e-2,0.999200,38.18590,-16.41830)"/><ellipse id="ellipse5684" cx="436.473" cy="962.516" fill="#9da5a7" knockout="Off" rx="59.903" ry="14.697" transform="matrix(0.999200,3.930000e-2,-3.930000e-2,0.999200,38.18520,-16.41840)"/><ellipse id="ellipse5686" cx="436.474" cy="962.492" fill="#9ca4a6" knockout="Off" rx="59.257" ry="14.538" transform="matrix(0.999200,3.930000e-2,-3.930000e-2,0.999200,38.18440,-16.41850)"/><ellipse id="ellipse5688" cx="436.475" cy="962.466" fill="#9ba3a5" knockout="Off" rx="58.611" ry="14.38" transform="matrix(0.999200,3.930000e-2,-3.930000e-2,0.999200,38.18360,-16.41860)"/><ellipse id="ellipse5690" cx="436.476" cy="962.442" fill="#9aa2a4" knockout="Off" rx="57.965" ry="14.222" transform="matrix(0.999200,3.930000e-2,-3.930000e-2,0.999200,38.18280,-16.41880)"/><ellipse id="ellipse5692" cx="436.477" cy="962.417" fill="#99a1a3" knockout="Off" rx="57.319" ry="14.063" transform="matrix(0.999200,3.930000e-2,-3.930000e-2,0.999200,38.18210,-16.41890)"/><ellipse id="ellipse5694" cx="436.478" cy="962.393" fill="#98a0a2" knockout="Off" rx="56.673" ry="13.904" transform="matrix(0.999200,3.930000e-2,-3.930000e-2,0.999200,38.18130,-16.41910)"/><ellipse id="ellipse5696" cx="436.479" cy="962.368" fill="#979fa1" knockout="Off" rx="56.027" ry="13.746" transform="matrix(0.999200,3.930000e-2,-3.930000e-2,0.999200,38.18050,-16.41930)"/><ellipse id="ellipse5698" cx="436.48" cy="962.343" fill="#969ea0" knockout="Off" rx="55.381" ry="13.588" transform="matrix(0.999200,3.930000e-2,-3.930000e-2,0.999200,38.17980,-16.41940)"/><ellipse id="ellipse5700" cx="436.48" cy="962.319" fill="#959d9f" knockout="Off" rx="54.735" ry="13.429" transform="matrix(0.999200,3.930000e-2,-3.930000e-2,0.999200,38.17870,-16.41940)"/><ellipse id="ellipse5702" cx="436.481" cy="962.294" fill="#949c9e" knockout="Off" rx="54.089" ry="13.27" transform="matrix(0.999200,3.930000e-2,-3.930000e-2,0.999200,38.17790,-16.41960)"/><ellipse id="ellipse5704" cx="436.483" cy="962.269" fill="#939b9d" knockout="Off" rx="53.444" ry="13.113" transform="matrix(0.999200,3.930000e-2,-3.930000e-2,0.999200,38.17680,-16.41960)"/><path id="path5706" fill="#929a9c" d="M 489.24100,964.32100 C 488.95900,971.46900 465.11300,976.33600 435.97600,975.18800 C 406.83700,974.04300 383.44500,967.31500 383.72600,960.16800 C 384.00900,953.02000 407.85600,948.15000 436.99500,949.29800 C 466.13100,950.44600 489.52100,957.17300 489.24100,964.32100 z" knockout="Off"/><ellipse id="ellipse5708" cx="436.484" cy="962.22" fill="#91999b" knockout="Off" rx="52.152" ry="12.795" transform="matrix(0.999200,3.930000e-2,-3.930000e-2,0.999200,38.17500,-16.41970)"/><ellipse id="ellipse5710" cx="436.485" cy="962.196" fill="#8f989a" knockout="Off" rx="51.506" ry="12.636" transform="matrix(0.999200,3.930000e-2,-3.930000e-2,0.999200,38.17430,-16.41990)"/><ellipse id="ellipse5712" cx="436.486" cy="962.171" fill="#8f9799" knockout="Off" rx="50.86" ry="12.478" transform="matrix(0.999200,3.930000e-2,-3.930000e-2,0.999200,38.16420,-16.41610)"/><ellipse id="ellipse5714" cx="436.488" cy="962.146" fill="#8e9698" knockout="Off" rx="50.215" ry="12.32" transform="matrix(0.999200,3.930000e-2,-3.930000e-2,0.999200,38.17250,-16.42000)"/><ellipse id="ellipse5716" cx="436.489" cy="962.122" fill="#8d9597" knockout="Off" rx="49.569" ry="12.161" transform="matrix(0.999200,3.930000e-2,-3.930000e-2,0.999200,38.17180,-16.42010)"/><ellipse id="ellipse5718" cx="436.49" cy="962.097" fill="#8b9496" knockout="Off" rx="48.923" ry="12.003" transform="matrix(0.999200,3.930000e-2,-3.930000e-2,0.999200,38.16130,-16.41640)"/><ellipse id="ellipse5720" cx="436.491" cy="962.072" fill="#8a9395" knockout="Off" rx="48.277" ry="11.844" transform="matrix(0.999200,3.930000e-2,-3.930000e-2,0.999200,38.16040,-16.41640)"/><ellipse id="ellipse5722" cx="436.492" cy="962.047" fill="#899294" knockout="Off" rx="47.631" ry="11.686" transform="matrix(0.999200,3.930000e-2,-3.930000e-2,0.999200,38.16960,-16.42070)"/><ellipse id="ellipse5724" cx="436.493" cy="962.023" fill="#889193" knockout="Off" rx="46.985" ry="11.526" transform="matrix(0.999200,3.930000e-2,-3.930000e-2,0.999200,38.16890,-16.42080)"/><ellipse id="ellipse5726" cx="436.494" cy="961.998" fill="#879092" knockout="Off" rx="46.339" ry="11.369" transform="matrix(0.999200,3.930000e-2,-3.930000e-2,0.999200,38.15790,-16.41670)"/><ellipse id="ellipse5728" cx="436.494" cy="961.974" fill="#868f91" knockout="Off" rx="45.693" ry="11.21" transform="matrix(0.999200,3.930000e-2,-3.930000e-2,0.999200,38.15670,-16.41670)"/><ellipse id="ellipse5730" cx="436.495" cy="961.949" fill="#858e90" knockout="Off" rx="45.047" ry="11.051" transform="matrix(0.999200,3.930000e-2,-3.930000e-2,0.999200,38.15590,-16.41680)"/><ellipse id="ellipse5732" cx="436.496" cy="961.924" fill="#848d8f" knockout="Off" rx="44.401" ry="10.893" transform="matrix(0.999200,3.930000e-2,-3.930000e-2,0.999200,38.16580,-16.42130)"/><path id="path5734" fill="#838c8e" d="M 480.21800,963.62000 C 479.98600,969.54400 460.22400,973.57700 436.07600,972.62600 C 411.92900,971.67800 392.54200,966.10100 392.77400,960.18000 C 393.00800,954.25500 412.77100,950.21900 436.92000,951.17000 C 461.06800,952.12100 480.45100,957.69700 480.21800,963.62000 z" knockout="Off"/><ellipse id="ellipse5736" cx="436.498" cy="961.875" fill="#828b8d" knockout="Off" rx="43.11" ry="10.576" transform="matrix(0.999200,3.930000e-2,-3.930000e-2,0.999200,38.15300,-16.41700)"/><ellipse id="ellipse5738" cx="436.499" cy="961.851" fill="#818a8c" knockout="Off" rx="42.463" ry="10.417" transform="matrix(0.999200,3.930000e-2,-3.930000e-2,0.999200,38.15220,-16.41710)"/><ellipse id="ellipse5740" cx="436.5" cy="961.826" fill="#80898b" knockout="Off" rx="41.818" ry="10.259" transform="matrix(0.999200,3.930000e-2,-3.930000e-2,0.999200,38.16240,-16.42180)"/><ellipse id="ellipse5742" cx="436.501" cy="961.801" fill="#7f888a" knockout="Off" rx="41.172" ry="10.1" transform="matrix(0.999200,3.930000e-2,-3.930000e-2,0.999200,38.15010,-16.41720)"/><ellipse id="ellipse5744" cx="436.502" cy="961.776" fill="#7e8789" knockout="Off" rx="40.526" ry="9.942" transform="matrix(0.999200,3.930000e-2,-3.930000e-2,0.999200,38.14930,-16.41730)"/></g><linearGradient id="linearGradient48692" x1="541.304" x2="295.483" y1="986.748" y2="917.581" gradientUnits="userSpaceOnUse"><stop id="stop48694" offset=".006" stop-color="#FFF"/><stop id="stop48696" offset=".382" stop-color="#B2BADA"/><stop id="stop48698" offset="1" stop-color="#798DA6"/><midPointStop id="midPointStop48700" offset=".006" stop-color="#FFF"/><midPointStop id="midPointStop48702" offset=".5" stop-color="#FFF"/><midPointStop id="midPointStop48704" offset=".382" stop-color="#B2BADA"/><midPointStop id="midPointStop48706" offset=".5" stop-color="#B2BADA"/><midPointStop id="midPointStop48708" offset="1" stop-color="#798DA6"/></linearGradient><ellipse id="ellipse5766" cx="465.233" cy="965.344" fill="url(#linearGradient30105)" knockout="Off" rx="71.487" ry="21.553"/><linearGradient id="linearGradient48713" x1="489.757" x2="413.486" y1="970.725" y2="910.925" gradientUnits="userSpaceOnUse"><stop id="stop48715" offset=".006" stop-color="#FFF"/><stop id="stop48717" offset=".382" stop-color="#B2BADA"/><stop id="stop48719" offset="1" stop-color="#798DA6"/><midPointStop id="midPointStop48721" offset=".006" stop-color="#FFF"/><midPointStop id="midPointStop48723" offset=".5" stop-color="#FFF"/><midPointStop id="midPointStop48725" offset=".382" stop-color="#B2BADA"/><midPointStop id="midPointStop48727" offset=".5" stop-color="#B2BADA"/><midPointStop id="midPointStop48729" offset="1" stop-color="#798DA6"/></linearGradient><path id="path5787" fill="url(#linearGradient30106)" d="M 505.51900,953.75700 C 505.51900,960.22700 488.29600,965.47200 467.05200,965.47200 C 445.80600,965.47200 428.58400,960.22700 428.58400,953.75700 C 428.58400,947.28600 445.80600,934.23100 467.05200,934.23100 C 488.29600,934.23100 505.51900,947.28700 505.51900,953.75700 z" knockout="Off"/><linearGradient id="linearGradient48734" x1="425.315" x2="371.445" y1="969.553" y2="949.768" gradientUnits="userSpaceOnUse"><stop id="stop48736" offset="0" stop-color="#B2ADD3"/><stop id="stop48738" offset="1" stop-color="#798DA6"/><midPointStop id="midPointStop48740" offset="0" stop-color="#B2ADD3"/><midPointStop id="midPointStop48742" offset=".5" stop-color="#B2ADD3"/><midPointStop id="midPointStop48744" offset="1" stop-color="#798DA6"/></linearGradient><path id="path5802" fill="url(#linearGradient30107)" d="M 417.27500,952.03300 C 417.27500,952.03300 374.69900,962.95100 409.29200,978.23700 C 409.29200,978.23700 399.53500,971.06100 423.92800,964.19900 C 423.92700,964.19900 410.62300,957.02300 417.27500,952.03300 z" knockout="Off"/><linearGradient id="linearGradient48749" x1="358.356" x2="403.248" y1="825.983" y2="868.738" gradientUnits="userSpaceOnUse"><stop id="stop48751" offset="0" stop-color="#B2BADA"/><stop id="stop48753" offset="1" stop-color="#798DA6"/><midPointStop id="midPointStop48755" offset="0" stop-color="#B2BADA"/><midPointStop id="midPointStop48757" offset=".5" stop-color="#B2BADA"/><midPointStop id="midPointStop48759" offset="1" stop-color="#798DA6"/></linearGradient><path id="path5817" fill="url(#linearGradient30108)" d="M 376.98800,775.73600 C 376.98800,775.73600 310.09500,826.96500 383.92900,918.33100 L 376.98800,775.73600 z" knockout="Off"/><linearGradient id="linearGradient48764" x1="350.732" x2="387.805" y1="831.744" y2="867.051" gradientUnits="userSpaceOnUse"><stop id="stop48766" offset="0" stop-color="#B2ADD3"/><stop id="stop48768" offset="1" stop-color="#798DA6"/><midPointStop id="midPointStop48770" offset="0" stop-color="#B2ADD3"/><midPointStop id="midPointStop48772" offset=".5" stop-color="#B2ADD3"/><midPointStop id="midPointStop48774" offset="1" stop-color="#798DA6"/></linearGradient><path id="path5832" fill="url(#linearGradient30109)" d="M 359.31800,796.86200 C 359.31800,796.86200 330.28900,845.97900 375.09400,904.59900 L 370.67700,801.08500 L 367.52100,879.24800 C 367.52100,879.24900 342.28000,849.14700 359.31800,796.86200 z" knockout="Off"/><g id="g5834"><linearGradient id="linearGradient48781" x1="582.697" x2="365.515" y1="609.201" y2="879.387" gradientUnits="userSpaceOnUse"><stop id="stop48783" offset="0" stop-color="#0677B3"/><stop id="stop48785" offset="1" stop-color="#0A54A3"/><midPointStop id="midPointStop48787" offset="0" stop-color="#0677B3"/><midPointStop id="midPointStop48789" offset=".5" stop-color="#0677B3"/><midPointStop id="midPointStop48791" offset="1" stop-color="#0A54A3"/></linearGradient><polygon id="polygon5849" fill="url(#linearGradient30110)" points="370.794 742.901 377.832 926.305 408.613 955.687 411.594 721.797 370.794 742.901" knockout="Off"/><linearGradient id="linearGradient48796" x1="647.065" x2="424.375" y1="648.586" y2="925.626" gradientUnits="userSpaceOnUse"><stop id="stop48798" offset="0" stop-color="#FFF"/><stop id="stop48800" offset="1" stop-color="#0677B3"/><midPointStop id="midPointStop48802" offset="0" stop-color="#FFF"/><midPointStop id="midPointStop48804" offset=".5" stop-color="#FFF"/><midPointStop id="midPointStop48806" offset="1" stop-color="#0677B3"/></linearGradient><polygon id="polygon5864" fill="url(#linearGradient30111)" points="411.603 721.792 411.594 721.797 408.613 955.687 408.79 955.856 599.699 927.243 625.966 727.421 411.603 721.792" knockout="Off"/></g><linearGradient id="linearGradient48812" x1="640.579" x2="326.315" y1="690.319" y2="1005.072" gradientUnits="userSpaceOnUse"><stop id="stop48814" offset="0" stop-color="#FFF"/><stop id="stop48816" offset="1" stop-color="#0677B3"/><midPointStop id="midPointStop48818" offset="0" stop-color="#FFF"/><midPointStop id="midPointStop48820" offset=".5" stop-color="#FFF"/><midPointStop id="midPointStop48822" offset="1" stop-color="#0677B3"/></linearGradient><polygon id="polygon5880" fill="url(#linearGradient30112)" points="411.603 952.573 414.417 724.607 622.683 729.767 597.822 925.367 411.603 952.573" knockout="Off"/><linearGradient id="linearGradient48827" x1="322.471" x2="656.117" y1="936.963" y2="739.013" gradientTransform="matrix(0.999900,1.140000e-2,-1.140000e-2,0.999900,6.109900,-1.500000e-3)" gradientUnits="userSpaceOnUse"><stop id="stop48829" offset="0" stop-color="#D4EFF5"/><stop id="stop48831" offset="1" stop-color="#000"/><midPointStop id="midPointStop48833" offset="0" stop-color="#D4EFF5"/><midPointStop id="midPointStop48835" offset=".5" stop-color="#D4EFF5"/><midPointStop id="midPointStop48837" offset="1" stop-color="#000"/></linearGradient><path id="path5895" fill="url(#linearGradient30113)" d="M 427.98200,753.67000 L 421.91200,921.64200 C 421.73400,926.58300 423.64200,931.27600 427.14900,934.51800 C 430.65600,937.76200 435.48200,939.29800 440.39300,938.73500 L 577.90600,921.29500 C 586.88800,920.26400 594.58400,912.73300 595.80700,903.77600 L 615.76700,757.60000 C 616.42400,752.78100 615.04200,747.93500 611.97400,744.30300 C 608.90600,740.67000 604.35900,738.49800 599.49700,738.34200 C 599.49500,738.34200 446.43000,736.44000 446.43000,736.44000 C 436.61300,736.12500 428.33700,743.85500 427.98200,753.67000 z" knockout="Off"/><path id="path5897" fill="#f2fafc" d="M 442.40300,744.37900 C 437.49700,744.22100 433.33800,748.10700 433.16000,753.01300 L 427.09000,920.98500 C 426.91400,925.88900 430.75900,929.44600 435.63500,928.88700 L 573.14900,911.44600 C 578.02600,910.88600 582.55900,906.45100 583.22400,901.58800 L 603.18300,755.41000 C 603.84700,750.54700 600.37600,746.44000 595.46900,746.28200 L 442.40300,744.37900 z" knockout="Off"/><g id="g5899"><linearGradient id="linearGradient48846" x1="517.864" x2="506.387" y1="776.024" y2="1082.07" gradientTransform="matrix(0.999900,1.140000e-2,-1.140000e-2,0.999900,6.109900,-1.500000e-3)" gradientUnits="userSpaceOnUse"><stop id="stop48848" offset="0" stop-color="#FFF"/><stop id="stop48850" offset=".354" stop-color="#D8E6E9"/><stop id="stop48852" offset=".738" stop-color="#B9D1D7"/><stop id="stop48854" offset="1" stop-color="#AFCBD1"/><midPointStop id="midPointStop48856" offset="0" stop-color="#FFF"/><midPointStop id="midPointStop48858" offset=".376" stop-color="#FFF"/><midPointStop id="midPointStop48860" offset="1" stop-color="#AFCBD1"/></linearGradient><path id="path5918" fill="url(#linearGradient30114)" d="M 432.41700,818.93800 L 428.79000,919.28700 C 428.61600,924.09300 432.38400,927.57700 437.16100,927.02800 L 572.06000,909.88600 C 576.83800,909.33900 581.28000,904.99400 581.93000,900.22800 L 594.69400,806.73900 C 533.47400,790.08700 472.33200,802.33100 432.41700,818.93800 z" knockout="Off"/><linearGradient id="linearGradient48865" x1="520.105" x2="516.195" y1="762.496" y2="857.31" gradientTransform="matrix(0.999900,1.140000e-2,-1.140000e-2,0.999900,6.109900,-1.500000e-3)" gradientUnits="userSpaceOnUse"><stop id="stop48867" offset="0" stop-color="#FFF"/><stop id="stop48869" offset="1" stop-color="#AFCBD1"/><midPointStop id="midPointStop48871" offset="0" stop-color="#FFF"/><midPointStop id="midPointStop48873" offset=".5" stop-color="#FFF"/><midPointStop id="midPointStop48875" offset="1" stop-color="#AFCBD1"/></linearGradient><path id="path5933" fill="url(#linearGradient30115)" d="M 594.69500,806.73900 L 601.48400,757.02400 C 602.13400,752.25800 598.73400,748.23600 593.92700,748.08100 L 443.79100,746.27300 C 438.98500,746.11800 434.91000,749.92400 434.73600,754.73100 L 432.41700,818.93800 C 472.33200,802.33100 533.47400,790.08700 594.69500,806.73900 z" knockout="Off"/></g><linearGradient id="linearGradient48881" x1="520.523" x2="600.421" y1="961.032" y2="966.581" gradientUnits="userSpaceOnUse"><stop id="stop48883" offset="0" stop-color="#B2ADD3"/><stop id="stop48885" offset="1" stop-color="#798DA6"/><midPointStop id="midPointStop48887" offset="0" stop-color="#B2ADD3"/><midPointStop id="midPointStop48889" offset=".5" stop-color="#B2ADD3"/><midPointStop id="midPointStop48891" offset="1" stop-color="#798DA6"/></linearGradient><path id="path5949" fill="url(#linearGradient30116)" d="M 514.67400,950.52200 C 514.67400,950.52200 524.05600,960.42000 493.56600,967.01800 C 493.56600,967.01800 518.89600,963.05800 517.95900,952.50000 C 517.95900,952.50000 544.22700,959.09900 532.50000,971.96700 C 532.50000,971.96700 549.85400,961.41000 514.67400,950.52200 z" knockout="Off"/><linearGradient id="linearGradient48896" x1="464.104" x2="383.566" y1="973.42" y2="943.84" gradientTransform="matrix(0.999700,-2.290000e-2,2.290000e-2,0.999700,-16.42400,-1.674000)" gradientUnits="userSpaceOnUse"><stop id="stop48898" offset="0" stop-color="#B2ADD3"/><stop id="stop48900" offset="1" stop-color="#798DA6"/><midPointStop id="midPointStop48902" offset="0" stop-color="#B2ADD3"/><midPointStop id="midPointStop48904" offset=".5" stop-color="#B2ADD3"/><midPointStop id="midPointStop48906" offset="1" stop-color="#798DA6"/></linearGradient><path id="path5964" fill="url(#linearGradient30117)" d="M 469.42300,947.45900 C 469.42300,947.45900 448.78500,953.31400 455.42300,966.09400 C 455.42300,966.09400 427.26900,965.00500 426.27700,953.14800 L 469.42300,947.45900 z" knockout="Off"/><linearGradient id="linearGradient48911" x1="534.724" x2="315.197" y1="999.982" y2="919.353" gradientUnits="userSpaceOnUse"><stop id="stop48913" offset="0" stop-color="#B2ADD3"/><stop id="stop48915" offset="1" stop-color="#798DA6"/><midPointStop id="midPointStop48917" offset="0" stop-color="#B2ADD3"/><midPointStop id="midPointStop48919" offset=".5" stop-color="#B2ADD3"/><midPointStop id="midPointStop48921" offset="1" stop-color="#798DA6"/></linearGradient><path id="path5979" fill="url(#linearGradient30118)" d="M 530.71000,973.69700 C 530.71000,973.69700 486.95200,998.47100 414.88000,980.77500 C 414.88000,980.77500 479.87500,997.18500 530.71000,973.69700 z" knockout="Off"/></g></g></svg>