<svg xmlns="http://www.w3.org/2000/svg" xmlns:cc="http://web.resource.org/cc/" xmlns:xlink="http://www.w3.org/1999/xlink" id="svg31794" width="64pt" height="64pt"><defs id="defs3"><linearGradient id="XMLID_403_" x1="744.783" x2="755.195" y1="593.922" y2="547.564" gradientTransform="matrix(0.907800,9.000000e-2,-2.400000e-2,0.986300,80.90890,-61.29330)" gradientUnits="userSpaceOnUse"><stop id="stop4014" offset="0" stop-color="#FFF"/><stop id="stop4016" offset="1" stop-color="#000"/><midPointStop id="midPointStop4018" offset="0" stop-color="#FFF"/><midPointStop id="midPointStop4020" offset=".5" stop-color="#FFF"/><midPointStop id="midPointStop4022" offset="1" stop-color="#000"/></linearGradient><linearGradient id="linearGradient30244" x1="744.783" x2="755.195" y1="593.922" y2="547.564" gradientTransform="matrix(0.907800,9.000000e-2,-2.400000e-2,0.986300,80.90890,-61.29330)" gradientUnits="userSpaceOnUse" xlink:href="#XMLID_403_"/><linearGradient id="XMLID_402_" x1="657.099" x2="667.512" y1="611.441" y2="565.082" gradientUnits="userSpaceOnUse"><stop id="stop3999" offset="0" stop-color="#FFF"/><stop id="stop4001" offset="1" stop-color="#000"/><midPointStop id="midPointStop4003" offset="0" stop-color="#FFF"/><midPointStop id="midPointStop4005" offset=".5" stop-color="#FFF"/><midPointStop id="midPointStop4007" offset="1" stop-color="#000"/></linearGradient><linearGradient id="linearGradient30243" x1="657.099" x2="667.512" y1="611.441" y2="565.082" gradientUnits="userSpaceOnUse" xlink:href="#XMLID_402_"/><linearGradient id="XMLID_401_" x1="737.697" x2="732.344" y1="512.862" y2="535.974" gradientTransform="matrix(0.980400,-0.196900,0.196900,0.980400,-76.65610,158.5775)" gradientUnits="userSpaceOnUse"><stop id="stop3984" offset="0" stop-color="#FFF"/><stop id="stop3986" offset="1" stop-color="#000"/><midPointStop id="midPointStop3988" offset="0" stop-color="#FFF"/><midPointStop id="midPointStop3990" offset=".5" stop-color="#FFF"/><midPointStop id="midPointStop3992" offset="1" stop-color="#000"/></linearGradient><linearGradient id="linearGradient30242" x1="737.697" x2="732.344" y1="512.862" y2="535.974" gradientTransform="matrix(0.980400,-0.196900,0.196900,0.980400,-76.65610,158.5775)" gradientUnits="userSpaceOnUse" xlink:href="#XMLID_401_"/><linearGradient id="XMLID_400_" x1="664.17" x2="658.48" y1="530.028" y2="554.597" gradientTransform="matrix(0.998300,-5.770000e-2,5.770000e-2,0.998300,-26.45990,40.30290)" gradientUnits="userSpaceOnUse"><stop id="stop3967" offset="0" stop-color="#FFF"/><stop id="stop3969" offset="1" stop-color="#000"/><midPointStop id="midPointStop3971" offset="0" stop-color="#FFF"/><midPointStop id="midPointStop3973" offset=".5" stop-color="#FFF"/><midPointStop id="midPointStop3975" offset="1" stop-color="#000"/></linearGradient><linearGradient id="linearGradient30241" x1="664.17" x2="658.48" y1="530.028" y2="554.597" gradientTransform="matrix(0.998300,-5.770000e-2,5.770000e-2,0.998300,-26.45990,40.30290)" gradientUnits="userSpaceOnUse" xlink:href="#XMLID_400_"/><linearGradient id="XMLID_399_" x1="775.172" x2="771.028" y1="572.329" y2="601.344" gradientUnits="userSpaceOnUse"><stop id="stop3950" offset="0" stop-color="#FFF"/><stop id="stop3952" offset="1" stop-color="#80CFE2"/><midPointStop id="midPointStop3954" offset="0" stop-color="#FFF"/><midPointStop id="midPointStop3956" offset=".5" stop-color="#FFF"/><midPointStop id="midPointStop3958" offset="1" stop-color="#80CFE2"/></linearGradient><linearGradient id="linearGradient30240" x1="775.172" x2="771.028" y1="572.329" y2="601.344" gradientUnits="userSpaceOnUse" xlink:href="#XMLID_399_"/><linearGradient id="XMLID_398_" x1="613.708" x2="632.309" y1="555.017" y2="629.419" gradientUnits="userSpaceOnUse"><stop id="stop3935" offset="0" stop-color="#ABE0EC"/><stop id="stop3937" offset="1" stop-color="#0860A8"/><midPointStop id="midPointStop3939" offset="0" stop-color="#ABE0EC"/><midPointStop id="midPointStop3941" offset=".5" stop-color="#ABE0EC"/><midPointStop id="midPointStop3943" offset="1" stop-color="#0860A8"/></linearGradient><linearGradient id="linearGradient30239" x1="613.708" x2="632.309" y1="555.017" y2="629.419" gradientUnits="userSpaceOnUse" xlink:href="#XMLID_398_"/><linearGradient id="XMLID_397_" x1="655.783" x2="667.868" y1="562.698" y2="581.009" gradientTransform="matrix(0.600000,0.143400,-0.149700,0.626100,341.3443,70.01140)" gradientUnits="userSpaceOnUse"><stop id="stop3675" offset="0" stop-color="#0860A8"/><stop id="stop3677" offset="1" stop-color="#0480B7"/><midPointStop id="midPointStop3679" offset="0" stop-color="#0860A8"/><midPointStop id="midPointStop3681" offset=".5" stop-color="#0860A8"/><midPointStop id="midPointStop3683" offset="1" stop-color="#0480B7"/></linearGradient><linearGradient id="linearGradient30238" x1="655.783" x2="667.868" y1="562.698" y2="581.009" gradientTransform="matrix(0.600000,0.143400,-0.149700,0.626100,341.3443,70.01140)" gradientUnits="userSpaceOnUse" xlink:href="#XMLID_397_"/><linearGradient id="XMLID_396_" x1="597.908" x2="644.035" y1="695.514" y2="650.125" gradientUnits="userSpaceOnUse"><stop id="stop3657" offset="0" stop-color="#ABE0EC"/><stop id="stop3659" offset="1" stop-color="#0860A8"/><midPointStop id="midPointStop3661" offset="0" stop-color="#ABE0EC"/><midPointStop id="midPointStop3663" offset=".5" stop-color="#ABE0EC"/><midPointStop id="midPointStop3665" offset="1" stop-color="#0860A8"/></linearGradient><linearGradient id="linearGradient30237" x1="597.908" x2="644.035" y1="695.514" y2="650.125" gradientUnits="userSpaceOnUse" xlink:href="#XMLID_396_"/><linearGradient id="XMLID_395_" x1="731.738" x2="721.222" y1="487.953" y2="585.81" gradientTransform="matrix(0.997000,-7.710000e-2,7.710000e-2,0.997000,-32.80690,59.15250)" gradientUnits="userSpaceOnUse"><stop id="stop3637" offset="0" stop-color="#FFF"/><stop id="stop3639" offset="1" stop-color="#80CFE2"/><midPointStop id="midPointStop3641" offset="0" stop-color="#FFF"/><midPointStop id="midPointStop3643" offset=".5" stop-color="#FFF"/><midPointStop id="midPointStop3645" offset="1" stop-color="#80CFE2"/></linearGradient><linearGradient id="linearGradient30236" x1="731.738" x2="721.222" y1="487.953" y2="585.81" gradientTransform="matrix(0.997000,-7.710000e-2,7.710000e-2,0.997000,-32.80690,59.15250)" gradientUnits="userSpaceOnUse" xlink:href="#XMLID_395_"/><linearGradient id="XMLID_394_" x1="742.973" x2="698.777" y1="490.404" y2="608.816" gradientTransform="matrix(0.980400,0.149000,-0.151400,0.996400,89.83410,-108.2563)" gradientUnits="userSpaceOnUse"><stop id="stop3619" offset="0" stop-color="#FFF"/><stop id="stop3621" offset="1" stop-color="#80CFE2"/><midPointStop id="midPointStop3623" offset="0" stop-color="#FFF"/><midPointStop id="midPointStop3625" offset=".5" stop-color="#FFF"/><midPointStop id="midPointStop3627" offset="1" stop-color="#80CFE2"/></linearGradient><linearGradient id="linearGradient30235" x1="742.973" x2="698.777" y1="490.404" y2="608.816" gradientTransform="matrix(0.980400,0.149000,-0.151400,0.996400,89.83410,-108.2563)" gradientUnits="userSpaceOnUse" xlink:href="#XMLID_394_"/><linearGradient id="XMLID_393_" x1="747.33" x2="650.381" y1="541.214" y2="680.25" gradientUnits="userSpaceOnUse"><stop id="stop3599" offset="0" stop-color="#A6DEEB"/><stop id="stop3601" offset="1" stop-color="#41A5CB"/><midPointStop id="midPointStop3603" offset="0" stop-color="#A6DEEB"/><midPointStop id="midPointStop3605" offset=".5" stop-color="#A6DEEB"/><midPointStop id="midPointStop3607" offset="1" stop-color="#41A5CB"/></linearGradient><linearGradient id="linearGradient30234" x1="747.33" x2="650.381" y1="541.214" y2="680.25" gradientUnits="userSpaceOnUse" xlink:href="#XMLID_393_"/><linearGradient id="XMLID_392_" x1="674.474" x2="640.831" y1="538.863" y2="663.597" gradientUnits="userSpaceOnUse"><stop id="stop3584" offset="0" stop-color="#00A0C6"/><stop id="stop3586" offset="1" stop-color="#0860A8"/><midPointStop id="midPointStop3588" offset="0" stop-color="#00A0C6"/><midPointStop id="midPointStop3590" offset=".5" stop-color="#00A0C6"/><midPointStop id="midPointStop3592" offset="1" stop-color="#0860A8"/></linearGradient><linearGradient id="linearGradient30233" x1="674.474" x2="640.831" y1="538.863" y2="663.597" gradientUnits="userSpaceOnUse" xlink:href="#XMLID_392_"/></defs><metadata id="metadata4"/><g id="layer1"><g id="g3578" transform="matrix(0.287091,0.000000,0.000000,0.287091,-158.9614,-138.6555)"><g id="g3580"><linearGradient id="linearGradient31964" x1="674.474" x2="640.831" y1="538.863" y2="663.597" gradientUnits="userSpaceOnUse"><stop id="stop31966" offset="0" stop-color="#00A0C6"/><stop id="stop31968" offset="1" stop-color="#0860A8"/><midPointStop id="midPointStop31970" offset="0" stop-color="#00A0C6"/><midPointStop id="midPointStop31972" offset=".5" stop-color="#00A0C6"/><midPointStop id="midPointStop31974" offset="1" stop-color="#0860A8"/></linearGradient><path id="path3595" fill="url(#linearGradient30233)" d="M 710.96300,619.72100 L 738.19400,614.27400 C 738.98000,542.75200 700.62200,504.42000 675.09600,483.95500 C 621.32700,491.07400 579.82100,537.06600 579.82100,592.78400 C 579.82100,646.96400 619.06700,691.94800 670.67500,700.93600 C 715.02000,664.79000 710.96300,619.72100 710.96300,619.72100 z" knockout="Off"/><linearGradient id="linearGradient31979" x1="747.33" x2="650.381" y1="541.214" y2="680.25" gradientUnits="userSpaceOnUse"><stop id="stop31981" offset="0" stop-color="#A6DEEB"/><stop id="stop31983" offset="1" stop-color="#41A5CB"/><midPointStop id="midPointStop31985" offset="0" stop-color="#A6DEEB"/><midPointStop id="midPointStop31987" offset=".5" stop-color="#A6DEEB"/><midPointStop id="midPointStop31989" offset="1" stop-color="#41A5CB"/></linearGradient><path id="path3610" fill="url(#linearGradient30234)" d="M 689.63800,482.96700 C 684.70500,482.96700 679.85800,483.32400 675.09700,483.95400 C 700.62200,504.41900 735.35000,542.72800 738.19500,614.27300 L 710.96400,619.72000 C 710.96400,619.72000 715.02100,664.78800 670.67700,700.93500 C 676.83900,702.00700 683.16800,702.59900 689.63900,702.59900 C 750.28900,702.59900 799.45700,653.43300 799.45700,592.78300 C 799.45700,532.13300 750.28900,482.96700 689.63800,482.96700 z" knockout="Off"/></g><g id="g3613"><path id="path3615" fill="none" d="M 739.97600,504.41600 C 743.70500,506.50600 747.61100,510.90300 751.22200,515.97500 C 746.95400,509.48000 743.18900,506.01800 739.97600,504.41600 z" knockout="Off"/><linearGradient id="linearGradient31999" x1="742.973" x2="698.777" y1="490.404" y2="608.816" gradientTransform="matrix(0.980400,0.149000,-0.151400,0.996400,89.83410,-108.2563)" gradientUnits="userSpaceOnUse"><stop id="stop32001" offset="0" stop-color="#FFF"/><stop id="stop32003" offset="1" stop-color="#80CFE2"/><midPointStop id="midPointStop32005" offset="0" stop-color="#FFF"/><midPointStop id="midPointStop32007" offset=".5" stop-color="#FFF"/><midPointStop id="midPointStop32009" offset="1" stop-color="#80CFE2"/></linearGradient><path id="path3630" fill="url(#linearGradient30235)" d="M 733.92500,503.38800 C 735.64800,503.06400 737.67100,503.26700 739.97600,504.41500 C 737.87300,503.23800 735.82900,502.79700 733.92500,503.38800 z" knockout="Off"/></g><g id="g3633"><linearGradient id="linearGradient32017" x1="731.738" x2="721.222" y1="487.953" y2="585.81" gradientTransform="matrix(0.997000,-7.710000e-2,7.710000e-2,0.997000,-32.80690,59.15250)" gradientUnits="userSpaceOnUse"><stop id="stop32019" offset="0" stop-color="#FFF"/><stop id="stop32021" offset="1" stop-color="#80CFE2"/><midPointStop id="midPointStop32023" offset="0" stop-color="#FFF"/><midPointStop id="midPointStop32025" offset=".5" stop-color="#FFF"/><midPointStop id="midPointStop32027" offset="1" stop-color="#80CFE2"/></linearGradient><path id="path3648" fill="url(#linearGradient30236)" d="M 677.28700,485.29000 C 686.69800,491.14700 698.09100,501.25100 709.35600,518.68500 C 730.63100,524.38100 750.03000,535.75000 765.39200,551.48400 L 789.67200,551.95000 C 770.91400,507.71800 725.25300,480.55000 677.28700,485.29000 z" knockout="Off"/></g><path id="path3651" d="M 706.20300,617.38700 L 734.61900,611.48500 C 729.45300,522.92000 674.09900,484.91000 674.09900,484.91000 C 674.09900,484.91000 733.45500,513.58100 740.95000,614.11600 L 712.50500,619.58700 C 712.50500,619.58700 716.70200,663.44600 670.67700,700.93700 C 670.67600,700.93600 711.36900,663.88500 706.20300,617.38700 z" knockout="Off"/><g id="g3653" knockout="Off"><linearGradient id="linearGradient32037" x1="597.908" x2="644.035" y1="695.514" y2="650.125" gradientUnits="userSpaceOnUse"><stop id="stop32039" offset="0" stop-color="#ABE0EC"/><stop id="stop32041" offset="1" stop-color="#0860A8"/><midPointStop id="midPointStop32043" offset="0" stop-color="#ABE0EC"/><midPointStop id="midPointStop32045" offset=".5" stop-color="#ABE0EC"/><midPointStop id="midPointStop32047" offset="1" stop-color="#0860A8"/></linearGradient><path id="path3668" fill="url(#linearGradient30237)" d="M 686.19500,679.41300 C 649.28200,679.18100 612.57500,662.87400 589.18000,630.72700 C 602.86800,665.99800 633.46200,691.11200 669.16900,698.71700 C 674.39200,693.80100 680.69900,687.16300 686.19500,679.41300 z" knockout="Off"/></g><path id="path3671" fill="#146798" d="M 600.98000,617.67400 C 600.98000,617.67400 591.88200,558.89800 645.50600,584.58100 C 645.50600,584.58200 585.18000,550.50300 600.98000,617.67400 z" knockout="Off"/><linearGradient id="linearGradient32055" x1="655.783" x2="667.868" y1="562.698" y2="581.009" gradientTransform="matrix(0.600000,0.143400,-0.149700,0.626100,341.3443,70.01140)" gradientUnits="userSpaceOnUse"><stop id="stop32057" offset="0" stop-color="#0860A8"/><stop id="stop32059" offset="1" stop-color="#0480B7"/><midPointStop id="midPointStop32061" offset="0" stop-color="#0860A8"/><midPointStop id="midPointStop32063" offset=".5" stop-color="#0860A8"/><midPointStop id="midPointStop32065" offset="1" stop-color="#0480B7"/></linearGradient><path id="path3686" fill="url(#linearGradient30238)" d="M 643.65800,545.00900 C 643.65800,545.00900 649.13300,506.48200 672.72900,532.28000 C 672.72900,532.28100 647.87400,491.38000 643.65800,545.00900 z" knockout="Off"/><path id="path3688" fill="#4ebdd7" d="M 757.35200,525.46800 C 757.35200,525.46800 737.40300,495.66700 732.65400,524.73800 C 732.65400,524.73800 729.34800,483.65400 757.35200,525.46800 z" knockout="Off"/><path id="path3690" fill="#4ebdd7" d="M 753.71900,600.18600 C 753.71900,600.18600 796.09200,560.80300 787.11900,617.13500 C 787.12000,617.13500 803.07200,548.83700 753.71900,600.18600 z" knockout="Off"/><path id="path3692" fill="#4ebdd7" d="M 763.63600,604.44600 C 763.63600,604.44600 786.56800,585.00400 780.58500,616.40900 C 780.58500,616.40900 785.07300,593.47800 763.63600,604.44600 z" knockout="Off"/><path id="path3694" fill="#0860a8" d="M 638.10800,598.51200 C 638.10800,598.51200 611.18700,592.53100 623.65100,627.42600 C 623.65100,627.42600 602.21500,584.55400 638.10800,598.51200 z" knockout="Off"/><path id="path3696" d="M 775.20900,604.47300 C 775.20900,604.47300 721.62000,697.99300 623.54400,603.73500 C 623.54400,603.73500 713.96300,712.21500 775.20900,604.47300 z" knockout="Off"/><g id="g3698" knockout="Off"><ellipse id="ellipse3700" cx="688.171" cy="751.11" fill="#fff" knockout="Off" rx="73.026" ry="10.514"/><ellipse id="ellipse3702" cx="688.171" cy="751.1" fill="#fefefe" knockout="Off" rx="72.615" ry="10.455"/><ellipse id="ellipse3704" cx="688.171" cy="751.09" fill="#fdfdfd" knockout="Off" rx="72.204" ry="10.396"/><ellipse id="ellipse3706" cx="688.171" cy="751.083" fill="#fbfcfc" knockout="Off" rx="71.793" ry="10.336"/><ellipse id="ellipse3708" cx="688.171" cy="751.073" fill="#fafbfb" knockout="Off" rx="71.382" ry="10.277"/><ellipse id="ellipse3710" cx="688.171" cy="751.063" fill="#f9fafa" knockout="Off" rx="70.972" ry="10.219"/><ellipse id="ellipse3712" cx="688.171" cy="751.053" fill="#f8f9f9" knockout="Off" rx="70.561" ry="10.16"/><ellipse id="ellipse3714" cx="688.171" cy="751.045" fill="#f6f7f7" knockout="Off" rx="70.15" ry="10.1"/><ellipse id="ellipse3716" cx="688.171" cy="751.036" fill="#f5f6f6" knockout="Off" rx="69.739" ry="10.041"/><ellipse id="ellipse3718" cx="688.171" cy="751.026" fill="#f4f5f5" knockout="Off" rx="69.329" ry="9.982"/><ellipse id="ellipse3720" cx="688.171" cy="751.018" fill="#f3f4f4" knockout="Off" rx="68.917" ry="9.922"/><ellipse id="ellipse3722" cx="688.171" cy="751.008" fill="#f2f3f3" knockout="Off" rx="68.506" ry="9.863"/><ellipse id="ellipse3724" cx="688.17" cy="750.999" fill="#f0f2f2" knockout="Off" rx="68.096" ry="9.805"/><ellipse id="ellipse3726" cx="688.171" cy="750.989" fill="#eff1f1" knockout="Off" rx="67.685" ry="9.746"/><ellipse id="ellipse3728" cx="688.171" cy="750.981" fill="#eef0f0" knockout="Off" rx="67.274" ry="9.686"/><ellipse id="ellipse3730" cx="688.17" cy="750.971" fill="#edefef" knockout="Off" rx="66.863" ry="9.627"/><ellipse id="ellipse3732" cx="688.171" cy="750.961" fill="#ebedee" knockout="Off" rx="66.453" ry="9.568"/><ellipse id="ellipse3734" cx="688.171" cy="750.954" fill="#eaeced" knockout="Off" rx="66.042" ry="9.508"/><ellipse id="ellipse3736" cx="688.171" cy="750.944" fill="#e9ebec" knockout="Off" rx="65.63" ry="9.449"/><ellipse id="ellipse3738" cx="688.171" cy="750.934" fill="#e8ebeb" knockout="Off" rx="65.22" ry="9.391"/><ellipse id="ellipse3740" cx="688.171" cy="750.926" fill="#e7eaea" knockout="Off" rx="64.809" ry="9.33"/><ellipse id="ellipse3742" cx="688.171" cy="750.917" fill="#e5e8e9" knockout="Off" rx="64.398" ry="9.271"/><ellipse id="ellipse3744" cx="688.17" cy="750.907" fill="#e4e7e8" knockout="Off" rx="63.987" ry="9.213"/><ellipse id="ellipse3746" cx="688.17" cy="750.897" fill="#e3e6e7" knockout="Off" rx="63.576" ry="9.154"/><ellipse id="ellipse3748" cx="688.171" cy="750.889" fill="#e2e5e6" knockout="Off" rx="63.166" ry="9.094"/><ellipse id="ellipse3750" cx="688.17" cy="750.879" fill="#e1e4e5" knockout="Off" rx="62.755" ry="9.035"/><ellipse id="ellipse3752" cx="688.171" cy="750.87" fill="#e0e3e4" knockout="Off" rx="62.344" ry="8.977"/><ellipse id="ellipse3754" cx="688.171" cy="750.862" fill="#dfe2e3" knockout="Off" rx="61.933" ry="8.916"/><ellipse id="ellipse3756" cx="688.171" cy="750.852" fill="#dee1e2" knockout="Off" rx="61.522" ry="8.857"/><ellipse id="ellipse3758" cx="688.171" cy="750.842" fill="#dde0e1" knockout="Off" rx="61.112" ry="8.799"/><ellipse id="ellipse3760" cx="688.171" cy="750.833" fill="#dbdfe0" knockout="Off" rx="60.701" ry="8.74"/><ellipse id="ellipse3762" cx="688.171" cy="750.825" fill="#dadedf" knockout="Off" rx="60.29" ry="8.68"/><ellipse id="ellipse3764" cx="688.171" cy="750.815" fill="#d9ddde" knockout="Off" rx="59.879" ry="8.621"/><ellipse id="ellipse3766" cx="688.171" cy="750.805" fill="#d8dcdd" knockout="Off" rx="59.468" ry="8.562"/><ellipse id="ellipse3768" cx="688.171" cy="750.797" fill="#d6dadb" knockout="Off" rx="59.057" ry="8.502"/><ellipse id="ellipse3770" cx="688.171" cy="750.788" fill="#d5d9da" knockout="Off" rx="58.646" ry="8.443"/><ellipse id="ellipse3772" cx="688.171" cy="750.778" fill="#d4d8d9" knockout="Off" rx="58.236" ry="8.385"/><ellipse id="ellipse3774" cx="688.171" cy="750.768" fill="#d3d7d8" knockout="Off" rx="57.825" ry="8.326"/><ellipse id="ellipse3776" cx="688.171" cy="750.76" fill="#d2d6d7" knockout="Off" rx="57.414" ry="8.266"/><ellipse id="ellipse3778" cx="688.171" cy="750.75" fill="#d0d5d6" knockout="Off" rx="57.003" ry="8.207"/><ellipse id="ellipse3780" cx="688.171" cy="750.741" fill="#cfd4d5" knockout="Off" rx="56.592" ry="8.148"/><ellipse id="ellipse3782" cx="688.171" cy="750.731" fill="#ced3d4" knockout="Off" rx="56.181" ry="8.09"/><ellipse id="ellipse3784" cx="688.171" cy="750.723" fill="#cdd2d3" knockout="Off" rx="55.77" ry="8.029"/><ellipse id="ellipse3786" cx="688.171" cy="750.713" fill="#ccd1d2" knockout="Off" rx="55.36" ry="7.971"/><ellipse id="ellipse3788" cx="688.171" cy="750.704" fill="#cbd0d1" knockout="Off" rx="54.949" ry="7.912"/><ellipse id="ellipse3790" cx="688.17" cy="750.696" fill="#cacfd0" knockout="Off" rx="54.538" ry="7.852"/><ellipse id="ellipse3792" cx="688.171" cy="750.686" fill="#c9cecf" knockout="Off" rx="54.126" ry="7.793"/><ellipse id="ellipse3794" cx="688.171" cy="750.676" fill="#c8cdce" knockout="Off" rx="53.716" ry="7.734"/><ellipse id="ellipse3796" cx="688.171" cy="750.668" fill="#c6cccd" knockout="Off" rx="53.305" ry="7.674"/><ellipse id="ellipse3798" cx="688.17" cy="750.659" fill="#c5cbcc" knockout="Off" rx="52.895" ry="7.615"/><ellipse id="ellipse3800" cx="688.171" cy="750.649" fill="#c4cacb" knockout="Off" rx="52.484" ry="7.557"/><ellipse id="ellipse3802" cx="688.171" cy="750.639" fill="#c3c9ca" knockout="Off" rx="52.073" ry="7.498"/><ellipse id="ellipse3804" cx="688.17" cy="750.631" fill="#c1c7c9" knockout="Off" rx="51.662" ry="7.438"/><ellipse id="ellipse3806" cx="688.171" cy="750.622" fill="#c0c6c8" knockout="Off" rx="51.251" ry="7.379"/><ellipse id="ellipse3808" cx="688.171" cy="750.612" fill="#c0c5c7" knockout="Off" rx="50.84" ry="7.32"/><ellipse id="ellipse3810" cx="688.171" cy="750.604" fill="#bfc4c6" knockout="Off" rx="50.429" ry="7.26"/><ellipse id="ellipse3812" cx="688.171" cy="750.594" fill="#bec3c5" knockout="Off" rx="50.019" ry="7.201"/><ellipse id="ellipse3814" cx="688.171" cy="750.584" fill="#bcc2c4" knockout="Off" rx="49.608" ry="7.143"/><ellipse id="ellipse3816" cx="688.171" cy="750.575" fill="#bbc1c3" knockout="Off" rx="49.197" ry="7.084"/><ellipse id="ellipse3818" cx="688.171" cy="750.567" fill="#bac0c2" knockout="Off" rx="48.786" ry="7.023"/><ellipse id="ellipse3820" cx="688.171" cy="750.557" fill="#b9bfc1" knockout="Off" rx="48.375" ry="6.965"/><ellipse id="ellipse3822" cx="688.171" cy="750.547" fill="#b7bebf" knockout="Off" rx="47.964" ry="6.906"/><ellipse id="ellipse3824" cx="688.171" cy="750.54" fill="#b6bdbe" knockout="Off" rx="47.553" ry="6.846"/><ellipse id="ellipse3826" cx="688.171" cy="750.53" fill="#b5bcbd" knockout="Off" rx="47.143" ry="6.787"/><ellipse id="ellipse3828" cx="688.171" cy="750.52" fill="#b4bbbd" knockout="Off" rx="46.732" ry="6.729"/><ellipse id="ellipse3830" cx="688.171" cy="750.51" fill="#b3babc" knockout="Off" rx="46.321" ry="6.67"/><ellipse id="ellipse3832" cx="688.171" cy="750.502" fill="#b2b9ba" knockout="Off" rx="45.911" ry="6.609"/><ellipse id="ellipse3834" cx="688.171" cy="750.493" fill="#b1b8b9" knockout="Off" rx="45.5" ry="6.551"/><ellipse id="ellipse3836" cx="688.171" cy="750.483" fill="#b0b7b8" knockout="Off" rx="45.088" ry="6.492"/><ellipse id="ellipse3838" cx="688.171" cy="750.475" fill="#afb6b7" knockout="Off" rx="44.677" ry="6.432"/><ellipse id="ellipse3840" cx="688.171" cy="750.465" fill="#adb5b6" knockout="Off" rx="44.267" ry="6.373"/><ellipse id="ellipse3842" cx="688.171" cy="750.456" fill="#acb4b5" knockout="Off" rx="43.856" ry="6.314"/><ellipse id="ellipse3844" cx="688.171" cy="750.446" fill="#abb3b4" knockout="Off" rx="43.445" ry="6.256"/><ellipse id="ellipse3846" cx="688.17" cy="750.438" fill="#abb2b3" knockout="Off" rx="43.034" ry="6.195"/><ellipse id="ellipse3848" cx="688.171" cy="750.428" fill="#aab1b2" knockout="Off" rx="42.624" ry="6.137"/><ellipse id="ellipse3850" cx="688.171" cy="750.418" fill="#a8afb1" knockout="Off" rx="42.212" ry="6.078"/><ellipse id="ellipse3852" cx="688.17" cy="750.411" fill="#a7afb0" knockout="Off" rx="41.802" ry="6.018"/><ellipse id="ellipse3854" cx="688.171" cy="750.401" fill="#a6aeaf" knockout="Off" rx="41.391" ry="5.959"/><ellipse id="ellipse3856" cx="688.171" cy="750.391" fill="#a5adae" knockout="Off" rx="40.98" ry="5.9"/><ellipse id="ellipse3858" cx="688.171" cy="750.381" fill="#a4abad" knockout="Off" rx="40.569" ry="5.842"/><ellipse id="ellipse3860" cx="688.171" cy="750.374" fill="#a3aaac" knockout="Off" rx="40.159" ry="5.781"/><ellipse id="ellipse3862" cx="688.171" cy="750.364" fill="#a2a9ab" knockout="Off" rx="39.748" ry="5.723"/><ellipse id="ellipse3864" cx="688.171" cy="750.354" fill="#a1a8aa" knockout="Off" rx="39.336" ry="5.664"/><path id="path3866" fill="#a0a7a9" d="M 727.09700,750.34600 C 727.09700,753.44000 709.66900,755.95000 688.17100,755.95000 C 666.67300,755.95000 649.24400,753.44000 649.24400,750.34600 C 649.24400,747.24800 666.67300,744.74100 688.17100,744.74100 C 709.66900,744.74100 727.09700,747.24900 727.09700,750.34600 z" knockout="Off"/><ellipse id="ellipse3868" cx="688.171" cy="750.336" fill="#9ea6a8" knockout="Off" rx="38.515" ry="5.545"/><ellipse id="ellipse3870" cx="688.171" cy="750.327" fill="#9da5a7" knockout="Off" rx="38.104" ry="5.486"/><ellipse id="ellipse3872" cx="688.17" cy="750.317" fill="#9ca4a6" knockout="Off" rx="37.693" ry="5.428"/><ellipse id="ellipse3874" cx="688.171" cy="750.309" fill="#9ba3a5" knockout="Off" rx="37.283" ry="5.367"/><ellipse id="ellipse3876" cx="688.171" cy="750.299" fill="#9aa2a4" knockout="Off" rx="36.872" ry="5.309"/><ellipse id="ellipse3878" cx="688.171" cy="750.29" fill="#99a1a3" knockout="Off" rx="36.46" ry="5.25"/><ellipse id="ellipse3880" cx="688.171" cy="750.282" fill="#98a0a2" knockout="Off" rx="36.05" ry="5.189"/><ellipse id="ellipse3882" cx="688.171" cy="750.272" fill="#979fa1" knockout="Off" rx="35.639" ry="5.131"/><ellipse id="ellipse3884" cx="688.171" cy="750.262" fill="#969ea0" knockout="Off" rx="35.228" ry="5.072"/><ellipse id="ellipse3886" cx="688.17" cy="750.252" fill="#959d9f" knockout="Off" rx="34.817" ry="5.014"/><ellipse id="ellipse3888" cx="688.171" cy="750.245" fill="#949c9e" knockout="Off" rx="34.407" ry="4.953"/><ellipse id="ellipse3890" cx="688.171" cy="750.235" fill="#939b9d" knockout="Off" rx="33.996" ry="4.895"/><ellipse id="ellipse3892" cx="688.171" cy="750.225" fill="#929a9c" knockout="Off" rx="33.584" ry="4.836"/><ellipse id="ellipse3894" cx="688.171" cy="750.217" fill="#91999b" knockout="Off" rx="33.174" ry="4.775"/><ellipse id="ellipse3896" cx="688.171" cy="750.208" fill="#8f989a" knockout="Off" rx="32.763" ry="4.717"/><ellipse id="ellipse3898" cx="688.171" cy="750.198" fill="#8f9799" knockout="Off" rx="32.352" ry="4.658"/><ellipse id="ellipse3900" cx="688.171" cy="750.188" fill="#8e9698" knockout="Off" rx="31.942" ry="4.6"/><ellipse id="ellipse3902" cx="688.171" cy="750.18" fill="#8d9597" knockout="Off" rx="31.531" ry="4.539"/><ellipse id="ellipse3904" cx="688.171" cy="750.17" fill="#8b9496" knockout="Off" rx="31.12" ry="4.48"/><ellipse id="ellipse3906" cx="688.171" cy="750.161" fill="#8a9395" knockout="Off" rx="30.708" ry="4.422"/><ellipse id="ellipse3908" cx="688.171" cy="750.153" fill="#899294" knockout="Off" rx="30.298" ry="4.361"/><ellipse id="ellipse3910" cx="688.171" cy="750.143" fill="#889193" knockout="Off" rx="29.887" ry="4.303"/><ellipse id="ellipse3912" cx="688.171" cy="750.133" fill="#879092" knockout="Off" rx="29.476" ry="4.244"/><ellipse id="ellipse3914" cx="688.171" cy="750.124" fill="#868f91" knockout="Off" rx="29.066" ry="4.186"/><ellipse id="ellipse3916" cx="688.171" cy="750.116" fill="#858e90" knockout="Off" rx="28.655" ry="4.125"/><ellipse id="ellipse3918" cx="688.171" cy="750.106" fill="#848d8f" knockout="Off" rx="28.244" ry="4.066"/><ellipse id="ellipse3920" cx="688.171" cy="750.096" fill="#838c8e" knockout="Off" rx="27.833" ry="4.008"/><ellipse id="ellipse3922" cx="688.171" cy="750.088" fill="#828b8d" knockout="Off" rx="27.422" ry="3.947"/><ellipse id="ellipse3924" cx="688.171" cy="750.079" fill="#818a8c" knockout="Off" rx="27.011" ry="3.889"/><ellipse id="ellipse3926" cx="688.171" cy="750.069" fill="#80898b" knockout="Off" rx="26.6" ry="3.83"/><ellipse id="ellipse3928" cx="688.171" cy="750.059" fill="#7f888a" knockout="Off" rx="26.19" ry="3.771"/><ellipse id="ellipse3930" cx="688.171" cy="750.051" fill="#7e8789" knockout="Off" rx="25.779" ry="3.711"/></g><linearGradient id="linearGradient32315" x1="613.708" x2="632.309" y1="555.017" y2="629.419" gradientUnits="userSpaceOnUse"><stop id="stop32317" offset="0" stop-color="#ABE0EC"/><stop id="stop32319" offset="1" stop-color="#0860A8"/><midPointStop id="midPointStop32321" offset="0" stop-color="#ABE0EC"/><midPointStop id="midPointStop32323" offset=".5" stop-color="#ABE0EC"/><midPointStop id="midPointStop32325" offset="1" stop-color="#0860A8"/></linearGradient><path id="path3946" fill="url(#linearGradient30239)" d="M 602.23900,632.23300 C 602.23900,632.23300 578.30800,547.48500 652.58800,587.36700 C 652.58700,587.36700 591.76900,556.45800 602.23900,632.23300 z" knockout="Off"/><linearGradient id="linearGradient32330" x1="775.172" x2="771.028" y1="572.329" y2="601.344" gradientUnits="userSpaceOnUse"><stop id="stop32332" offset="0" stop-color="#FFF"/><stop id="stop32334" offset="1" stop-color="#80CFE2"/><midPointStop id="midPointStop32336" offset="0" stop-color="#FFF"/><midPointStop id="midPointStop32338" offset=".5" stop-color="#FFF"/><midPointStop id="midPointStop32340" offset="1" stop-color="#80CFE2"/></linearGradient><path id="path3961" fill="url(#linearGradient30240)" d="M 752.64900,601.47100 C 752.64900,601.47100 796.41800,551.31200 786.92300,618.58600 C 786.92300,618.58600 793.25200,567.83300 752.64900,601.47100 z" knockout="Off"/><path id="path3963" d="M 674.41400,556.81900 C 677.27300,570.69200 674.76200,582.98000 668.80300,584.26000 C 662.84600,585.54000 655.69900,575.32900 652.84200,561.45400 C 649.98300,547.58100 652.49400,535.29300 658.45200,534.01300 C 664.41000,532.73300 671.55600,542.94300 674.41400,556.81900 z" knockout="Off"/><linearGradient id="linearGradient32347" x1="664.17" x2="658.48" y1="530.028" y2="554.597" gradientTransform="matrix(0.998300,-5.770000e-2,5.770000e-2,0.998300,-26.45990,40.30290)" gradientUnits="userSpaceOnUse"><stop id="stop32349" offset="0" stop-color="#FFF"/><stop id="stop32351" offset="1" stop-color="#000"/><midPointStop id="midPointStop32353" offset="0" stop-color="#FFF"/><midPointStop id="midPointStop32355" offset=".5" stop-color="#FFF"/><midPointStop id="midPointStop32357" offset="1" stop-color="#000"/></linearGradient><path id="path3978" fill="url(#linearGradient30241)" d="M 657.83200,543.38000 C 663.06300,542.25900 669.26800,550.88000 671.68700,562.64400 C 671.89400,563.64500 672.05500,564.63000 672.19200,565.60700 C 672.49400,562.21300 672.26300,558.22000 671.39900,554.03900 C 669.16500,543.18700 663.57600,535.19900 658.91500,536.20200 C 655.83500,536.86400 653.94400,541.29700 653.65200,547.35000 C 654.67600,545.19300 656.08400,543.75600 657.83200,543.38000 z" knockout="Off"/><path id="path3980" d="M 756.44200,539.07900 C 760.34900,551.61300 759.65400,563.40800 754.88900,565.41800 C 750.12700,567.42900 743.09800,558.89600 739.19300,546.35800 C 735.28500,533.82400 735.98000,522.02900 740.74400,520.01900 C 745.50700,518.00700 752.53600,526.54100 756.44200,539.07900 z" knockout="Off"/><linearGradient id="linearGradient32364" x1="737.697" x2="732.344" y1="512.862" y2="535.974" gradientTransform="matrix(0.980400,-0.196900,0.196900,0.980400,-76.65610,158.5775)" gradientUnits="userSpaceOnUse"><stop id="stop32366" offset="0" stop-color="#FFF"/><stop id="stop32368" offset="1" stop-color="#000"/><midPointStop id="midPointStop32370" offset="0" stop-color="#FFF"/><midPointStop id="midPointStop32372" offset=".5" stop-color="#FFF"/><midPointStop id="midPointStop32374" offset="1" stop-color="#000"/></linearGradient><path id="path3995" fill="url(#linearGradient30242)" d="M 741.28100,528.83300 C 745.46300,527.06700 751.53700,534.25200 754.84700,544.88000 C 755.12900,545.78400 755.37000,546.68100 755.59500,547.57100 C 755.46200,544.37000 754.82600,540.67900 753.64800,536.89900 C 750.59300,527.09400 745.09500,520.42000 741.37000,521.99400 C 738.90800,523.03200 737.84500,527.42300 738.28400,533.10400 C 738.88300,530.95200 739.88400,529.42200 741.28100,528.83300 z" knockout="Off"/><linearGradient id="linearGradient32379" x1="657.099" x2="667.512" y1="611.441" y2="565.082" gradientUnits="userSpaceOnUse"><stop id="stop32381" offset="0" stop-color="#FFF"/><stop id="stop32383" offset="1" stop-color="#000"/><midPointStop id="midPointStop32385" offset="0" stop-color="#FFF"/><midPointStop id="midPointStop32387" offset=".5" stop-color="#FFF"/><midPointStop id="midPointStop32389" offset="1" stop-color="#000"/></linearGradient><path id="path4010" fill="url(#linearGradient30243)" d="M 671.65200,571.41200 C 673.61700,576.33300 672.47200,581.41800 669.09700,582.76200 C 665.72300,584.11000 661.39300,581.21200 659.43100,576.29300 C 657.46700,571.37100 658.61200,566.28700 661.98500,564.94300 C 665.36000,563.59400 669.68900,566.49200 671.65200,571.41200 z" knockout="Off"/><linearGradient id="linearGradient32394" x1="744.783" x2="755.195" y1="593.922" y2="547.564" gradientTransform="matrix(0.907800,9.000000e-2,-2.400000e-2,0.986300,80.90890,-61.29330)" gradientUnits="userSpaceOnUse"><stop id="stop32396" offset="0" stop-color="#FFF"/><stop id="stop32398" offset="1" stop-color="#000"/><midPointStop id="midPointStop32400" offset="0" stop-color="#FFF"/><midPointStop id="midPointStop32402" offset=".5" stop-color="#FFF"/><midPointStop id="midPointStop32404" offset="1" stop-color="#000"/></linearGradient><path id="path4025" fill="url(#linearGradient30244)" d="M 756.93900,553.34800 C 758.60300,558.37800 757.44300,563.28800 754.34700,564.31100 C 751.25100,565.33700 747.39100,562.09000 745.72800,557.06200 C 744.06300,552.03100 745.22400,547.12000 748.31900,546.09700 C 751.41600,545.07200 755.27600,548.32000 756.93900,553.34800 z" knockout="Off"/></g></g></svg>