<svg xmlns="http://www.w3.org/2000/svg" xmlns:cc="http://web.resource.org/cc/" xmlns:xlink="http://www.w3.org/1999/xlink" id="svg50963" width="64pt" height="64pt"><defs id="defs3"><linearGradient id="XMLID_464_" x1="872.096" x2="652.569" y1="1055.928" y2="975.299" gradientUnits="userSpaceOnUse"><stop id="stop5490" offset="0" stop-color="#B2ADD3"/><stop id="stop5492" offset="1" stop-color="#798DA6"/><midPointStop id="midPointStop5494" offset="0" stop-color="#B2ADD3"/><midPointStop id="midPointStop5496" offset=".5" stop-color="#B2ADD3"/><midPointStop id="midPointStop5498" offset="1" stop-color="#798DA6"/></linearGradient><linearGradient id="linearGradient30104" x1="872.096" x2="652.569" y1="1055.928" y2="975.299" gradientUnits="userSpaceOnUse" xlink:href="#XMLID_464_"/><linearGradient id="XMLID_463_" x1="800.122" x2="719.583" y1="1037.079" y2="1007.498" gradientTransform="matrix(0.999700,-2.290000e-2,2.290000e-2,0.999700,-16.42400,-1.674000)" gradientUnits="userSpaceOnUse"><stop id="stop5475" offset="0" stop-color="#B2ADD3"/><stop id="stop5477" offset="1" stop-color="#798DA6"/><midPointStop id="midPointStop5479" offset="0" stop-color="#B2ADD3"/><midPointStop id="midPointStop5481" offset=".5" stop-color="#B2ADD3"/><midPointStop id="midPointStop5483" offset="1" stop-color="#798DA6"/></linearGradient><linearGradient id="linearGradient30103" x1="800.122" x2="719.583" y1="1037.079" y2="1007.498" gradientTransform="matrix(0.999700,-2.290000e-2,2.290000e-2,0.999700,-16.42400,-1.674000)" gradientUnits="userSpaceOnUse" xlink:href="#XMLID_463_"/><linearGradient id="XMLID_462_" x1="857.895" x2="937.795" y1="1016.979" y2="1022.528" gradientUnits="userSpaceOnUse"><stop id="stop5460" offset="0" stop-color="#B2ADD3"/><stop id="stop5462" offset="1" stop-color="#798DA6"/><midPointStop id="midPointStop5464" offset="0" stop-color="#B2ADD3"/><midPointStop id="midPointStop5466" offset=".5" stop-color="#B2ADD3"/><midPointStop id="midPointStop5468" offset="1" stop-color="#798DA6"/></linearGradient><linearGradient id="linearGradient30102" x1="857.895" x2="937.795" y1="1016.979" y2="1022.528" gradientUnits="userSpaceOnUse" xlink:href="#XMLID_462_"/><linearGradient id="XMLID_461_" x1="854.364" x2="854.364" y1="772.181" y2="901.178" gradientUnits="userSpaceOnUse"><stop id="stop5444" offset="0" stop-color="#FFF"/><stop id="stop5446" offset="1" stop-color="#000"/><midPointStop id="midPointStop5448" offset="0" stop-color="#FFF"/><midPointStop id="midPointStop5450" offset=".5" stop-color="#FFF"/><midPointStop id="midPointStop5452" offset="1" stop-color="#000"/></linearGradient><linearGradient id="linearGradient30101" x1="854.364" x2="854.364" y1="772.181" y2="901.178" gradientUnits="userSpaceOnUse" xlink:href="#XMLID_461_"/><linearGradient id="XMLID_460_" x1="849.112" x2="849.112" y1="1046.183" y2="891.188" gradientUnits="userSpaceOnUse"><stop id="stop5429" offset="0" stop-color="#FFF"/><stop id="stop5431" offset="1" stop-color="#000"/><midPointStop id="midPointStop5433" offset="0" stop-color="#FFF"/><midPointStop id="midPointStop5435" offset=".5" stop-color="#FFF"/><midPointStop id="midPointStop5437" offset="1" stop-color="#000"/></linearGradient><linearGradient id="linearGradient30100" x1="849.112" x2="849.112" y1="1046.183" y2="891.188" gradientUnits="userSpaceOnUse" xlink:href="#XMLID_460_"/><linearGradient id="XMLID_459_" x1="660.471" x2="994.117" y1="989.06" y2="791.11" gradientTransform="matrix(0.999900,1.140000e-2,-1.140000e-2,0.999900,6.109900,-1.500000e-3)" gradientUnits="userSpaceOnUse"><stop id="stop5410" offset="0" stop-color="#D4EFF5"/><stop id="stop5412" offset="1" stop-color="#000"/><midPointStop id="midPointStop5414" offset="0" stop-color="#D4EFF5"/><midPointStop id="midPointStop5416" offset=".5" stop-color="#D4EFF5"/><midPointStop id="midPointStop5418" offset="1" stop-color="#000"/></linearGradient><linearGradient id="linearGradient30099" x1="660.471" x2="994.117" y1="989.06" y2="791.11" gradientTransform="matrix(0.999900,1.140000e-2,-1.140000e-2,0.999900,6.109900,-1.500000e-3)" gradientUnits="userSpaceOnUse" xlink:href="#XMLID_459_"/><linearGradient id="XMLID_458_" x1="977.95" x2="663.686" y1="746.265" y2="1061.018" gradientUnits="userSpaceOnUse"><stop id="stop5395" offset="0" stop-color="#FFF"/><stop id="stop5397" offset="1" stop-color="#0677B3"/><midPointStop id="midPointStop5399" offset="0" stop-color="#FFF"/><midPointStop id="midPointStop5401" offset=".5" stop-color="#FFF"/><midPointStop id="midPointStop5403" offset="1" stop-color="#0677B3"/></linearGradient><linearGradient id="linearGradient30098" x1="977.95" x2="663.686" y1="746.265" y2="1061.018" gradientUnits="userSpaceOnUse" xlink:href="#XMLID_458_"/><linearGradient id="XMLID_457_" x1="984.437" x2="761.748" y1="704.535" y2="981.574" gradientUnits="userSpaceOnUse"><stop id="stop5379" offset="0" stop-color="#FFF"/><stop id="stop5381" offset="1" stop-color="#0677B3"/><midPointStop id="midPointStop5383" offset="0" stop-color="#FFF"/><midPointStop id="midPointStop5385" offset=".5" stop-color="#FFF"/><midPointStop id="midPointStop5387" offset="1" stop-color="#0677B3"/></linearGradient><linearGradient id="linearGradient30097" x1="984.437" x2="761.748" y1="704.535" y2="981.574" gradientUnits="userSpaceOnUse" xlink:href="#XMLID_457_"/><linearGradient id="XMLID_456_" x1="920.069" x2="702.888" y1="665.147" y2="935.334" gradientUnits="userSpaceOnUse"><stop id="stop5364" offset="0" stop-color="#0677B3"/><stop id="stop5366" offset="1" stop-color="#0A54A3"/><midPointStop id="midPointStop5368" offset="0" stop-color="#0677B3"/><midPointStop id="midPointStop5370" offset=".5" stop-color="#0677B3"/><midPointStop id="midPointStop5372" offset="1" stop-color="#0A54A3"/></linearGradient><linearGradient id="linearGradient30096" x1="920.069" x2="702.888" y1="665.147" y2="935.334" gradientUnits="userSpaceOnUse" xlink:href="#XMLID_456_"/><linearGradient id="XMLID_455_" x1="688.104" x2="725.177" y1="887.691" y2="922.998" gradientUnits="userSpaceOnUse"><stop id="stop5347" offset="0" stop-color="#B2ADD3"/><stop id="stop5349" offset="1" stop-color="#798DA6"/><midPointStop id="midPointStop5351" offset="0" stop-color="#B2ADD3"/><midPointStop id="midPointStop5353" offset=".5" stop-color="#B2ADD3"/><midPointStop id="midPointStop5355" offset="1" stop-color="#798DA6"/></linearGradient><linearGradient id="linearGradient30095" x1="688.104" x2="725.177" y1="887.691" y2="922.999" gradientUnits="userSpaceOnUse" xlink:href="#XMLID_455_"/><linearGradient id="XMLID_454_" x1="695.727" x2="740.62" y1="881.929" y2="924.685" gradientUnits="userSpaceOnUse"><stop id="stop5332" offset="0" stop-color="#B2BADA"/><stop id="stop5334" offset="1" stop-color="#798DA6"/><midPointStop id="midPointStop5336" offset="0" stop-color="#B2BADA"/><midPointStop id="midPointStop5338" offset=".5" stop-color="#B2BADA"/><midPointStop id="midPointStop5340" offset="1" stop-color="#798DA6"/></linearGradient><linearGradient id="linearGradient30094" x1="695.727" x2="740.62" y1="881.929" y2="924.685" gradientUnits="userSpaceOnUse" xlink:href="#XMLID_454_"/><linearGradient id="XMLID_453_" x1="762.687" x2="708.817" y1="1025.501" y2="1005.715" gradientUnits="userSpaceOnUse"><stop id="stop5317" offset="0" stop-color="#B2ADD3"/><stop id="stop5319" offset="1" stop-color="#798DA6"/><midPointStop id="midPointStop5321" offset="0" stop-color="#B2ADD3"/><midPointStop id="midPointStop5323" offset=".5" stop-color="#B2ADD3"/><midPointStop id="midPointStop5325" offset="1" stop-color="#798DA6"/></linearGradient><linearGradient id="linearGradient30093" x1="762.687" x2="708.817" y1="1025.501" y2="1005.715" gradientUnits="userSpaceOnUse" xlink:href="#XMLID_453_"/><linearGradient id="XMLID_452_" x1="827.128" x2="750.856" y1="1026.672" y2="966.872" gradientUnits="userSpaceOnUse"><stop id="stop5296" offset=".006" stop-color="#FFF"/><stop id="stop5298" offset=".382" stop-color="#B2BADA"/><stop id="stop5300" offset="1" stop-color="#798DA6"/><midPointStop id="midPointStop5302" offset=".006" stop-color="#FFF"/><midPointStop id="midPointStop5304" offset=".5" stop-color="#FFF"/><midPointStop id="midPointStop5306" offset=".382" stop-color="#B2BADA"/><midPointStop id="midPointStop5308" offset=".5" stop-color="#B2BADA"/><midPointStop id="midPointStop5310" offset="1" stop-color="#798DA6"/></linearGradient><linearGradient id="linearGradient30092" x1="827.128" x2="750.856" y1="1026.672" y2="966.872" gradientUnits="userSpaceOnUse" xlink:href="#XMLID_452_"/><linearGradient id="XMLID_451_" x1="878.676" x2="632.856" y1="1042.695" y2="973.528" gradientUnits="userSpaceOnUse"><stop id="stop5275" offset=".006" stop-color="#FFF"/><stop id="stop5277" offset=".382" stop-color="#B2BADA"/><stop id="stop5279" offset="1" stop-color="#798DA6"/><midPointStop id="midPointStop5281" offset=".006" stop-color="#FFF"/><midPointStop id="midPointStop5283" offset=".5" stop-color="#FFF"/><midPointStop id="midPointStop5285" offset=".382" stop-color="#B2BADA"/><midPointStop id="midPointStop5287" offset=".5" stop-color="#B2BADA"/><midPointStop id="midPointStop5289" offset="1" stop-color="#798DA6"/></linearGradient><linearGradient id="linearGradient30091" x1="878.676" x2="632.856" y1="1042.695" y2="973.528" gradientUnits="userSpaceOnUse" xlink:href="#XMLID_451_"/></defs><metadata id="metadata4"/><g id="layer1"><g id="g5034" transform="matrix(0.262904,0.000000,0.000000,0.262904,-173.2654,-199.5553)"><g id="g5036"><g id="g5038" knockout="Off"><path id="path5040" fill="#fff" d="M 888.47700,1025.0750 C 887.86500,1040.6220 836.01000,1051.2020 772.65700,1048.7080 C 709.30200,1046.2140 658.43800,1031.5930 659.05000,1016.0440 C 659.66100,1000.5050 711.51700,989.92100 774.87200,992.41600 C 838.22500,994.90800 889.08800,1009.5340 888.47700,1025.0750 z" knockout="Off"/><path id="path5042" fill="#fefefe" d="M 887.83300,1025.0250 C 887.22400,1040.4840 835.66100,1051.0040 772.66400,1048.5240 C 709.66500,1046.0440 659.08900,1031.5050 659.69600,1016.0450 C 660.30300,1000.5930 711.86800,990.06800 774.86600,992.54900 C 837.86400,995.02700 888.44000,1009.5710 887.83300,1025.0250 z" knockout="Off"/><path id="path5044" fill="#fdfdfd" d="M 887.18800,1024.9750 C 886.58300,1040.3460 835.31200,1050.8080 772.67000,1048.3410 C 710.02800,1045.8750 659.73700,1031.4190 660.34200,1016.0450 C 660.94700,1000.6800 712.21900,990.21600 774.86200,992.68300 C 837.50200,995.14700 887.79300,1009.6090 887.18800,1024.9750 z" knockout="Off"/><path id="path5046" fill="#fbfcfc" d="M 886.54300,1024.9250 C 885.94100,1040.2080 834.96300,1050.6110 772.67800,1048.1570 C 710.39200,1045.7060 660.38700,1031.3320 660.98900,1016.0450 C 661.59100,1000.7690 712.57100,990.36300 774.85600,992.81600 C 837.14100,995.26700 887.14500,1009.6460 886.54300,1024.9250 z" knockout="Off"/><path id="path5048" fill="#fafbfb" d="M 885.89900,1024.8750 C 885.30100,1040.0720 834.61400,1050.4140 772.68500,1047.9760 C 710.75600,1045.5380 661.03800,1031.2460 661.63500,1016.0470 C 662.23300,1000.8580 712.92100,990.51200 774.85000,992.95100 C 836.77900,995.38600 886.49700,1009.6830 885.89900,1024.8750 z" knockout="Off"/><path id="path5050" fill="#f9fafa" d="M 885.25400,1024.8250 C 884.65900,1039.9340 834.26400,1050.2170 772.69200,1047.7930 C 711.12000,1045.3690 661.68700,1031.1590 662.28200,1016.0480 C 662.87600,1000.9450 713.27200,990.65900 774.84500,993.08400 C 836.41700,995.50600 885.84900,1009.7200 885.25400,1024.8250 z" knockout="Off"/><path id="path5052" fill="#f8f9f9" d="M 884.61100,1024.7740 C 884.01800,1039.7960 833.91500,1050.0190 772.70000,1047.6090 C 711.48300,1045.2000 662.33700,1031.0720 662.92900,1016.0480 C 663.51900,1001.0330 713.62400,990.80600 774.84100,993.21700 C 836.05500,995.62500 885.20200,1009.7570 884.61100,1024.7740 z" knockout="Off"/><path id="path5054" fill="#f6f7f7" d="M 883.96500,1024.7240 C 883.37700,1039.6590 833.56500,1049.8220 772.70600,1047.4260 C 711.84600,1045.0300 662.98600,1030.9850 663.57300,1016.0480 C 664.16000,1001.1210 713.97400,990.95400 774.83400,993.35000 C 835.69400,995.74500 884.55300,1009.7950 883.96500,1024.7240 z" knockout="Off"/><path id="path5056" fill="#f5f6f6" d="M 883.32200,1024.6740 C 882.73700,1039.5210 833.21800,1049.6250 772.71400,1047.2430 C 712.21100,1044.8610 663.63700,1030.8970 664.22200,1016.0500 C 664.80600,1001.2090 714.32600,991.10200 774.83000,993.48500 C 835.33300,995.86500 883.90600,1009.8330 883.32200,1024.6740 z" knockout="Off"/><path id="path5058" fill="#f4f5f5" d="M 882.67700,1024.6250 C 882.09600,1039.3850 832.86700,1049.4290 772.72100,1047.0610 C 712.57400,1044.6940 664.28500,1030.8120 664.86700,1016.0510 C 665.44800,1001.2990 714.67800,991.25000 774.82500,993.61900 C 834.97100,995.98500 883.25800,1009.8700 882.67700,1024.6250 z" knockout="Off"/><path id="path5060" fill="#f3f4f4" d="M 882.03400,1024.5740 C 881.45600,1039.2470 832.51800,1049.2310 772.72900,1046.8780 C 712.93800,1044.5240 664.93600,1030.7260 665.51300,1016.0520 C 666.09000,1001.3870 715.02800,991.39800 774.81900,993.75200 C 834.60900,996.10400 882.61000,1009.9080 882.03400,1024.5740 z" knockout="Off"/><path id="path5062" fill="#f2f3f3" d="M 881.38900,1024.5240 C 880.81400,1039.1080 832.16800,1049.0340 772.73600,1046.6940 C 713.30100,1044.3550 665.58600,1030.6380 666.15900,1016.0510 C 666.73300,1001.4740 715.38000,991.54400 774.81400,993.88600 C 834.24700,996.22300 881.96100,1009.9450 881.38900,1024.5240 z" knockout="Off"/><path id="path5064" fill="#f0f2f2" d="M 880.74400,1024.4740 C 880.17300,1038.9710 831.82000,1048.8360 772.74300,1046.5110 C 713.66500,1044.1850 666.23500,1030.5510 666.80600,1016.0520 C 667.37500,1001.5620 715.73100,991.69300 774.80800,994.01900 C 833.88500,996.34300 881.31400,1009.9820 880.74400,1024.4740 z" knockout="Off"/><path id="path5066" fill="#eff1f1" d="M 880.10000,1024.4230 C 879.53200,1038.8330 831.47000,1048.6400 772.74900,1046.3270 C 714.02700,1044.0150 666.88500,1030.4640 667.45100,1016.0530 C 668.01700,1001.6510 716.08100,991.84000 774.80300,994.15300 C 833.52400,996.46200 880.66700,1010.0190 880.10000,1024.4230 z" knockout="Off"/><path id="path5068" fill="#eef0f0" d="M 879.45600,1024.3740 C 878.89200,1038.6960 831.12200,1048.4430 772.75700,1046.1450 C 714.39300,1043.8470 667.53500,1030.3770 668.09900,1016.0540 C 668.66200,1001.7390 716.43300,991.98800 774.79800,994.28600 C 833.16300,996.58300 880.01800,1010.0570 879.45600,1024.3740 z" knockout="Off"/><path id="path5070" fill="#edefef" d="M 878.81100,1024.3240 C 878.25000,1038.5580 830.77200,1048.2460 772.76400,1045.9620 C 714.75500,1043.6790 668.18400,1030.2910 668.74400,1016.0550 C 669.30500,1001.8270 716.78300,992.13600 774.79100,994.42100 C 832.80000,996.70200 879.37000,1010.0940 878.81100,1024.3240 z" knockout="Off"/><path id="path5072" fill="#ebedee" d="M 878.16700,1024.2740 C 877.61000,1038.4200 830.42300,1048.0480 772.77200,1045.7790 C 715.12000,1043.5090 668.83400,1030.2040 669.39100,1016.0560 C 669.94800,1001.9140 717.13500,992.28400 774.78700,994.55400 C 832.43900,996.82200 878.72300,1010.1320 878.16700,1024.2740 z" knockout="Off"/><path id="path5074" fill="#eaeced" d="M 877.52200,1024.2230 C 876.96800,1038.2830 830.07400,1047.8510 772.77900,1045.5950 C 715.48300,1043.3400 669.48500,1030.1170 670.03800,1016.0560 C 670.59100,1002.0030 717.48700,992.43100 774.78200,994.68700 C 832.07700,996.94200 878.07500,1010.1680 877.52200,1024.2230 z" knockout="Off"/><path id="path5076" fill="#e9ebec" d="M 876.87700,1024.1730 C 876.32600,1038.1460 829.72400,1047.6540 772.78500,1045.4120 C 715.84600,1043.1710 670.13300,1030.0290 670.68300,1016.0570 C 671.23200,1002.0910 717.83500,992.57800 774.77600,994.82100 C 831.71500,997.06100 877.42600,1010.2060 876.87700,1024.1730 z" knockout="Off"/><path id="path5078" fill="#e8ebeb" d="M 876.23300,1024.1240 C 875.68600,1038.0090 829.37600,1047.4580 772.79400,1045.2300 C 716.21100,1043.0030 670.78400,1029.9440 671.33100,1016.0580 C 671.87700,1002.1790 718.18900,992.72600 774.77200,994.95400 C 831.35400,997.18100 876.78000,1010.2440 876.23300,1024.1240 z" knockout="Off"/><path id="path5080" fill="#e7eaea" d="M 875.58800,1024.0740 C 875.04500,1037.8710 829.02600,1047.2610 772.80100,1045.0480 C 716.57400,1042.8340 671.43400,1029.8580 671.97700,1016.0600 C 672.52000,1002.2680 718.53900,992.87500 774.76600,995.08900 C 830.99300,997.30100 876.13100,1010.2810 875.58800,1024.0740 z" knockout="Off"/><path id="path5082" fill="#e5e8e9" d="M 874.94400,1024.0230 C 874.40500,1037.7330 828.67600,1047.0630 772.80700,1044.8640 C 716.93800,1042.6650 672.08300,1029.7700 672.62300,1016.0590 C 673.16200,1002.3560 718.89100,993.02200 774.76100,995.22200 C 830.63000,997.42000 875.48300,1010.3190 874.94400,1024.0230 z" knockout="Off"/><path id="path5084" fill="#e4e7e8" d="M 874.29900,1023.9730 C 873.76300,1037.5950 828.32600,1046.8660 772.81500,1044.6800 C 717.30100,1042.4950 672.73300,1029.6830 673.26900,1016.0600 C 673.80500,1002.4440 719.24200,993.16900 774.75500,995.35600 C 830.26800,997.54000 874.83400,1010.3550 874.29900,1023.9730 z" knockout="Off"/><path id="path5086" fill="#e3e6e7" d="M 873.65500,1023.9230 C 873.12200,1037.4570 827.97800,1046.6690 772.82200,1044.4970 C 717.66500,1042.3260 673.38400,1029.5960 673.91600,1016.0590 C 674.44800,1002.5310 719.59300,993.31600 774.75100,995.48800 C 829.90700,997.65900 874.18800,1010.3930 873.65500,1023.9230 z" knockout="Off"/><path id="path5088" fill="#e2e5e6" d="M 873.01100,1023.8740 C 872.48100,1037.3210 827.62900,1046.4730 772.82800,1044.3150 C 718.02700,1042.1570 674.03300,1029.5100 674.56100,1016.0620 C 675.09000,1002.6200 719.94400,993.46500 774.74400,995.62400 C 829.54500,997.77900 873.54000,1010.4300 873.01100,1023.8740 z" knockout="Off"/><path id="path5090" fill="#e1e4e5" d="M 872.36700,1023.8230 C 871.84100,1037.1830 827.28000,1046.2750 772.83700,1044.1320 C 718.39300,1041.9890 674.68300,1029.4240 675.20800,1016.0630 C 675.73400,1002.7090 720.29600,993.61400 774.74100,995.75700 C 829.18400,997.89900 872.89200,1010.4680 872.36700,1023.8230 z" knockout="Off"/><path id="path5092" fill="#e0e3e4" d="M 871.72200,1023.7730 C 871.20000,1037.0450 826.93000,1046.0780 772.84400,1043.9490 C 718.75600,1041.8200 675.33200,1029.3370 675.85400,1016.0630 C 676.37600,1002.7960 720.64700,993.76000 774.73500,995.89000 C 828.82200,998.01800 872.24400,1010.5050 871.72200,1023.7730 z" knockout="Off"/><path id="path5094" fill="#dfe2e3" d="M 871.07800,1023.7230 C 870.55900,1036.9080 826.58200,1045.8810 772.85100,1043.7650 C 719.12000,1041.6510 675.98300,1029.2490 676.50000,1016.0640 C 677.02000,1002.8840 720.99800,993.90800 774.72900,996.02400 C 828.46000,998.13800 871.59600,1010.5420 871.07800,1023.7230 z" knockout="Off"/><path id="path5096" fill="#dee1e2" d="M 870.43400,1023.6730 C 869.91700,1036.7700 826.23300,1045.6840 772.85800,1043.5820 C 719.48300,1041.4810 676.63200,1029.1620 677.14800,1016.0640 C 677.66300,1002.9720 721.34900,994.05400 774.72500,996.15700 C 828.09800,998.25700 870.94900,1010.5800 870.43400,1023.6730 z" knockout="Off"/><path id="path5098" fill="#dde0e1" d="M 869.79000,1023.6230 C 869.27600,1036.6330 825.88400,1045.4870 772.86600,1043.3990 C 719.84600,1041.3130 677.28200,1029.0760 677.79400,1016.0650 C 678.30600,1003.0610 721.70000,994.20400 774.72000,996.29200 C 827.73700,998.37700 870.30000,1010.6170 869.79000,1023.6230 z" knockout="Off"/><path id="path5100" fill="#dbdfe0" d="M 869.14500,1023.5730 C 868.63500,1036.4960 825.53400,1045.2900 772.87200,1043.2170 C 720.21000,1041.1450 677.93300,1028.9900 678.44000,1016.0670 C 678.94800,1003.1500 722.05100,994.35200 774.71300,996.42500 C 827.37500,998.49700 869.65300,1010.6550 869.14500,1023.5730 z" knockout="Off"/><path id="path5102" fill="#dadedf" d="M 868.50000,1023.5230 C 867.99400,1036.3580 825.18400,1045.0920 772.87900,1043.0340 C 720.57400,1040.9760 678.58100,1028.9020 679.08600,1016.0670 C 679.59100,1003.2370 722.40200,994.49900 774.70800,996.55900 C 827.01400,998.61700 869.00400,1010.6920 868.50000,1023.5230 z" knockout="Off"/><path id="path5104" fill="#d9ddde" d="M 867.85600,1023.4720 C 867.35400,1036.2200 824.83500,1044.8950 772.88700,1042.8500 C 720.93800,1040.8060 679.23100,1028.8160 679.73300,1016.0680 C 680.23500,1003.3250 722.75400,994.64600 774.70400,996.69200 C 826.65200,998.73700 868.35600,1010.7300 867.85600,1023.4720 z" knockout="Off"/><path id="path5106" fill="#d8dcdd" d="M 867.21100,1023.4220 C 866.71300,1036.0820 824.48500,1044.6970 772.89400,1042.6670 C 721.30100,1040.6370 679.88100,1028.7290 680.37900,1016.0670 C 680.87700,1003.4130 723.10500,994.79400 774.69700,996.82500 C 826.29000,998.85600 867.70900,1010.7670 867.21100,1023.4220 z" knockout="Off"/><path id="path5108" fill="#d6dadb" d="M 866.56700,1023.3730 C 866.07200,1035.9450 824.13700,1044.5020 772.90100,1042.4840 C 721.66500,1040.4670 680.53100,1028.6420 681.02600,1016.0690 C 681.52000,1003.5020 723.45600,994.94200 774.69300,996.96000 C 825.92800,998.97500 867.06100,1010.8040 866.56700,1023.3730 z" knockout="Off"/><path id="path5110" fill="#d5d9da" d="M 865.92200,1023.3220 C 865.43000,1035.8070 823.78700,1044.3040 772.90800,1042.3010 C 722.02700,1040.2980 681.17900,1028.5550 681.67200,1016.0700 C 682.16200,1003.5900 723.80700,995.09000 774.68800,997.09300 C 825.56700,999.09500 866.41300,1010.8410 865.92200,1023.3220 z" knockout="Off"/><path id="path5112" fill="#d4d8d9" d="M 865.27800,1023.2720 C 864.79000,1035.6700 823.43800,1044.1070 772.91600,1042.1190 C 722.39200,1040.1310 681.83100,1028.4690 682.31800,1016.0710 C 682.80500,1003.6780 724.15900,995.23700 774.68200,997.22700 C 825.20600,999.21400 865.76600,1010.8780 865.27800,1023.2720 z" knockout="Off"/><path id="path5114" fill="#d3d7d8" d="M 864.63300,1023.2220 C 864.14900,1035.5320 823.08900,1043.9100 772.92200,1041.9350 C 722.75600,1039.9600 682.48000,1028.3810 682.96400,1016.0710 C 683.44900,1003.7660 724.50900,995.38400 774.67600,997.36000 C 824.84300,999.33400 865.11800,1010.9170 864.63300,1023.2220 z" knockout="Off"/><path id="path5116" fill="#d2d6d7" d="M 863.98900,1023.1720 C 863.50900,1035.3950 822.74000,1043.7120 772.93000,1041.7510 C 723.11900,1039.7910 683.12900,1028.2950 683.61100,1016.0710 C 684.09200,1003.8530 724.86100,995.53100 774.67200,997.49400 C 824.48100,999.45400 864.46900,1010.9540 863.98900,1023.1720 z" knockout="Off"/><path id="path5118" fill="#d0d5d6" d="M 863.34400,1023.1230 C 862.86600,1035.2580 822.39100,1043.5170 772.93800,1041.5690 C 723.48300,1039.6230 683.78000,1028.2090 684.25600,1016.0730 C 684.73500,1003.9430 725.21100,995.68000 774.66600,997.62800 C 824.12000,999.57400 863.82200,1010.9910 863.34400,1023.1230 z" knockout="Off"/><path id="path5120" fill="#cfd4d5" d="M 862.70000,1023.0720 C 862.22500,1035.1200 822.04200,1043.3190 772.94400,1041.3860 C 723.84600,1039.4540 684.42900,1028.1210 684.90400,1016.0740 C 685.37800,1004.0310 725.56300,995.82800 774.66100,997.76200 C 823.75800,999.69400 863.17400,1011.0280 862.70000,1023.0720 z" knockout="Off"/><path id="path5122" fill="#ced3d4" d="M 862.05500,1023.0220 C 861.58400,1034.9820 821.69200,1043.1220 772.95100,1041.2030 C 724.20900,1039.2850 685.07800,1028.0350 685.54900,1016.0740 C 686.02000,1004.1190 725.91400,995.97500 774.65500,997.89500 C 823.39700,999.81300 862.52600,1011.0660 862.05500,1023.0220 z" knockout="Off"/><path id="path5124" fill="#cdd2d3" d="M 861.41100,1022.9720 C 860.94400,1034.8440 821.34400,1042.9240 772.96000,1041.0200 C 724.57400,1039.1160 685.73000,1027.9480 686.19600,1016.0760 C 686.66300,1004.2070 726.26500,996.12300 774.65100,998.02900 C 823.03500,999.93300 861.87700,1011.1030 861.41100,1022.9720 z" knockout="Off"/><path id="path5126" fill="#ccd1d2" d="M 860.76700,1022.9220 C 860.30300,1034.7060 820.99400,1042.7270 772.96500,1040.8360 C 724.93800,1038.9460 686.37800,1027.8610 686.84200,1016.0750 C 687.30700,1004.2950 726.61500,996.27000 774.64500,998.16200 C 822.67200,1000.0520 861.23100,1011.1400 860.76700,1022.9220 z" knockout="Off"/><path id="path5128" fill="#cbd0d1" d="M 860.12300,1022.8720 C 859.66300,1034.5690 820.64500,1042.5310 772.97400,1040.6540 C 725.30200,1038.7780 687.02900,1027.7740 687.49000,1016.0770 C 687.95100,1004.3840 726.96900,996.41900 774.64100,998.29600 C 822.31100,1000.1720 860.58300,1011.1780 860.12300,1022.8720 z" knockout="Off"/><path id="path5130" fill="#cacfd0" d="M 859.47800,1022.8220 C 859.02100,1034.4320 820.29500,1042.3340 772.98100,1040.4710 C 725.66500,1038.6090 687.67800,1027.6880 688.13500,1016.0770 C 688.59200,1004.4710 727.31900,996.56500 774.63500,998.42900 C 821.95000,1000.2920 859.93400,1011.2150 859.47800,1022.8220 z" knockout="Off"/><path id="path5132" fill="#c9cecf" d="M 858.83400,1022.7720 C 858.37900,1034.2940 819.94500,1042.1360 772.98700,1040.2880 C 726.02700,1038.4400 688.32800,1027.6010 688.78100,1016.0790 C 689.23400,1004.5600 727.67000,996.71400 774.62900,998.56300 C 821.58800,1000.4110 859.28700,1011.2520 858.83400,1022.7720 z" knockout="Off"/><ellipse id="ellipse5134" cx="773.809" cy="1019.4" fill="#c8cdce" knockout="Off" rx="84.446" ry="20.72" transform="matrix(0.999200,3.930000e-2,-3.930000e-2,0.999200,40.68590,-29.64110)"/><path id="path5136" fill="#c6cccd" d="M 857.54500,1022.6710 C 857.09800,1034.0190 819.24700,1041.7420 773.00200,1039.9210 C 726.75600,1038.1020 689.62700,1027.4270 690.07400,1016.0790 C 690.52000,1004.7350 728.37100,997.00900 774.61900,998.83000 C 820.86500,1000.6510 857.99100,1011.3280 857.54500,1022.6710 z" knockout="Off"/><path id="path5138" fill="#c5cbcc" d="M 856.90100,1022.6220 C 856.45800,1033.8820 818.89900,1041.5460 773.01000,1039.7390 C 727.11900,1037.9330 690.27800,1027.3410 690.72000,1016.0810 C 691.16400,1004.8240 728.72300,997.15700 774.61400,998.96500 C 820.50200,1000.7700 857.34300,1011.3650 856.90100,1022.6220 z" knockout="Off"/><path id="path5140" fill="#c4cacb" d="M 856.25600,1022.5710 C 855.81600,1033.7440 818.54900,1041.3480 773.01600,1039.5550 C 727.48300,1037.7640 690.92700,1027.2530 691.36700,1016.0810 C 691.80700,1004.9120 729.07500,997.30400 774.60800,999.09800 C 820.14100,1000.8900 856.69500,1011.4020 856.25600,1022.5710 z" knockout="Off"/><path id="path5142" fill="#c3c9ca" d="M 855.61200,1022.5210 C 855.17400,1033.6070 818.20000,1041.1510 773.02400,1039.3730 C 727.84600,1037.5960 691.57700,1027.1670 692.01400,1016.0830 C 692.45000,1005.0010 729.42600,997.45300 774.60300,999.23100 C 819.78000,1001.0090 856.04700,1011.4390 855.61200,1022.5210 z" knockout="Off"/><path id="path5144" fill="#c1c7c9" d="M 854.96700,1022.4710 C 854.53300,1033.4680 817.85000,1040.9540 773.03000,1039.1890 C 728.20900,1037.4260 692.22600,1027.0810 692.65900,1016.0830 C 693.09200,1005.0890 729.77600,997.60100 774.59700,999.36500 C 819.41800,1001.1290 855.39900,1011.4760 854.96700,1022.4710 z" knockout="Off"/><ellipse id="ellipse5146" cx="773.814" cy="1019.252" fill="#c0c6c8" knockout="Off" rx="80.571" ry="19.769" transform="matrix(0.999200,3.930000e-2,-3.930000e-2,0.999200,40.68730,-29.64640)"/><ellipse id="ellipse5148" cx="773.815" cy="1019.228" fill="#c0c5c7" knockout="Off" rx="79.925" ry="19.61" transform="matrix(0.999200,3.930000e-2,-3.930000e-2,0.999200,40.68010,-29.64210)"/><ellipse id="ellipse5150" cx="773.816" cy="1019.203" fill="#bfc4c6" knockout="Off" rx="79.279" ry="19.452" transform="matrix(0.999200,3.930000e-2,-3.930000e-2,0.999200,40.67910,-29.64220)"/><path id="path5152" fill="#bec3c5" d="M 852.38900,1022.2710 C 851.97000,1032.9180 816.45300,1040.1660 773.06000,1038.4580 C 729.66400,1036.7510 694.82700,1026.7330 695.24500,1016.0860 C 695.66500,1005.4410 731.18300,998.19100 774.57700,999.90000 C 817.97100,1001.6070 852.80800,1011.6260 852.38900,1022.2710 z" knockout="Off"/><ellipse id="ellipse5154" cx="773.818" cy="1019.154" fill="#bcc2c4" knockout="Off" rx="77.987" ry="19.135" transform="matrix(0.999200,3.930000e-2,-3.930000e-2,0.999200,40.68410,-29.64710)"/><ellipse id="ellipse5156" cx="773.819" cy="1019.129" fill="#bbc1c3" knockout="Off" rx="77.341" ry="18.977" transform="matrix(0.999200,3.930000e-2,-3.930000e-2,0.999200,40.68330,-29.64730)"/><ellipse id="ellipse5158" cx="773.82" cy="1019.104" fill="#bac0c2" knockout="Off" rx="76.696" ry="18.818" transform="matrix(0.999200,3.930000e-2,-3.930000e-2,0.999200,40.67570,-29.64280)"/><ellipse id="ellipse5160" cx="773.821" cy="1019.08" fill="#b9bfc1" knockout="Off" rx="76.05" ry="18.66" transform="matrix(0.999200,3.930000e-2,-3.930000e-2,0.999200,40.68160,-29.64760)"/><ellipse id="ellipse5162" cx="773.822" cy="1019.055" fill="#b7bebf" knockout="Off" rx="75.404" ry="18.501" transform="matrix(0.999200,3.930000e-2,-3.930000e-2,0.999200,40.67410,-29.64320)"/><ellipse id="ellipse5164" cx="773.823" cy="1019.03" fill="#b6bdbe" knockout="Off" rx="74.758" ry="18.343" transform="matrix(0.999200,3.930000e-2,-3.930000e-2,0.999200,40.67340,-29.64330)"/><ellipse id="ellipse5166" cx="773.824" cy="1019.006" fill="#b5bcbd" knockout="Off" rx="74.112" ry="18.184" transform="matrix(0.999200,3.930000e-2,-3.930000e-2,0.999200,40.67260,-29.64360)"/><ellipse id="ellipse5168" cx="773.825" cy="1018.981" fill="#b4bbbd" knockout="Off" rx="73.466" ry="18.026" transform="matrix(0.999200,3.930000e-2,-3.930000e-2,0.999200,40.67850,-29.64840)"/><ellipse id="ellipse5170" cx="773.826" cy="1018.957" fill="#b3babc" knockout="Off" rx="72.821" ry="17.867" transform="matrix(0.999200,3.930000e-2,-3.930000e-2,0.999200,40.67760,-29.64840)"/><ellipse id="ellipse5172" cx="773.827" cy="1018.932" fill="#b2b9ba" knockout="Off" rx="72.174" ry="17.708" transform="matrix(0.999200,3.930000e-2,-3.930000e-2,0.999200,40.66980,-29.64380)"/><ellipse id="ellipse5174" cx="773.828" cy="1018.907" fill="#b1b8b9" knockout="Off" rx="71.528" ry="17.55" transform="matrix(0.999200,3.930000e-2,-3.930000e-2,0.999200,40.66900,-29.64400)"/><ellipse id="ellipse5176" cx="773.829" cy="1018.883" fill="#b0b7b8" knockout="Off" rx="70.883" ry="17.392" transform="matrix(0.999200,3.930000e-2,-3.930000e-2,0.999200,40.66800,-29.64390)"/><ellipse id="ellipse5178" cx="773.83" cy="1018.857" fill="#afb6b7" knockout="Off" rx="70.237" ry="17.234" transform="matrix(0.999200,3.930000e-2,-3.930000e-2,0.999200,40.66720,-29.64420)"/><ellipse id="ellipse5180" cx="773.831" cy="1018.833" fill="#adb5b6" knockout="Off" rx="69.591" ry="17.075" transform="matrix(0.999200,3.930000e-2,-3.930000e-2,0.999200,40.66650,-29.64440)"/><ellipse id="ellipse5182" cx="773.832" cy="1018.809" fill="#acb4b5" knockout="Off" rx="68.945" ry="16.916" transform="matrix(0.999200,3.930000e-2,-3.930000e-2,0.999200,40.66580,-29.64470)"/><ellipse id="ellipse5184" cx="773.833" cy="1018.784" fill="#abb3b4" knockout="Off" rx="68.299" ry="16.758" transform="matrix(0.999200,3.930000e-2,-3.930000e-2,0.999200,40.66500,-29.64490)"/><ellipse id="ellipse5186" cx="773.833" cy="1018.759" fill="#abb2b3" knockout="Off" rx="67.653" ry="16.599" transform="matrix(0.999200,3.930000e-2,-3.930000e-2,0.999200,40.66430,-29.64500)"/><ellipse id="ellipse5188" cx="773.834" cy="1018.734" fill="#aab1b2" knockout="Off" rx="67.007" ry="16.441" transform="matrix(0.999200,3.930000e-2,-3.930000e-2,0.999200,40.66360,-29.64530)"/><ellipse id="ellipse5190" cx="773.835" cy="1018.71" fill="#a8afb1" knockout="Off" rx="66.361" ry="16.282" transform="matrix(0.999200,3.930000e-2,-3.930000e-2,0.999200,40.66280,-29.64550)"/><ellipse id="ellipse5192" cx="773.836" cy="1018.686" fill="#a7afb0" knockout="Off" rx="65.715" ry="16.123" transform="matrix(0.999200,3.930000e-2,-3.930000e-2,0.999200,40.66210,-29.64580)"/><ellipse id="ellipse5194" cx="773.838" cy="1018.66" fill="#a6aeaf" knockout="Off" rx="65.069" ry="15.966" transform="matrix(0.999200,3.930000e-2,-3.930000e-2,0.999200,40.66110,-29.64580)"/><ellipse id="ellipse5196" cx="773.839" cy="1018.636" fill="#a5adae" knockout="Off" rx="64.423" ry="15.807" transform="matrix(0.999200,3.930000e-2,-3.930000e-2,0.999200,40.66040,-29.64600)"/><ellipse id="ellipse5198" cx="773.839" cy="1018.611" fill="#a4abad" knockout="Off" rx="63.778" ry="15.648" transform="matrix(0.999200,3.930000e-2,-3.930000e-2,0.999200,40.65940,-29.64600)"/><ellipse id="ellipse5200" cx="773.84" cy="1018.586" fill="#a3aaac" knockout="Off" rx="63.132" ry="15.489" transform="matrix(0.999200,3.930000e-2,-3.930000e-2,0.999200,40.65060,-29.64060)"/><ellipse id="ellipse5202" cx="773.841" cy="1018.562" fill="#a2a9ab" knockout="Off" rx="62.486" ry="15.331" transform="matrix(0.999200,3.930000e-2,-3.930000e-2,0.999200,40.64980,-29.64090)"/><ellipse id="ellipse5204" cx="773.842" cy="1018.538" fill="#a1a8aa" knockout="Off" rx="61.84" ry="15.172" transform="matrix(0.999200,3.930000e-2,-3.930000e-2,0.999200,40.64870,-29.64070)"/><ellipse id="ellipse5206" cx="773.843" cy="1018.513" fill="#a0a7a9" knockout="Off" rx="61.195" ry="15.014" transform="matrix(0.999200,3.930000e-2,-3.930000e-2,0.999200,40.65590,-29.64660)"/><ellipse id="ellipse5208" cx="773.844" cy="1018.488" fill="#9ea6a8" knockout="Off" rx="60.549" ry="14.855" transform="matrix(0.999200,3.930000e-2,-3.930000e-2,0.999200,40.64680,-29.64100)"/><ellipse id="ellipse5210" cx="773.845" cy="1018.463" fill="#9da5a7" knockout="Off" rx="59.903" ry="14.697" transform="matrix(0.999200,3.930000e-2,-3.930000e-2,0.999200,40.64600,-29.64110)"/><ellipse id="ellipse5212" cx="773.846" cy="1018.439" fill="#9ca4a6" knockout="Off" rx="59.257" ry="14.538" transform="matrix(0.999200,3.930000e-2,-3.930000e-2,0.999200,40.64530,-29.64140)"/><ellipse id="ellipse5214" cx="773.847" cy="1018.414" fill="#9ba3a5" knockout="Off" rx="58.611" ry="14.38" transform="matrix(0.999200,3.930000e-2,-3.930000e-2,0.999200,40.64450,-29.64150)"/><ellipse id="ellipse5216" cx="773.848" cy="1018.389" fill="#9aa2a4" knockout="Off" rx="57.965" ry="14.222" transform="matrix(0.999200,3.930000e-2,-3.930000e-2,0.999200,40.64370,-29.64170)"/><ellipse id="ellipse5218" cx="773.849" cy="1018.365" fill="#99a1a3" knockout="Off" rx="57.319" ry="14.063" transform="matrix(0.999200,3.930000e-2,-3.930000e-2,0.999200,40.64300,-29.64180)"/><ellipse id="ellipse5220" cx="773.85" cy="1018.34" fill="#98a0a2" knockout="Off" rx="56.673" ry="13.904" transform="matrix(0.999200,3.930000e-2,-3.930000e-2,0.999200,40.64220,-29.64210)"/><ellipse id="ellipse5222" cx="773.851" cy="1018.315" fill="#979fa1" knockout="Off" rx="56.027" ry="13.746" transform="matrix(0.999200,3.930000e-2,-3.930000e-2,0.999200,40.64150,-29.64230)"/><ellipse id="ellipse5224" cx="773.852" cy="1018.291" fill="#969ea0" knockout="Off" rx="55.381" ry="13.588" transform="matrix(0.999200,3.930000e-2,-3.930000e-2,0.999200,40.64070,-29.64260)"/><ellipse id="ellipse5226" cx="773.853" cy="1018.266" fill="#959d9f" knockout="Off" rx="54.735" ry="13.429" transform="matrix(0.999200,3.930000e-2,-3.930000e-2,0.999200,40.63960,-29.64260)"/><ellipse id="ellipse5228" cx="773.854" cy="1018.242" fill="#949c9e" knockout="Off" rx="54.089" ry="13.27" transform="matrix(0.999200,3.930000e-2,-3.930000e-2,0.999200,40.63890,-29.64270)"/><ellipse id="ellipse5230" cx="773.855" cy="1018.216" fill="#939b9d" knockout="Off" rx="53.444" ry="13.113" transform="matrix(0.999200,3.930000e-2,-3.930000e-2,0.999200,40.63780,-29.64270)"/><path id="path5232" fill="#929a9c" d="M 826.61300,1020.2680 C 826.33100,1027.4160 802.48500,1032.2830 773.34800,1031.1350 C 744.20900,1029.9900 720.81700,1023.2620 721.09800,1016.1150 C 721.38100,1008.9670 745.22800,1004.0970 774.36700,1005.2450 C 803.50300,1006.3930 826.89300,1013.1210 826.61300,1020.2680 z" knockout="Off"/><ellipse id="ellipse5234" cx="773.856" cy="1018.167" fill="#91999b" knockout="Off" rx="52.152" ry="12.795" transform="matrix(0.999200,3.930000e-2,-3.930000e-2,0.999200,40.63600,-29.64290)"/><ellipse id="ellipse5236" cx="773.857" cy="1018.143" fill="#8f989a" knockout="Off" rx="51.506" ry="12.636" transform="matrix(0.999200,3.930000e-2,-3.930000e-2,0.999200,40.63530,-29.64320)"/><ellipse id="ellipse5238" cx="773.858" cy="1018.118" fill="#8f9799" knockout="Off" rx="50.86" ry="12.478" transform="matrix(0.999200,3.930000e-2,-3.930000e-2,0.999200,40.62450,-29.63640)"/><ellipse id="ellipse5240" cx="773.86" cy="1018.093" fill="#8e9698" knockout="Off" rx="50.215" ry="12.32" transform="matrix(0.999200,3.930000e-2,-3.930000e-2,0.999200,40.63350,-29.64330)"/><ellipse id="ellipse5242" cx="773.861" cy="1018.069" fill="#8d9597" knockout="Off" rx="49.569" ry="12.161" transform="matrix(0.999200,3.930000e-2,-3.930000e-2,0.999200,40.63280,-29.64360)"/><ellipse id="ellipse5244" cx="773.862" cy="1018.044" fill="#8b9496" knockout="Off" rx="48.923" ry="12.003" transform="matrix(0.999200,3.930000e-2,-3.930000e-2,0.999200,40.62160,-29.63650)"/><ellipse id="ellipse5246" cx="773.863" cy="1018.02" fill="#8a9395" knockout="Off" rx="48.277" ry="11.844" transform="matrix(0.999200,3.930000e-2,-3.930000e-2,0.999200,40.62070,-29.63670)"/><ellipse id="ellipse5248" cx="773.864" cy="1017.995" fill="#899294" knockout="Off" rx="47.631" ry="11.686" transform="matrix(0.999200,3.930000e-2,-3.930000e-2,0.999200,40.63070,-29.64440)"/><ellipse id="ellipse5250" cx="773.865" cy="1017.97" fill="#889193" knockout="Off" rx="46.985" ry="11.526" transform="matrix(0.999200,3.930000e-2,-3.930000e-2,0.999200,40.63000,-29.64470)"/><ellipse id="ellipse5252" cx="773.866" cy="1017.945" fill="#879092" knockout="Off" rx="46.339" ry="11.369" transform="matrix(0.999200,3.930000e-2,-3.930000e-2,0.999200,40.61830,-29.63720)"/><ellipse id="ellipse5254" cx="773.866" cy="1017.921" fill="#868f91" knockout="Off" rx="45.693" ry="11.21" transform="matrix(0.999200,3.930000e-2,-3.930000e-2,0.999200,40.61710,-29.63700)"/><ellipse id="ellipse5256" cx="773.867" cy="1017.896" fill="#858e90" knockout="Off" rx="45.047" ry="11.051" transform="matrix(0.999200,3.930000e-2,-3.930000e-2,0.999200,40.61630,-29.63710)"/><ellipse id="ellipse5258" cx="773.868" cy="1017.872" fill="#848d8f" knockout="Off" rx="44.401" ry="10.893" transform="matrix(0.999200,3.930000e-2,-3.930000e-2,0.999200,40.62700,-29.64540)"/><path id="path5260" fill="#838c8e" d="M 817.59000,1019.5670 C 817.35800,1025.4910 797.59600,1029.5240 773.44800,1028.5730 C 749.30100,1027.6250 729.91400,1022.0480 730.14600,1016.1270 C 730.38000,1010.2020 750.14300,1006.1660 774.29200,1007.1170 C 798.44000,1008.0680 817.82300,1013.6440 817.59000,1019.5670 z" knockout="Off"/><ellipse id="ellipse5262" cx="773.87" cy="1017.822" fill="#828b8d" knockout="Off" rx="43.11" ry="10.576" transform="matrix(0.999200,3.930000e-2,-3.930000e-2,0.999200,40.61340,-29.63730)"/><ellipse id="ellipse5264" cx="773.871" cy="1017.798" fill="#818a8c" knockout="Off" rx="42.463" ry="10.417" transform="matrix(0.999200,3.930000e-2,-3.930000e-2,0.999200,40.61250,-29.63760)"/><ellipse id="ellipse5266" cx="773.872" cy="1017.773" fill="#80898b" knockout="Off" rx="41.818" ry="10.259" transform="matrix(0.999200,3.930000e-2,-3.930000e-2,0.999200,40.62350,-29.64600)"/><ellipse id="ellipse5268" cx="773.873" cy="1017.748" fill="#7f888a" knockout="Off" rx="41.172" ry="10.1" transform="matrix(0.999200,3.930000e-2,-3.930000e-2,0.999200,40.61050,-29.63760)"/><ellipse id="ellipse5270" cx="773.874" cy="1017.724" fill="#7e8789" knockout="Off" rx="40.526" ry="9.942" transform="matrix(0.999200,3.930000e-2,-3.930000e-2,0.999200,40.60970,-29.63770)"/></g><linearGradient id="linearGradient51406" x1="878.676" x2="632.856" y1="1042.695" y2="973.528" gradientUnits="userSpaceOnUse"><stop id="stop51408" offset=".006" stop-color="#FFF"/><stop id="stop51410" offset=".382" stop-color="#B2BADA"/><stop id="stop51412" offset="1" stop-color="#798DA6"/><midPointStop id="midPointStop51414" offset=".006" stop-color="#FFF"/><midPointStop id="midPointStop51416" offset=".5" stop-color="#FFF"/><midPointStop id="midPointStop51418" offset=".382" stop-color="#B2BADA"/><midPointStop id="midPointStop51420" offset=".5" stop-color="#B2BADA"/><midPointStop id="midPointStop51422" offset="1" stop-color="#798DA6"/></linearGradient><ellipse id="ellipse5292" cx="802.605" cy="1021.292" fill="url(#linearGradient30091)" knockout="Off" rx="71.487" ry="21.553"/><linearGradient id="linearGradient51427" x1="827.128" x2="750.856" y1="1026.672" y2="966.872" gradientUnits="userSpaceOnUse"><stop id="stop51429" offset=".006" stop-color="#FFF"/><stop id="stop51431" offset=".382" stop-color="#B2BADA"/><stop id="stop51433" offset="1" stop-color="#798DA6"/><midPointStop id="midPointStop51435" offset=".006" stop-color="#FFF"/><midPointStop id="midPointStop51437" offset=".5" stop-color="#FFF"/><midPointStop id="midPointStop51439" offset=".382" stop-color="#B2BADA"/><midPointStop id="midPointStop51441" offset=".5" stop-color="#B2BADA"/><midPointStop id="midPointStop51443" offset="1" stop-color="#798DA6"/></linearGradient><path id="path5313" fill="url(#linearGradient30092)" d="M 842.89100,1009.7050 C 842.89100,1016.1750 825.66800,1021.4200 804.42400,1021.4200 C 783.17800,1021.4200 765.95600,1016.1750 765.95600,1009.7050 C 765.95600,1003.2340 783.17800,990.17900 804.42400,990.17900 C 825.66800,990.17800 842.89100,1003.2340 842.89100,1009.7050 z" knockout="Off"/><linearGradient id="linearGradient51448" x1="762.687" x2="708.817" y1="1025.501" y2="1005.715" gradientUnits="userSpaceOnUse"><stop id="stop51450" offset="0" stop-color="#B2ADD3"/><stop id="stop51452" offset="1" stop-color="#798DA6"/><midPointStop id="midPointStop51454" offset="0" stop-color="#B2ADD3"/><midPointStop id="midPointStop51456" offset=".5" stop-color="#B2ADD3"/><midPointStop id="midPointStop51458" offset="1" stop-color="#798DA6"/></linearGradient><path id="path5328" fill="url(#linearGradient30093)" d="M 754.64700,1007.9800 C 754.64700,1007.9800 712.07100,1018.8980 746.66400,1034.1840 C 746.66400,1034.1840 736.90700,1027.0080 761.30000,1020.1460 C 761.29900,1020.1460 747.99500,1012.9700 754.64700,1007.9800 z" knockout="Off"/><linearGradient id="linearGradient51463" x1="695.727" x2="740.62" y1="881.929" y2="924.685" gradientUnits="userSpaceOnUse"><stop id="stop51465" offset="0" stop-color="#B2BADA"/><stop id="stop51467" offset="1" stop-color="#798DA6"/><midPointStop id="midPointStop51469" offset="0" stop-color="#B2BADA"/><midPointStop id="midPointStop51471" offset=".5" stop-color="#B2BADA"/><midPointStop id="midPointStop51473" offset="1" stop-color="#798DA6"/></linearGradient><path id="path5343" fill="url(#linearGradient30094)" d="M 714.36000,831.68300 C 714.36000,831.68300 647.46700,882.91200 721.30100,974.27800 L 714.36000,831.68300 z" knockout="Off"/><linearGradient id="linearGradient51478" x1="688.104" x2="725.177" y1="887.691" y2="922.998" gradientUnits="userSpaceOnUse"><stop id="stop51480" offset="0" stop-color="#B2ADD3"/><stop id="stop51482" offset="1" stop-color="#798DA6"/><midPointStop id="midPointStop51484" offset="0" stop-color="#B2ADD3"/><midPointStop id="midPointStop51486" offset=".5" stop-color="#B2ADD3"/><midPointStop id="midPointStop51488" offset="1" stop-color="#798DA6"/></linearGradient><path id="path5358" fill="url(#linearGradient30095)" d="M 696.69000,852.80900 C 696.69000,852.80900 667.66100,901.92600 712.46600,960.54600 L 708.04900,857.03200 L 704.89300,935.19500 C 704.89300,935.19600 679.65200,905.09400 696.69000,852.80900 z" knockout="Off"/><g id="g5360"><linearGradient id="linearGradient51495" x1="920.069" x2="702.888" y1="665.147" y2="935.334" gradientUnits="userSpaceOnUse"><stop id="stop51497" offset="0" stop-color="#0677B3"/><stop id="stop51499" offset="1" stop-color="#0A54A3"/><midPointStop id="midPointStop51501" offset="0" stop-color="#0677B3"/><midPointStop id="midPointStop51503" offset=".5" stop-color="#0677B3"/><midPointStop id="midPointStop51505" offset="1" stop-color="#0A54A3"/></linearGradient><polygon id="polygon5375" fill="url(#linearGradient30096)" points="708.167 798.848 715.204 982.252 745.985 1011.634 748.966 777.745 708.167 798.848" knockout="Off"/><linearGradient id="linearGradient51510" x1="984.437" x2="761.748" y1="704.535" y2="981.574" gradientUnits="userSpaceOnUse"><stop id="stop51512" offset="0" stop-color="#FFF"/><stop id="stop51514" offset="1" stop-color="#0677B3"/><midPointStop id="midPointStop51516" offset="0" stop-color="#FFF"/><midPointStop id="midPointStop51518" offset=".5" stop-color="#FFF"/><midPointStop id="midPointStop51520" offset="1" stop-color="#0677B3"/></linearGradient><polygon id="polygon5390" fill="url(#linearGradient30097)" points="748.975 777.74 748.966 777.745 745.985 1011.634 746.162 1011.803 937.071 983.19 963.338 783.369 748.975 777.74" knockout="Off"/></g><linearGradient id="linearGradient51526" x1="977.95" x2="663.686" y1="746.265" y2="1061.018" gradientUnits="userSpaceOnUse"><stop id="stop51528" offset="0" stop-color="#FFF"/><stop id="stop51530" offset="1" stop-color="#0677B3"/><midPointStop id="midPointStop51532" offset="0" stop-color="#FFF"/><midPointStop id="midPointStop51534" offset=".5" stop-color="#FFF"/><midPointStop id="midPointStop51536" offset="1" stop-color="#0677B3"/></linearGradient><polygon id="polygon5406" fill="url(#linearGradient30098)" points="748.975 1008.52 751.79 780.554 960.055 785.714 935.194 981.314 748.975 1008.52" knockout="Off"/><linearGradient id="linearGradient51541" x1="660.471" x2="994.117" y1="989.06" y2="791.11" gradientTransform="matrix(0.999900,1.140000e-2,-1.140000e-2,0.999900,6.109900,-1.500000e-3)" gradientUnits="userSpaceOnUse"><stop id="stop51543" offset="0" stop-color="#D4EFF5"/><stop id="stop51545" offset="1" stop-color="#000"/><midPointStop id="midPointStop51547" offset="0" stop-color="#D4EFF5"/><midPointStop id="midPointStop51549" offset=".5" stop-color="#D4EFF5"/><midPointStop id="midPointStop51551" offset="1" stop-color="#000"/></linearGradient><path id="path5421" fill="url(#linearGradient30099)" d="M 765.35400,809.61800 L 759.28400,977.59000 C 759.10600,982.53100 761.01400,987.22400 764.52100,990.46600 C 768.02800,993.71000 772.85400,995.24600 777.76500,994.68300 L 915.27800,977.24300 C 924.26000,976.21200 931.95600,968.68100 933.17900,959.72400 L 953.13900,813.54800 C 953.79600,808.72900 952.41400,803.88300 949.34600,800.25100 C 946.27800,796.61800 941.73100,794.44600 936.86900,794.29000 C 936.86700,794.29000 783.80200,792.38800 783.80200,792.38800 C 773.98500,792.07300 765.70900,799.80200 765.35400,809.61800 z" knockout="Off"/><path id="path5423" fill="#f2fafc" d="M 779.77500,800.32700 C 774.86900,800.16900 770.71000,804.05500 770.53200,808.96100 L 764.46200,976.93300 C 764.28600,981.83700 768.13100,985.39400 773.00700,984.83500 L 910.52100,967.39400 C 915.39800,966.83400 919.93100,962.39900 920.59600,957.53600 L 940.55500,811.35800 C 941.21900,806.49500 937.74800,802.38800 932.84100,802.23000 L 779.77500,800.32700 z" knockout="Off"/><g id="g5425"><linearGradient id="linearGradient51560" x1="849.112" x2="849.112" y1="1046.183" y2="891.188" gradientUnits="userSpaceOnUse"><stop id="stop51562" offset="0" stop-color="#FFF"/><stop id="stop51564" offset="1" stop-color="#000"/><midPointStop id="midPointStop51566" offset="0" stop-color="#FFF"/><midPointStop id="midPointStop51568" offset=".5" stop-color="#FFF"/><midPointStop id="midPointStop51570" offset="1" stop-color="#000"/></linearGradient><path id="path5440" fill="url(#linearGradient30100)" d="M 769.79000,874.88500 L 766.16300,975.23400 C 765.98900,980.04000 769.75700,983.52400 774.53400,982.97500 L 909.43300,965.83300 C 914.21100,965.28600 918.65300,960.94100 919.30300,956.17500 L 932.06700,862.68600 C 870.84600,846.03500 809.70400,858.27800 769.79000,874.88500 z" knockout="Off"/><linearGradient id="linearGradient51575" x1="854.364" x2="854.364" y1="772.181" y2="901.178" gradientUnits="userSpaceOnUse"><stop id="stop51577" offset="0" stop-color="#FFF"/><stop id="stop51579" offset="1" stop-color="#000"/><midPointStop id="midPointStop51581" offset="0" stop-color="#FFF"/><midPointStop id="midPointStop51583" offset=".5" stop-color="#FFF"/><midPointStop id="midPointStop51585" offset="1" stop-color="#000"/></linearGradient><path id="path5455" fill="url(#linearGradient30101)" d="M 932.06700,862.68600 L 938.85600,812.97100 C 939.50600,808.20500 936.10600,804.18300 931.29900,804.02800 L 781.16300,802.22000 C 776.35700,802.06500 772.28200,805.87100 772.10800,810.67800 L 769.78900,874.88500 C 809.70400,858.27800 870.84600,846.03500 932.06700,862.68600 z" knockout="Off"/></g><linearGradient id="linearGradient51591" x1="857.895" x2="937.795" y1="1016.979" y2="1022.528" gradientUnits="userSpaceOnUse"><stop id="stop51593" offset="0" stop-color="#B2ADD3"/><stop id="stop51595" offset="1" stop-color="#798DA6"/><midPointStop id="midPointStop51597" offset="0" stop-color="#B2ADD3"/><midPointStop id="midPointStop51599" offset=".5" stop-color="#B2ADD3"/><midPointStop id="midPointStop51601" offset="1" stop-color="#798DA6"/></linearGradient><path id="path5471" fill="url(#linearGradient30102)" d="M 852.04600,1006.4690 C 852.04600,1006.4690 861.42800,1016.3670 830.93800,1022.9650 C 830.93800,1022.9650 856.26800,1019.0050 855.33100,1008.4470 C 855.33100,1008.4470 881.59900,1015.0460 869.87200,1027.9140 C 869.87200,1027.9150 887.22600,1017.3570 852.04600,1006.4690 z" knockout="Off"/><linearGradient id="linearGradient51606" x1="800.122" x2="719.583" y1="1037.079" y2="1007.498" gradientTransform="matrix(0.999700,-2.290000e-2,2.290000e-2,0.999700,-16.42400,-1.674000)" gradientUnits="userSpaceOnUse"><stop id="stop51608" offset="0" stop-color="#B2ADD3"/><stop id="stop51610" offset="1" stop-color="#798DA6"/><midPointStop id="midPointStop51612" offset="0" stop-color="#B2ADD3"/><midPointStop id="midPointStop51614" offset=".5" stop-color="#B2ADD3"/><midPointStop id="midPointStop51616" offset="1" stop-color="#798DA6"/></linearGradient><path id="path5486" fill="url(#linearGradient30103)" d="M 806.79500,1003.4070 C 806.79500,1003.4070 786.15700,1009.2620 792.79500,1022.0420 C 792.79500,1022.0420 764.64100,1020.9530 763.64900,1009.0960 L 806.79500,1003.4070 z" knockout="Off"/><linearGradient id="linearGradient51621" x1="872.096" x2="652.569" y1="1055.928" y2="975.299" gradientUnits="userSpaceOnUse"><stop id="stop51623" offset="0" stop-color="#B2ADD3"/><stop id="stop51625" offset="1" stop-color="#798DA6"/><midPointStop id="midPointStop51627" offset="0" stop-color="#B2ADD3"/><midPointStop id="midPointStop51629" offset=".5" stop-color="#B2ADD3"/><midPointStop id="midPointStop51631" offset="1" stop-color="#798DA6"/></linearGradient><path id="path5501" fill="url(#linearGradient30104)" d="M 868.08300,1029.6440 C 868.08300,1029.6440 824.32500,1054.4180 752.25300,1036.7220 C 752.25200,1036.7220 817.24700,1053.1320 868.08300,1029.6440 z" knockout="Off"/></g><g id="g5504" knockout="Off"><path id="path5506" fill="#fff" d="M 892.49900,858.84400 C 891.57100,866.28900 888.40300,873.19900 883.00000,879.57600 C 881.73900,881.11300 878.27100,884.77500 872.58400,890.56500 C 869.18700,894.11200 866.89900,897.50800 865.72900,900.75300 C 864.55300,904.00300 863.60000,908.58100 862.86500,914.48400 L 862.11400,917.51000 L 837.59300,920.51000 C 838.94900,909.62100 840.51000,901.83500 842.28300,897.15700 C 844.05700,892.48300 846.45600,888.54300 849.47300,885.34500 L 860.15700,874.15700 C 864.03800,869.77700 866.23000,865.57600 866.73200,861.54600 L 869.52000,839.16700 C 869.68000,837.86600 869.47200,836.92100 868.89300,836.32900 C 868.31400,835.73800 867.31600,835.44000 865.89700,835.44000 C 864.59100,835.44000 863.54500,835.73800 862.76300,836.33400 C 861.98000,836.93000 861.50400,837.88600 861.34200,839.19100 L 857.36100,871.16300 L 833.44500,871.16300 L 837.22700,840.80400 C 838.05100,834.17800 840.69800,829.03200 845.16600,825.36100 C 850.43200,820.98100 858.01900,818.79100 867.93300,818.79100 C 879.25700,818.79100 886.89600,820.92000 890.85100,825.17200 C 894.28800,828.83300 895.50000,834.74100 894.48700,842.89200 L 892.49900,858.84400 z M 859.20900,939.82300 L 834.68700,943.82300 L 836.95000,926.65900 L 861.47200,923.65900 L 859.20900,939.82300 z" knockout="Off"/></g></g></g></svg>