<svg xmlns="http://www.w3.org/2000/svg" xmlns:xlink="http://www.w3.org/1999/xlink" width="43cm" height="10cm" viewBox="-194 128 844 196"><rect width="469.774" height="193" x="-8" y="130" fill="none" fill-opacity="0" stroke="#000" stroke-width="2"/><g><rect width="159" height="104" x="4.5" y="189" fill="#fff"/><rect width="159" height="104" x="4.5" y="189" fill="none" fill-opacity="0" stroke="brown" stroke-width="2"/></g><g><rect width="94" height="77" x="63.5" y="211" fill="#fff"/><rect width="94" height="77" x="63.5" y="211" fill="none" fill-opacity="0" stroke="#00f" stroke-width="2"/></g><text x="74.5" y="227.75" fill="#00f" font-family="sanserif" font-size="12.8" font-style="normal" font-weight="normal" text-anchor="start"><tspan x="74.5" y="227.75">sink</tspan> <tspan x="74.5" y="243.75">crop</tspan> <tspan x="74.5" y="259.75">selection</tspan></text><text x="8.538" y="157.914" fill="brown" font-family="sanserif" font-size="12.8" font-style="normal" font-weight="normal" text-anchor="start"><tspan x="8.538" y="157.914">sink media</tspan> <tspan x="8.538" y="173.914">bus format</tspan></text><text x="349.774" y="155" fill="#8b6914" font-family="sanserif" font-size="12.8" font-style="normal" font-weight="normal" text-anchor="start"><tspan x="349.774" y="155">source media</tspan> <tspan x="349.774" y="171">bus format</tspan></text><g><rect width="93.286" height="75.166" x="350.488" y="190.834" fill="#fff"/><rect width="93.286" height="75.166" x="350.488" y="190.834" fill="none" fill-opacity="0" stroke="#8b6914" stroke-width="2"/></g><line x1="350.488" x2="63.5" y1="266" y2="288" fill="none" fill-opacity="0" stroke="#e60505" stroke-dasharray="4" stroke-width="2"/><line x1="350.488" x2="63.5" y1="190.834" y2="211" fill="none" fill-opacity="0" stroke="#e60505" stroke-dasharray="4" stroke-width="2"/><line x1="443.774" x2="157.5" y1="266" y2="288" fill="none" fill-opacity="0" stroke="#e60505" stroke-dasharray="4" stroke-width="2"/><line x1="443.774" x2="157.5" y1="190.834" y2="211" fill="none" fill-opacity="0" stroke="#e60505" stroke-dasharray="4" stroke-width="2"/><g><ellipse cx="473.1" cy="219.984" fill="#fff" rx="8.5" ry="8.5"/><ellipse cx="473.1" cy="219.984" fill="none" fill-opacity="0" stroke="#000" stroke-width="2" rx="8.5" ry="8.5"/><ellipse cx="473.1" cy="219.984" fill="none" fill-opacity="0" stroke="#000" stroke-width="2" rx="8.5" ry="8.5"/></g><g><line x1="481.6" x2="637.934" y1="219.984" y2="220.012" fill="none" fill-opacity="0" stroke="#000" stroke-width="2"/><polygon fill="#000" points="645.434 220.014 635.433 225.012 637.934 220.012 635.435 215.012"/><polygon fill="none" fill-opacity="0" stroke="#000" stroke-width="2" points="645.434 220.014 635.433 225.012 637.934 220.012 635.435 215.012"/></g><text x="506.908" y="209.8" fill="#000" font-family="sanserif" font-size="12.8" font-style="normal" font-weight="normal" text-anchor="start"><tspan x="506.908" y="209.8">pad 1 (source)</tspan></text><g><ellipse cx="-20.398" cy="241.512" fill="#fff" rx="8.5" ry="8.5"/><ellipse cx="-20.398" cy="241.512" fill="none" fill-opacity="0" stroke="#000" stroke-width="2" rx="8.5" ry="8.5"/><ellipse cx="-20.398" cy="241.512" fill="none" fill-opacity="0" stroke="#000" stroke-width="2" rx="8.5" ry="8.5"/></g><g><line x1="-192.398" x2="-38.634" y1="241.8" y2="241.529" fill="none" fill-opacity="0" stroke="#000" stroke-width="2"/><polygon fill="#000" points="-31.134 241.516 -41.125 246.534 -38.634 241.529 -41.143 236.534"/><polygon fill="none" fill-opacity="0" stroke="#000" stroke-width="2" points="-31.134 241.516 -41.125 246.534 -38.634 241.529 -41.143 236.534"/></g><text x="-147.858" y="229.8" fill="#000" font-family="sanserif" font-size="12.8" font-style="normal" font-weight="normal" text-anchor="start"><tspan x="-147.858" y="229.8">pad 0 (sink)</tspan></text></svg>