<svg xmlns="http://www.w3.org/2000/svg" xmlns:svg="http://www.w3.org/2000/svg" id="svg1767" width="700" height="250" version="1.0"><g id="layer1"><path id="path10927" fill="none" fill-opacity=".75" fill-rule="evenodd" stroke="#000" stroke-dasharray="none" stroke-linecap="butt" stroke-linejoin="miter" stroke-miterlimit="4" stroke-opacity="1" stroke-width="1" d="M 364.07449,162.44787 L 302.94811,162.44787 L 302.94811,93.94787"/><path id="path7992" fill="none" fill-opacity=".75" fill-rule="evenodd" stroke="#000" stroke-dasharray="none" stroke-linecap="butt" stroke-linejoin="miter" stroke-miterlimit="4" stroke-opacity="1" stroke-width="1.034" d="M 320.13707,113.44787 L 587.7613,113.44787"/><path id="path2796" fill="none" fill-opacity=".75" fill-rule="evenodd" stroke="#000" stroke-dasharray="none" stroke-linecap="butt" stroke-linejoin="miter" stroke-miterlimit="4" stroke-opacity="1" stroke-width="1" d="M 38.29449,67.44787 L 587.25057,67.44787"/><path id="path2798" fill="none" fill-opacity=".75" fill-rule="evenodd" stroke="#000" stroke-dasharray="none" stroke-linecap="butt" stroke-linejoin="miter" stroke-miterlimit="4" stroke-opacity="1" stroke-width="1" d="M 55.18019,88.44787 L 586.7613,88.44787"/><rect id="rect1308" width="39.18" height="32.989" x="101.867" y="61.448" fill="#b9b9f7" fill-opacity="1" stroke="#000" stroke-dasharray="none" stroke-linejoin="miter" stroke-miterlimit="4" stroke-opacity="1" stroke-width="1"/><text id="text2038" x="109.064" y="82.304" fill="#000" fill-opacity="1" stroke="none" stroke-dasharray="none" stroke-linecap="butt" stroke-linejoin="miter" stroke-miterlimit="4" stroke-opacity="1" stroke-width="1" font-family="Bitstream Vera Sans" font-size="12" font-style="normal" font-weight="normal" xml:space="preserve"><tspan id="tspan2040" x="109.064" y="82.304">PHY</tspan></text><rect id="rect14609" width="39.18" height="32.972" x="156.995" y="61.476" fill="#b9b9f7" fill-opacity="1" stroke="#000" stroke-dasharray="none" stroke-linejoin="miter" stroke-miterlimit="4" stroke-opacity="1" stroke-width="1"/><text id="text2044" x="162.88" y="82.324" fill="#000" fill-opacity="1" stroke="none" stroke-dasharray="none" stroke-linecap="butt" stroke-linejoin="miter" stroke-miterlimit="4" stroke-opacity="1" stroke-width="1" font-family="Bitstream Vera Sans" font-size="12" font-style="normal" font-weight="normal" xml:space="preserve"><tspan id="tspan2046" x="162.88" y="82.324">MAC</tspan></text><rect id="rect2048" width="39.18" height="59.32" x="287.908" y="61.128" fill="#f7bcbc" fill-opacity="1" stroke="#000" stroke-dasharray="none" stroke-linejoin="miter" stroke-miterlimit="4" stroke-opacity="1" stroke-width="1"/><rect id="rect14611" width="39.18" height="33.035" x="211.761" y="61.413" fill="#b9b9f7" fill-opacity="1" stroke="#000" stroke-dasharray="none" stroke-linejoin="miter" stroke-miterlimit="4" stroke-opacity="1" stroke-width="1"/><text id="text2050" x="230.572" y="74.702" fill="#000" fill-opacity="1" stroke="none" stroke-dasharray="none" stroke-linecap="butt" stroke-linejoin="miter" stroke-miterlimit="4" stroke-opacity="1" stroke-width="1" font-family="Bitstream Vera Sans" font-size="12" font-style="normal" font-weight="normal" xml:space="preserve" style="line-height:125%"><tspan id="tspan2052" x="230.572" y="74.702" text-anchor="middle" writing-mode="lr-tb" style="text-align:center;line-height:125%">HW</tspan><tspan id="tspan2054" x="230.572" y="89.702" text-anchor="middle" writing-mode="lr-tb" style="text-align:center;line-height:125%">Buff</tspan></text><text id="text3526" x="67.761" y="80.448" fill="#000" fill-opacity="1" stroke="none" stroke-linecap="butt" stroke-linejoin="miter" stroke-opacity="1" stroke-width="1" font-family="Bitstream Vera Sans" font-size="12" font-style="normal" font-weight="normal" xml:space="preserve"><tspan id="tspan3528" x="67.761" y="80.448">Tx</tspan></text><text id="text3530" x="66.589" y="101.448" fill="#000" fill-opacity="1" stroke="none" stroke-linecap="butt" stroke-linejoin="miter" stroke-opacity="1" stroke-width="1" font-family="Bitstream Vera Sans" font-size="12" font-style="normal" font-weight="normal" xml:space="preserve"><tspan id="tspan3532" x="66.589" y="101.448">Rx</tspan></text><text id="text3552" x="295.917" y="94.09" fill="#000" fill-opacity="1" stroke="none" stroke-dasharray="none" stroke-linecap="butt" stroke-linejoin="miter" stroke-miterlimit="4" stroke-opacity="1" stroke-width="1" font-family="Bitstream Vera Sans" font-size="12" font-style="normal" font-weight="normal" xml:space="preserve"><tspan id="tspan3554" x="295.917" y="94.09">IRQ</tspan></text><rect id="rect4287" width="48.383" height="58.927" x="382.379" y="61.52" fill="#f7bcbc" fill-opacity="1" stroke="#000" stroke-dasharray="none" stroke-linejoin="miter" stroke-miterlimit="4" stroke-opacity="1" stroke-width="1"/><text id="text4289" x="405.987" y="87.852" fill="#000" fill-opacity="1" stroke="none" stroke-dasharray="none" stroke-linecap="butt" stroke-linejoin="miter" stroke-miterlimit="4" stroke-opacity="1" stroke-width="1" font-family="Bitstream Vera Sans" font-size="12" font-stretch="normal" font-style="normal" font-variant="normal" font-weight="normal" text-anchor="middle" writing-mode="lr-tb" xml:space="preserve" style="text-align:center;line-height:125%"><tspan id="tspan4291" x="405.987" y="87.852">NIC</tspan><tspan id="tspan1506" x="405.987" y="102.852">Driver</tspan></text><rect id="rect14613" width="48.383" height="58.927" x="446.351" y="61.448" fill="#f7bcbc" fill-opacity="1" stroke="#000" stroke-dasharray="none" stroke-linejoin="miter" stroke-miterlimit="4" stroke-opacity="1" stroke-width="1"/><text id="text4295" x="450.178" y="94.808" fill="#000" fill-opacity="1" stroke="none" stroke-dasharray="none" stroke-linecap="butt" stroke-linejoin="miter" stroke-miterlimit="4" stroke-opacity="1" stroke-width="1" font-family="Bitstream Vera Sans" font-size="12" font-style="normal" font-weight="normal" xml:space="preserve"><tspan id="tspan4297" x="450.178" y="94.808">UDP/IP</tspan></text><path id="path4315" fill="none" fill-opacity=".75" fill-rule="evenodd" stroke="#000" stroke-dasharray="none" stroke-linecap="butt" stroke-linejoin="miter" stroke-miterlimit="4" stroke-opacity="1" stroke-width="1" d="M 108.41884,49.44787 C 108.41884,46.16778 120.09007,49.28951 120.09007,43.73965 C 120.09007,49.28951 131.7613,46.16778 131.7613,49.44787"/><text id="text5061" x="106.761" y="37.231" fill="#000" fill-opacity="1" stroke="none" stroke-linecap="butt" stroke-linejoin="miter" stroke-opacity="1" stroke-width="1" font-family="Bitstream Vera Sans" font-size="12" font-style="normal" font-weight="normal" xml:space="preserve"><tspan id="tspan5063" x="106.761" y="37.231">jitter</tspan></text><text id="text5067" x="250.839" y="22.172" fill="#000" fill-opacity="1" stroke="none" stroke-linecap="butt" stroke-linejoin="miter" stroke-opacity="1" stroke-width="1" font-family="Bitstream Vera Sans" font-size="12" font-style="normal" font-weight="normal" xml:space="preserve"><tspan id="tspan5069" x="250.839" y="22.172">JITTER</tspan></text><path id="path5800" fill="none" fill-opacity=".75" fill-rule="evenodd" stroke="#000" stroke-dasharray="none" stroke-linecap="butt" stroke-linejoin="miter" stroke-miterlimit="4" stroke-opacity="1" stroke-width="1" d="M 223.91813,49.5406 C 223.91813,36.84555 269.08971,48.9277 269.08971,27.44787 C 269.08971,48.9277 314.2613,36.84555 314.2613,49.5406"/><rect id="rect7254" width="75.625" height="59.075" x="583.761" y="61.373" fill="#b9f7b9" fill-opacity="1" stroke="#000" stroke-dasharray="none" stroke-linejoin="miter" stroke-miterlimit="4" stroke-opacity="1" stroke-width="1"/><text id="text7256" x="606.811" y="80.167" fill="#000" fill-opacity="1" stroke="none" stroke-dasharray="none" stroke-linecap="butt" stroke-linejoin="miter" stroke-miterlimit="4" stroke-opacity="1" stroke-width="1" font-family="Bitstream Vera Sans" font-size="12" font-style="normal" font-weight="normal" xml:space="preserve"><tspan id="tspan7258" x="606.811" y="80.167">PTPd</tspan></text><text id="text7994" x="334.761" y="127.231" fill="#000" fill-opacity="1" stroke="none" stroke-linecap="butt" stroke-linejoin="miter" stroke-opacity="1" stroke-width="1" font-family="Bitstream Vera Sans" font-size="12" font-style="normal" font-weight="normal" xml:space="preserve"><tspan id="tspan7996" x="334.761" y="127.231">Time</tspan></text><path id="path10929" fill="none" fill-opacity=".75" fill-rule="evenodd" stroke="#000" stroke-dasharray="none" stroke-linecap="butt" stroke-linejoin="miter" stroke-miterlimit="4" stroke-opacity="1" stroke-width="1" d="M 394.8202,162.78483 L 607.7613,162.78483 L 607.7613,110.44787"/><rect id="rect7986" width="48.383" height="22.175" x="593.209" y="93.448" fill="#b9f7b9" fill-opacity="1" stroke="#000" stroke-dasharray="none" stroke-linejoin="miter" stroke-miterlimit="4" stroke-opacity="1" stroke-width="1"/><text id="text7988" x="599.93" y="108.898" fill="#000" fill-opacity="1" stroke="none" stroke-dasharray="none" stroke-linecap="butt" stroke-linejoin="miter" stroke-miterlimit="4" stroke-opacity="1" stroke-width="1" font-family="Bitstream Vera Sans" font-size="12" font-style="normal" font-weight="normal" xml:space="preserve"><tspan id="tspan7990" x="599.93" y="108.898">Servo</tspan></text><path id="path10904" fill="#f7baba" fill-opacity="1" stroke="#000" stroke-dasharray="none" stroke-linejoin="miter" stroke-miterlimit="4" stroke-opacity="1" stroke-width="1" d="M 275 152.36218 A 25 25 0 1 1 225,152.36218 A 25 25 0 1 1 275 152.36218 z" transform="translate(132.2613,10.0857)"/><path id="path12383" fill="none" fill-opacity=".75" fill-rule="evenodd" stroke="#000" stroke-dasharray="1 1" stroke-dashoffset="0" stroke-linecap="butt" stroke-linejoin="miter" stroke-miterlimit="4" stroke-opacity="1" stroke-width="1" d="M 270.7613,44.09362 L 270.7613,234.05213"/><path id="path13111" fill="none" fill-opacity=".75" fill-rule="evenodd" stroke="#000" stroke-dasharray="1 1" stroke-dashoffset="0" stroke-linecap="butt" stroke-linejoin="miter" stroke-miterlimit="4" stroke-opacity="1" stroke-width="1" d="M 508.2613,44.09362 L 508.2613,234.05213"/><g id="g14569" stroke-dasharray="none" stroke-miterlimit="4" stroke-width="1" transform="translate(7.4373,19.1115)"><path id="path2784" fill="none" fill-opacity=".75" fill-rule="evenodd" stroke="#000" stroke-dasharray="none" stroke-linecap="butt" stroke-linejoin="miter" stroke-miterlimit="4" stroke-opacity="1" stroke-width="1" d="M 27.5,8.362183 L 27.5,114.33703"/><path id="path2790" fill="none" fill-opacity=".75" fill-rule="evenodd" stroke="#000" stroke-dasharray="none" stroke-linecap="butt" stroke-linejoin="miter" stroke-miterlimit="4" stroke-opacity="1" stroke-width="1" d="M 31,10.387336 L 31,116.36218"/><path id="path13839" fill="none" fill-opacity=".75" fill-rule="evenodd" stroke="#000" stroke-dasharray="none" stroke-linecap="butt" stroke-linejoin="miter" stroke-miterlimit="4" stroke-opacity="1" stroke-width="1" d="M 23.17604,116.6083 C 23.17604,116.6083 25.000775,114.29264 27.066426,114.36218 C 29.132078,114.43173 29.374262,116.81621 31.438646,116.88649 C 33.50303,116.95677 35.32396,114.6433 35.32396,114.6433"/><path id="path14567" fill="none" fill-opacity=".75" fill-rule="evenodd" stroke="#000" stroke-dasharray="none" stroke-linecap="butt" stroke-linejoin="miter" stroke-miterlimit="4" stroke-opacity="1" stroke-width="1" d="M 23.17604,10.083993 C 23.17604,10.083993 25.000775,7.7683326 27.066426,7.8378726 C 29.132078,7.9074226 29.374262,10.291903 31.438646,10.362183 C 33.50303,10.432463 35.32396,8.1189926 35.32396,8.1189926"/></g><g id="g14575" stroke-dasharray="none" stroke-miterlimit="4" stroke-width="1" transform="translate(24.4373,19.0598)"><path id="path14577" fill="none" fill-opacity=".75" fill-rule="evenodd" stroke="#000" stroke-dasharray="none" stroke-linecap="butt" stroke-linejoin="miter" stroke-miterlimit="4" stroke-opacity="1" stroke-width="1" d="M 27.5,8.362183 L 27.5,114.33703"/><path id="path14579" fill="none" fill-opacity=".75" fill-rule="evenodd" stroke="#000" stroke-dasharray="none" stroke-linecap="butt" stroke-linejoin="miter" stroke-miterlimit="4" stroke-opacity="1" stroke-width="1" d="M 31,10.387336 L 31,116.36218"/><path id="path14581" fill="none" fill-opacity=".75" fill-rule="evenodd" stroke="#000" stroke-dasharray="none" stroke-linecap="butt" stroke-linejoin="miter" stroke-miterlimit="4" stroke-opacity="1" stroke-width="1" d="M 23.17604,116.6083 C 23.17604,116.6083 25.000775,114.29264 27.066426,114.36218 C 29.132078,114.43173 29.374262,116.81621 31.438646,116.88649 C 33.50303,116.95677 35.32396,114.6433 35.32396,114.6433"/><path id="path14583" fill="none" fill-opacity=".75" fill-rule="evenodd" stroke="#000" stroke-dasharray="none" stroke-linecap="butt" stroke-linejoin="miter" stroke-miterlimit="4" stroke-opacity="1" stroke-width="1" d="M 23.17604,10.083993 C 23.17604,10.083993 25.000775,7.7683326 27.066426,7.8378726 C 29.132078,7.9074226 29.374262,10.291903 31.438646,10.362183 C 33.50303,10.432463 35.32396,8.1189926 35.32396,8.1189926"/></g><text id="text14585" x="167.293" y="216.166" fill="#000" fill-opacity="1" stroke="none" stroke-linecap="butt" stroke-linejoin="miter" stroke-opacity="1" stroke-width="1" font-family="Bitstream Vera Sans" font-size="12" font-style="normal" font-weight="normal" xml:space="preserve"><tspan id="tspan14587" x="167.293" y="216.166">Hardware</tspan></text><text id="text14589" x="344.589" y="215.049" fill="#000" fill-opacity="1" stroke="none" stroke-linecap="butt" stroke-linejoin="miter" stroke-opacity="1" stroke-width="1" font-family="Bitstream Vera Sans" font-size="12" font-style="normal" font-weight="normal" xml:space="preserve"><tspan id="tspan14591" x="344.589" y="215.049">Kernel-Space</tspan></text><text id="text14593" x="547.293" y="214.932" fill="#000" fill-opacity="1" stroke="none" stroke-linecap="butt" stroke-linejoin="miter" stroke-opacity="1" stroke-width="1" font-family="Bitstream Vera Sans" font-size="12" font-style="normal" font-weight="normal" xml:space="preserve"><tspan id="tspan14595" x="547.293" y="214.932">User-Space</tspan></text><text id="text14597" x="518.496" y="80.448" fill="#000" fill-opacity="1" stroke="none" stroke-linecap="butt" stroke-linejoin="miter" stroke-opacity="1" stroke-width="1" font-family="Bitstream Vera Sans" font-size="12" font-style="normal" font-weight="normal" xml:space="preserve"><tspan id="tspan14601" x="518.496" y="80.448">send()</tspan></text><text id="text14603" x="518.056" y="101.448" fill="#000" fill-opacity="1" stroke="none" stroke-linecap="butt" stroke-linejoin="miter" stroke-opacity="1" stroke-width="1" font-family="Bitstream Vera Sans" font-size="12" font-style="normal" font-weight="normal" xml:space="preserve"><tspan id="tspan14605" x="518.056" y="101.448">recv()</tspan></text><text id="text14615" x="518.115" y="126.565" fill="#000" fill-opacity="1" stroke="none" stroke-linecap="butt" stroke-linejoin="miter" stroke-opacity="1" stroke-width="1" font-family="Bitstream Vera Sans" font-size="12" font-style="normal" font-weight="normal" xml:space="preserve"><tspan id="tspan14617" x="518.115" y="126.565">ioctl()</tspan></text><text id="text16071" x="518.531" y="175.969" fill="#000" fill-opacity="1" stroke="none" stroke-linecap="butt" stroke-linejoin="miter" stroke-opacity="1" stroke-width="1" font-family="Bitstream Vera Sans" font-size="12" font-style="normal" font-weight="normal" xml:space="preserve"><tspan id="tspan16073" x="518.531" y="175.969">adjtimex()</tspan></text><path id="path7553" fill="#000" fill-opacity="1" stroke="none" stroke-dasharray="none" stroke-dashoffset="0" stroke-linejoin="miter" stroke-miterlimit="4" stroke-opacity="1" stroke-width="1" d="M 112.44858,196.763 L 102.36214,202.58641 L 92.275712,208.40981 L 92.275712,196.763 L 92.275712,185.11619 L 102.36214,190.9396 L 112.44858,196.763 z" transform="matrix(-0.382906,0,0,0.258652,128.9564,16.5423)"/><path id="path8281" fill="#000" fill-opacity="1" stroke="none" stroke-dasharray="none" stroke-dashoffset="0" stroke-linejoin="miter" stroke-miterlimit="4" stroke-opacity="1" stroke-width="1" d="M 112.44858,196.763 L 102.36214,202.58641 L 92.275712,208.40981 L 92.275712,196.763 L 92.275712,185.11619 L 102.36214,190.9396 L 112.44858,196.763 z" transform="matrix(0.382906,0,0,0.258652,50.5662,37.5672)"/><path id="path8283" fill="#000" fill-opacity="1" stroke="none" stroke-dasharray="none" stroke-dashoffset="0" stroke-linejoin="miter" stroke-miterlimit="4" stroke-opacity="1" stroke-width="1" d="M 112.44858,196.763 L 102.36214,202.58641 L 92.275712,208.40981 L 92.275712,196.763 L 92.275712,185.11619 L 102.36214,190.9396 L 112.44858,196.763 z" transform="matrix(-0.382906,0,0,0.258652,410.0942,16.5672)"/><path id="path8285" fill="#000" fill-opacity="1" stroke="none" stroke-dasharray="none" stroke-dashoffset="0" stroke-linejoin="miter" stroke-miterlimit="4" stroke-opacity="1" stroke-width="1" d="M 112.44858,196.763 L 102.36214,202.58641 L 92.275712,208.40981 L 92.275712,196.763 L 92.275712,185.11619 L 102.36214,190.9396 L 112.44858,196.763 z" transform="matrix(0.382906,0,0,0.258652,331.704,37.5921)"/><path id="path8287" fill="#000" fill-opacity="1" stroke="none" stroke-dasharray="none" stroke-dashoffset="0" stroke-linejoin="miter" stroke-miterlimit="4" stroke-opacity="1" stroke-width="1" d="M 112.44858,196.763 L 102.36214,202.58641 L 92.275712,208.40981 L 92.275712,196.763 L 92.275712,185.11619 L 102.36214,190.9396 L 112.44858,196.763 z" transform="matrix(0.382906,0,0,0.258652,331.704,62.5672)"/><path id="path8289" fill="#000" fill-opacity="1" stroke="none" stroke-dasharray="none" stroke-dashoffset="0" stroke-linejoin="miter" stroke-miterlimit="4" stroke-opacity="1" stroke-width="1" d="M 112.44858,196.763 L 102.36214,202.58641 L 92.275712,208.40981 L 92.275712,196.763 L 92.275712,185.11619 L 102.36214,190.9396 L 112.44858,196.763 z" transform="matrix(-0.382906,0,0,0.258652,610.8186,16.5672)"/><path id="path8291" fill="#000" fill-opacity="1" stroke="none" stroke-dasharray="none" stroke-dashoffset="0" stroke-linejoin="miter" stroke-miterlimit="4" stroke-opacity="1" stroke-width="1" d="M 112.44858,196.763 L 102.36214,202.58641 L 92.275712,208.40981 L 92.275712,196.763 L 92.275712,185.11619 L 102.36214,190.9396 L 112.44858,196.763 z" transform="matrix(0.382906,0,0,0.258652,532.4284,37.5921)"/><path id="path8293" fill="#000" fill-opacity="1" stroke="none" stroke-dasharray="none" stroke-dashoffset="0" stroke-linejoin="miter" stroke-miterlimit="4" stroke-opacity="1" stroke-width="3.178" d="M 112.44858,196.763 L 102.36214,202.58641 L 92.275712,208.40981 L 92.275712,196.763 L 92.275712,185.11619 L 102.36214,190.9396 L 112.44858,196.763 z" transform="matrix(0.382906,0,0,0.258652,532.4284,62.5672)"/><path id="path9747" fill="#000" fill-opacity="1" stroke="none" stroke-dasharray="none" stroke-dashoffset="0" stroke-linejoin="miter" stroke-miterlimit="4" stroke-opacity="1" stroke-width="1" d="M 112.44858,196.763 L 102.36214,202.58641 L 92.275712,208.40981 L 92.275712,196.763 L 92.275712,185.11619 L 102.36214,190.9396 L 112.44858,196.763 z" transform="matrix(-0.382906,0,0,0.258652,633.8185,111.5423)"/><path id="path9749" fill="#000" fill-opacity="1" stroke="none" stroke-dasharray="none" stroke-dashoffset="0" stroke-linejoin="miter" stroke-miterlimit="4" stroke-opacity="1" stroke-width="1" d="M 112.44858,196.763 L 102.36214,202.58641 L 92.275712,208.40981 L 92.275712,196.763 L 92.275712,185.11619 L 102.36214,190.9396 L 112.44858,196.763 z" transform="matrix(-0.382906,0,0,0.258652,461.8185,111.5672)"/><path id="path9751" fill="#000" fill-opacity="1" stroke="none" stroke-dasharray="none" stroke-dashoffset="0" stroke-linejoin="miter" stroke-miterlimit="4" stroke-opacity="1" stroke-width="1" d="M 112.44858,196.763 L 102.36214,202.58641 L 92.275712,208.40981 L 92.275712,196.763 L 92.275712,185.11619 L 102.36214,190.9396 L 112.44858,196.763 z" transform="matrix(-0.382906,0,0,0.258652,377.8185,111.5423)"/><text id="text9753" x="338.761" y="80.448" fill="#000" fill-opacity="1" stroke="none" stroke-linecap="butt" stroke-linejoin="miter" stroke-opacity="1" stroke-width="1" font-family="Bitstream Vera Sans" font-size="12" font-style="normal" font-weight="normal" xml:space="preserve"><tspan id="tspan9755" x="338.761" y="80.448">Tx</tspan></text><text id="text9757" x="337.589" y="101.448" fill="#000" fill-opacity="1" stroke="none" stroke-linecap="butt" stroke-linejoin="miter" stroke-opacity="1" stroke-width="1" font-family="Bitstream Vera Sans" font-size="12" font-style="normal" font-weight="normal" xml:space="preserve"><tspan id="tspan9759" x="337.589" y="101.448">Rx</tspan></text><text id="text1759" x="365.814" y="166.916" fill="#000" fill-opacity="1" stroke="none" stroke-linecap="butt" stroke-linejoin="miter" stroke-opacity="1" stroke-width="1" font-family="Bitstream Vera Sans" font-size="12" font-style="normal" font-weight="normal" xml:space="preserve"><tspan id="tspan1761" x="365.814" y="166.916">Clock</tspan></text></g></svg>